<svg xmlns="http://www.w3.org/2000/svg" viewBox="0 0 577.56 356.83"><defs><style>.cls-1{fill:#e0e0e0;}.cls-2{fill:#d14827;}.cls-3{fill:#fff;}.cls-4{fill:#455b64;}.cls-5{fill:#263238;}.cls-6{fill:#cb3645;}.cls-7{fill:#22484f;}.cls-8{fill:#fbbd9d;}.cls-9{fill:#ec996f;}.cls-10{fill:#b78876;}.cls-11{fill:#a36958;}.cls-12{fill:#09343d;}.cls-13{fill:#010101;opacity:0.2;}.cls-14{fill:#e7515b;}.cls-15{fill:#b7603d;}.cls-16{fill:#fafbfb;}</style></defs><g id="Layer_2" data-name="Layer 2"><g id="Layer_1-2" data-name="Layer 1"><path class="cls-1" d="M139,15.31a7.36,7.36,0,0,0,4.39-6.82,6.93,6.93,0,1,0-13.83-.07,7.37,7.37,0,0,0,4.41,6.89c-10.64,1.6-10.16,13.17-10.16,13.17l25.16.11S149.5,16.9,139,15.31Z"/><path class="cls-2" d="M500.72,55.29a10.09,10.09,0,0,0,6-9.34c0-5.57-4.19-10.11-9.42-10.13s-9.48,4.47-9.5,10a10.08,10.08,0,0,0,6,9.42c-14.57,2.19-13.91,18-13.91,18l34.44.16S515.15,57.47,500.72,55.29Z"/><rect class="cls-3" x="242.48" y="22.21" width="56.09" height="37.81" transform="translate(-2.67 25.73) rotate(-5.42)"/><path class="cls-4" d="M300.23,57.28s0-.24-.09-.69l-.21-2c-.18-1.76-.44-4.32-.78-7.58-.64-6.55-1.57-15.93-2.7-27.35l.23.19L240.85,25.2c-.06.06.44-.53.23-.28h0v.14l0,.16,0,.31.06.63.11,1.25.24,2.49.47,4.93c.3,3.26.61,6.48.91,9.63.59,6.3,1.16,12.35,1.7,18.09l-.26-.22,40.19-3.69,11.52-1,3.07-.26.8-.06.28,0-.25,0-.77.09-3,.31-11.45,1.15-40.33,4-.24,0,0-.24c-.55-5.73-1.13-11.79-1.73-18.09q-.45-4.73-.92-9.62c-.15-1.63-.31-3.27-.47-4.93-.08-.83-.16-1.66-.23-2.49l-.12-1.25-.06-.63,0-.31,0-.16V25h0c-.21.25.28-.35.24-.29l55.84-5.24.21,0v.21c1.05,11.48,1.91,20.91,2.5,27.49.29,3.24.51,5.79.67,7.54.07.85.12,1.5.16,2S300.23,57.28,300.23,57.28Z"/><path class="cls-4" d="M296.66,19.64a3.3,3.3,0,0,1-.44.56l-1.31,1.53L290,27.33c-4.24,4.73-10.05,11.23-16.52,18.47l-.15.16-.19-.11-1.48-1-21.86-14-6.59-4.3-1.78-1.19a3.24,3.24,0,0,1-.6-.45,4.87,4.87,0,0,1,.65.36l1.84,1.11L250,30.57l21.94,13.89,1.48.95-.33,0,16.64-18.36c2.1-2.29,3.82-4.15,5-5.49l1.39-1.47A3.45,3.45,0,0,1,296.66,19.64Z"/><path class="cls-5" d="M172.51,64.56a24.17,24.17,0,0,0-.56-3.62A14.38,14.38,0,0,0,170.28,57a14.88,14.88,0,0,0-10-6.89,14.8,14.8,0,0,0-7.71.65,14.07,14.07,0,0,0-3.71,2,13.91,13.91,0,0,0-3.1,3.12,14.62,14.62,0,0,0,0,17.32,13.66,13.66,0,0,0,3.1,3.11,13.82,13.82,0,0,0,3.71,2,14.8,14.8,0,0,0,7.71.65,14.54,14.54,0,0,0,6.19-2.73,14.78,14.78,0,0,0,3.77-4.16A14.3,14.3,0,0,0,172,68.17a24,24,0,0,0,.56-3.61.64.64,0,0,1,0,.24v.71a6.63,6.63,0,0,1-.1,1.16,9.49,9.49,0,0,1-.28,1.55,14.17,14.17,0,0,1-1.61,4,15,15,0,0,1-10.13,7.17,15.22,15.22,0,0,1-8-.63,14.59,14.59,0,0,1-3.84-2.06,14.37,14.37,0,0,1-3.21-3.21,15.08,15.08,0,0,1,0-17.92,14.64,14.64,0,0,1,3.21-3.22,14.85,14.85,0,0,1,3.84-2.05,15,15,0,0,1,14.3,2.23,15,15,0,0,1,3.79,4.31,14.06,14.06,0,0,1,1.61,4,9.49,9.49,0,0,1,.28,1.55,6.63,6.63,0,0,1,.1,1.16v.71A.64.64,0,0,1,172.51,64.56Z"/><path class="cls-5" d="M192.54,89.45c-.08.12-5.35-3.28-11.78-7.6s-11.57-7.9-11.49-8,5.35,3.28,11.78,7.59S192.62,89.33,192.54,89.45Z"/><polygon class="cls-2" points="236.75 116.94 225.07 104.38 228.85 100.86 236.91 109.53 253.84 92.88 257.46 96.56 236.75 116.94"/><path class="cls-5" d="M564.42,104.91H565l.7,0c.27,0,.59.08,1,.13a12.66,12.66,0,0,1,5.84,2.56,13.11,13.11,0,0,1,4.92,8.75,28.83,28.83,0,0,1,.09,3.11c0,1.07,0,2.17,0,3.3q0,3.42,0,7.21c0,2.53,0,5.18,0,7.95,0,1.39,0,2.8,0,4.25a15.56,15.56,0,0,1-.44,4.42,13.07,13.07,0,0,1-9.88,9.5,23.66,23.66,0,0,1-5,.32l-44.64,0,.19-.08-10.08,10.08-.44.44v-10.7l.26.26a26.3,26.3,0,0,1-3.31-.12,13.09,13.09,0,0,1-3.21-.84,13.34,13.34,0,0,1-5.26-3.84,13.57,13.57,0,0,1-2.76-5.79,16.21,16.21,0,0,1-.26-3.17V139.6q0-6.19,0-12.15v-5.88a46.29,46.29,0,0,1,.18-5.77,13.26,13.26,0,0,1,2.05-5.27,13.21,13.21,0,0,1,9-5.67,37.22,37.22,0,0,1,5.14-.16l18.64,0,26.92.08,7.3,0,1.9,0,.64,0-.64,0-1.9,0-7.3.05-26.92.08-18.64,0a39.27,39.27,0,0,0-5.08.17,12.61,12.61,0,0,0-10.6,10.59,46.36,46.36,0,0,0-.17,5.69c0,1.94,0,3.9,0,5.88V139.6a37.42,37.42,0,0,0,.26,6.18,12.65,12.65,0,0,0,7.71,9.25,12.59,12.59,0,0,0,3.08.8,24.9,24.9,0,0,0,3.25.12h.26v10.33l-.44-.18c3.45-3.46,6.86-6.86,10.07-10.07l.08-.08h.1l44.64,0a23.15,23.15,0,0,0,5-.29,12.66,12.66,0,0,0,9.57-9.17,14.71,14.71,0,0,0,.45-4.32V138c0-2.77,0-5.42,0-7.95s0-4.93,0-7.21c0-1.13,0-2.23,0-3.3s0-2.1-.08-3.08a12.9,12.9,0,0,0-10.51-11.25c-.36-.06-.68-.12-1-.15L565,105C564.61,104.94,564.42,104.91,564.42,104.91Z"/><path class="cls-5" d="M524.76,132.28s0-.26-.19-.68a2.87,2.87,0,0,0-1.06-1.46,2.72,2.72,0,0,0-2.52-.34,2.65,2.65,0,1,0,2.52,4.61,2.83,2.83,0,0,0,1.06-1.46,6.9,6.9,0,0,1,.19-.67s.09.25,0,.72a2.9,2.9,0,0,1-1,1.71,3,3,0,0,1-2.91.49,3.1,3.1,0,0,1,0-5.85,3,3,0,0,1,2.91.5,2.85,2.85,0,0,1,1,1.7C524.85,132,524.79,132.28,524.76,132.28Z"/><path class="cls-5" d="M538,132.15s-.06-.26-.19-.68a2.87,2.87,0,0,0-1.06-1.46,2.72,2.72,0,0,0-2.52-.34,2.65,2.65,0,1,0,2.52,4.61,2.83,2.83,0,0,0,1.06-1.46c.13-.42.14-.67.19-.67s.09.25,0,.72a2.9,2.9,0,0,1-1,1.71,3,3,0,0,1-2.91.49,3.1,3.1,0,0,1,0-5.85,3,3,0,0,1,2.91.5,2.85,2.85,0,0,1,1,1.7C538.11,131.89,538.05,132.15,538,132.15Z"/><path class="cls-5" d="M551.28,132.15s-.06-.26-.19-.68A2.87,2.87,0,0,0,550,130a2.73,2.73,0,0,0-2.52-.34,2.65,2.65,0,1,0,2.52,4.61,2.83,2.83,0,0,0,1.06-1.46c.13-.42.14-.67.19-.67a1.27,1.27,0,0,1,0,.72,2.87,2.87,0,0,1-1,1.71,3,3,0,0,1-2.91.49,3.1,3.1,0,0,1,0-5.85,3,3,0,0,1,2.91.5,2.83,2.83,0,0,1,1,1.7A1.31,1.31,0,0,1,551.28,132.15Z"/><path class="cls-2" d="M62.67,63.49c0-8.59-9-14-18.22-9.72a10.46,10.46,0,0,0-4.84,4.64c-2.31,4.48-1.29,9.6.81,13.85L47.58,90.4a3.08,3.08,0,0,0,5.74,0l7-18.23C62.77,66.58,62.67,63.49,62.67,63.49ZM54,71c-6.18,3.59-12.45-3-9.06-9.61a5.17,5.17,0,0,1,2-2.08c6.18-3.59,12.45,3,9.06,9.61A5.17,5.17,0,0,1,54,71Z"/><path class="cls-6" d="M94.45,93.13h0s.05.12.12.33l.33,1c.29.87.7,2.13,1.25,3.78,1.08,3.34,2.67,8.22,4.71,14.5l.07.2-.21,0-20.15-3.69-.14,0V109h0l.27.14a50.2,50.2,0,0,1-23.31,9.62,50.82,50.82,0,0,1-7.15.47,55.42,55.42,0,0,1-7.42-.62,54.06,54.06,0,0,1-7.54-1.69l-3.72-1.36a13.59,13.59,0,0,1-1.84-.79l-1.82-.88a51.78,51.78,0,0,1-13.46-9.75,49.59,49.59,0,0,1-9.89-14.4,50.43,50.43,0,0,1,17.83-63,50.39,50.39,0,0,1,78.35,38.77,47.93,47.93,0,0,1-1.37,15.38,49.41,49.41,0,0,1-3.32,9.2c-.49,1-.88,1.77-1.16,2.25l-.44.77.38-.77c.27-.52.65-1.28,1.12-2.29a50.4,50.4,0,0,0,3.22-9.2,48.19,48.19,0,0,0,1.28-15.32A50.11,50.11,0,0,0,22.68,27.18,49.95,49.95,0,0,0,5,89.53a49.25,49.25,0,0,0,9.78,14.26,51.47,51.47,0,0,0,13.32,9.68l1.8.87a13.9,13.9,0,0,0,1.82.79l3.69,1.36a55.27,55.27,0,0,0,14.82,2.31,50.14,50.14,0,0,0,30.26-9.93l.27-.21V109h0l-.14-.16,20.14,3.77-.14.16c-2-6.29-3.55-11.19-4.61-14.53-.52-1.66-.91-2.93-1.18-3.8-.13-.42-.23-.74-.3-1a2.75,2.75,0,0,1-.09-.34h0Z"/><path class="cls-4" d="M418.66,51.16a8.24,8.24,0,0,1-.2-1.78,13.68,13.68,0,0,0-.24-2.13,21.12,21.12,0,0,0-.56-2.87,26.81,26.81,0,0,0-3-7.38,27.62,27.62,0,0,0-18.27-13.22,27.37,27.37,0,0,0-14.35.9,25.45,25.45,0,0,0-7,3.55A29.27,29.27,0,0,0,372,30.78a31.28,31.28,0,0,0-2.74,3.1A27.14,27.14,0,0,0,368.43,66,32.47,32.47,0,0,0,371,69.24a31.87,31.87,0,0,0,3,2.7,25.55,25.55,0,0,0,6.79,3.89A27.52,27.52,0,0,0,414,65.1a26.64,26.64,0,0,0,3.33-7.22A19.76,19.76,0,0,0,418,55a14.05,14.05,0,0,0,.34-2.12,8.31,8.31,0,0,1,.29-1.76,7.17,7.17,0,0,1,0,1.79,11.61,11.61,0,0,1-.2,2.17,18.16,18.16,0,0,1-.57,2.92,26.26,26.26,0,0,1-3.18,7.52,28.31,28.31,0,0,1-19.42,13.12,28.52,28.52,0,0,1-15-1.53,26.83,26.83,0,0,1-7.18-4.05,31.6,31.6,0,0,1-3.19-2.84,30,30,0,0,1-2.74-3.38A28.49,28.49,0,0,1,368,33a33.42,33.42,0,0,1,2.9-3.25A32.28,32.28,0,0,1,374.25,27a27.07,27.07,0,0,1,7.36-3.7,28.68,28.68,0,0,1,15.07-.8,28.22,28.22,0,0,1,11.82,5.72,27.87,27.87,0,0,1,6.93,8.33,26.43,26.43,0,0,1,2.82,7.67,20.46,20.46,0,0,1,.43,2.94,13.27,13.27,0,0,1,.09,2.18A7.27,7.27,0,0,1,418.66,51.16Z"/><path class="cls-4" d="M413.07,33.7c.06.08-.44.52-1.41,1.24l-1.8,1.3c-.36.24-.73.52-1.15.78l-1.37.71a31.48,31.48,0,0,1-16.44,4.14l-2.48-.11L386,41.39c-.39-.07-.78-.12-1.16-.2l-1.11-.29c-.74-.21-1.46-.38-2.15-.6a35.94,35.94,0,0,1-7-3.21c-3.75-2.27-5.57-4.33-5.43-4.46s2.19,1.55,6,3.51A42.05,42.05,0,0,0,382,39c.67.19,1.37.34,2.07.52l1.08.27,1.11.17,2.28.33,2.37.1a34,34,0,0,0,15.91-3.58l1.39-.6c.43-.22.81-.46,1.18-.66l1.91-1.06C412.39,33.88,413,33.61,413.07,33.7Z"/><path class="cls-4" d="M368.36,67.68c-.06-.09.44-.53,1.41-1.25l1.8-1.29c.36-.25.73-.52,1.15-.78l1.37-.72a31.57,31.57,0,0,1,16.43-4.14l2.49.11,2.39.38c.39.06.78.11,1.16.19l1.11.3c.74.2,1.46.37,2.15.59a36.21,36.21,0,0,1,7,3.22c3.75,2.26,5.57,4.32,5.43,4.45s-2.19-1.55-6-3.51a43,43,0,0,0-6.86-2.81c-.67-.19-1.37-.34-2.08-.52l-1.07-.26-1.11-.17-2.28-.34L390.49,61a34,34,0,0,0-15.91,3.57l-1.39.6c-.43.23-.81.46-1.18.67l-1.91,1.05C369,67.49,368.42,67.76,368.36,67.68Z"/><path class="cls-4" d="M418.65,51.81c0,.42-12.53.46-28,.09s-27.94-1-27.93-1.45,12.53-.46,28-.09S418.66,51.38,418.65,51.81Z"/><path class="cls-4" d="M389.42,78.4c-.43,0-.47-12.53-.09-27.95s1-27.93,1.44-27.92.47,12.52.09,27.95S389.84,78.41,389.42,78.4Z"/><path class="cls-4" d="M389.42,78.35c-.11.17-3.19-1.92-6.74-6.65a37.72,37.72,0,0,1-5-9.07,33.92,33.92,0,0,1-2.16-12.52,32.18,32.18,0,0,1,2.82-12.4,39.34,39.34,0,0,1,5.46-8.79c3.76-4.54,6.87-6.56,7-6.4s-2.66,2.46-6.11,7.07a41.84,41.84,0,0,0-5,8.69,32.07,32.07,0,0,0-2.58,11.86,34.09,34.09,0,0,0,1.95,12,40.67,40.67,0,0,0,4.55,8.92C386.8,75.84,389.57,78.18,389.42,78.35Z"/><path class="cls-4" d="M391.4,22.54c.1-.17,3.18,1.92,6.74,6.65a37.72,37.72,0,0,1,5,9.07,33.52,33.52,0,0,1,2.16,12.52,32,32,0,0,1-2.82,12.4A38.63,38.63,0,0,1,397,72c-3.76,4.54-6.86,6.56-7,6.4s2.66-2.46,6.12-7.07a41.84,41.84,0,0,0,5-8.69,32.08,32.08,0,0,0,2.59-11.86,34.09,34.09,0,0,0-2-12,40.46,40.46,0,0,0-4.55-8.92C394,25.05,391.24,22.71,391.4,22.54Z"/><path class="cls-6" d="M362.78,92.1h0a2.94,2.94,0,0,1-.34.09l-1,.25-3.87.9-14.86,3.41-.21,0,.06-.21L348,76.86l0-.14.15,0h0l-.16.25a50.15,50.15,0,0,1-7.51-24.07,50.66,50.66,0,0,1,.16-7.16,55.67,55.67,0,0,1,3.63-14.7c.55-1.18,1.12-2.38,1.68-3.59a14.36,14.36,0,0,1,1-1.76L348,24a51.26,51.26,0,0,1,10.91-12.54,49.66,49.66,0,0,1,15.22-8.57,50.4,50.4,0,0,1,61.14,23.36,50.38,50.38,0,0,1-45.58,74.59,48.08,48.08,0,0,1-15.2-2.73A49,49,0,0,1,365.64,94c-1-.58-1.68-1-2.13-1.35l-.73-.51.73.45c.5.32,1.22.76,2.19,1.32a50.3,50.3,0,0,0,8.88,4,48,48,0,0,0,15.14,2.64,50.12,50.12,0,0,0,45.13-74.06A49.95,49.95,0,0,0,374.32,3.35a49,49,0,0,0-15.08,8.47,51.49,51.49,0,0,0-10.82,12.4l-1,1.72a13.48,13.48,0,0,0-.95,1.75c-.57,1.19-1.12,2.37-1.68,3.55a52.74,52.74,0,0,0-2.34,7.29,53.29,53.29,0,0,0-1.28,7.27,49.87,49.87,0,0,0,7.21,31l.17.29-.33,0h0l.18-.12c-2.14,7.61-4,14.27-5.55,19.72l-.15-.15,14.89-3.3,3.89-.84,1-.21.34-.06h0Z"/><path d="M404.91,116.14c-4.89,1.14-8,6.1-9.06,11s-.54,10-1,15-2.22,10.31-6.42,13l4.19,1.21a11.44,11.44,0,0,1-4.92,6.3,9.33,9.33,0,0,0,5.72,1.95c-2.47.66-3.15,4.17-1.79,6.33s3.95,3.17,6.42,3.79a16.83,16.83,0,0,0,8.9.27c4.06-1.2,7.08-4.77,8.64-8.7s1.83-8.25,1.95-12.48c.3-10.59-.32-21.29-3-31.54-.65-2.48-1.56-5.11-3.67-6.57s-5.71-.87-6.34,1.62"/><path class="cls-7" d="M515.45,269c-1.16-4.42-7.92-29.31-14-45.58-6.7-18-20.54-21.77-20.54-21.77-31.15-10.63-59.14-10.69-89-.33-1,.3-1.89.61-2.78,1l-.1,0h0c-22.17,8.7-24.46,32.12-24.46,32.12l-9.31,56.82a13,13,0,0,0-.22,1.37l-.09.54h0A13.29,13.29,0,0,0,362.6,306c13,6,25.45,4.57,36.12.17L391,317.46h92.38l-6.18-14.94,2.06-9,14.31,17.22a13.35,13.35,0,0,0,6.59,4.3c16.49,1.91,19.16-22.66,16.06-36.95h0"/><path class="cls-8" d="M456.91,195.45s-14.9,75-20.16,74.42-29.88-73-29.88-73S438.35,188.47,456.91,195.45Z"/><path class="cls-8" d="M414.63,201c-.08-8.63-.32-17.72-.32-17.72s-11.13-1.78-13.52-16.27c-2.28-13.83-.2-45.79-.2-45.79h0A41.7,41.7,0,0,1,447,131.55h0l-.52,70.12c-.06,8.14-7.1,14.57-15.82,14.44h0C421.9,216,414.71,209.21,414.63,201Z"/><path class="cls-5" d="M404.28,145.4a1.86,1.86,0,0,0,1.81,1.86,1.78,1.78,0,0,0,1.91-1.69,1.87,1.87,0,0,0-1.81-1.87A1.79,1.79,0,0,0,404.28,145.4Z"/><path class="cls-5" d="M401.83,144.07c.23.24,1.64-.81,3.64-.81s3.48,1,3.69.74-.13-.55-.77-1a5.08,5.08,0,0,0-3-.89,4.88,4.88,0,0,0-2.89,1C401.92,143.53,401.72,144,401.83,144.07Z"/><path class="cls-5" d="M424.53,146.37a1.86,1.86,0,0,0,1.81,1.86,1.78,1.78,0,0,0,1.91-1.69,1.86,1.86,0,0,0-1.81-1.86A1.78,1.78,0,0,0,424.53,146.37Z"/><path class="cls-5" d="M422.73,144.67c.23.25,1.64-.81,3.64-.81s3.47,1,3.69.74-.13-.55-.78-1a5,5,0,0,0-2.95-.89,4.91,4.91,0,0,0-2.9,1C422.82,144.13,422.61,144.57,422.73,144.67Z"/><path class="cls-5" d="M415.55,159.57a13.06,13.06,0,0,0-3.25-.57c-.52-.05-1-.15-1.09-.5a2.62,2.62,0,0,1,.33-1.51c.48-1.24,1-2.54,1.49-3.91,2.07-5.55,3.56-10.12,3.34-10.2s-2.09,4.36-4.15,9.91c-.5,1.37-1,2.68-1.43,3.93a3,3,0,0,0-.25,2,1.29,1.29,0,0,0,.85.75,3.14,3.14,0,0,0,.87.11A13.18,13.18,0,0,0,415.55,159.57Z"/><path class="cls-9" d="M414.31,183.27a36.91,36.91,0,0,0,19.4-5.3s-4.65,10-19.18,8.72Z"/><path class="cls-9" d="M416.43,164.39a3.58,3.58,0,0,1,3.22-1.36,3.34,3.34,0,0,1,2.29,1.2,2.09,2.09,0,0,1,.17,2.39,2.44,2.44,0,0,1-2.62.68,7.71,7.71,0,0,1-2.57-1.51,2.17,2.17,0,0,1-.58-.59.7.7,0,0,1,0-.75"/><path class="cls-5" d="M421.45,160.92c-.32,0-.31,2.15-2.16,3.71s-4.17,1.33-4.19,1.63c0,.14.52.42,1.5.44a5.39,5.39,0,0,0,3.49-1.24,4.72,4.72,0,0,0,1.68-3.11C421.85,161.44,421.6,160.9,421.45,160.92Z"/><path d="M439.22,119.87c-5.18,7.66-19.09,15.69-29.12,17.68,1.15-1.57,7.26-5.49,8.41-7.06-4.5,3.49-10.95,8.16-17,8.57a3.64,3.64,0,0,1-2.08-.28,2.84,2.84,0,0,1-1.1-2.26,60.32,60.32,0,0,1,.19-13.16,14.5,14.5,0,0,1,5.07-9.47c3.82-3.06,9.36-3.9,14.58-4.12,4.38-.18,8.91,0,12.94,1.51s7.52,4.58,8.18,8.33"/><path d="M456.37,155a84.46,84.46,0,0,0,1.28-9.72c.29-7.49,2.54-34.54-23.24-31.86l1.46,7.27s-4.8,16.84,6.26,28.2c0,0-3.15,23.72,4.55,31.39,0,0,8.26-17.19,9.69-25.28"/><path class="cls-8" d="M441.81,147.59a8.62,8.62,0,0,1,4.67.27,6,6,0,0,1,3.43,3.08,6.3,6.3,0,0,1,.07,4.64,10.53,10.53,0,0,1-2.62,3.91,7.17,7.17,0,0,1-2.8,1.89,3.46,3.46,0,0,1-3.24-.48"/><path class="cls-9" d="M442.72,157c-.18.06.5,1,1.92.6a3,3,0,0,0,1.74-1.54,7,7,0,0,0,.76-2.58,4.06,4.06,0,0,0-.67-2.73,2.72,2.72,0,0,0-2.05-1.19c-1.46,0-1.9,1-1.74,1s.68-.41,1.64-.18a2.61,2.61,0,0,1,1.63,3c-.16,1.6-.76,3.07-1.61,3.44S442.82,156.86,442.72,157Z"/><path class="cls-5" d="M391,270.83c-.15,0-.26-5.89-.26-13.15s.11-13.16.26-13.16.26,5.89.26,13.16S391.11,270.83,391,270.83Z"/><path class="cls-8" d="M428.51,244s-13,.14-13.78,3c-1.36,4.77,1.07,30.89,1.07,30.89l11.94,4s5.76-1.33,3.1-12.41A81.31,81.31,0,0,0,423,249.49s15.87.45,15.43-3.1S428.51,244,428.51,244Z"/><path class="cls-8" d="M423.35,251.69c.72-.14,16.59-1.45,15.59,1.08S423.35,256,423.35,256Z"/><polygon class="cls-5" points="474.34 213.26 472.38 262.83 465.14 281.85 420.66 282.77 418.86 221.38 474.34 213.26"/><path class="cls-5" d="M413.7,261.45a3.83,3.83,0,0,1-.55.28l-1.6.71L405.63,265,386,273.16l-10.82,4.45a62.08,62.08,0,0,0-8.65,4,16.84,16.84,0,0,0-4.84,4.11c-.91,1.21-1.24,2-1.3,2a4,4,0,0,1,.24-.56,9.38,9.38,0,0,1,.9-1.52,16.26,16.26,0,0,1,4.81-4.31,59.75,59.75,0,0,1,8.65-4.1l10.82-4.49,19.68-8,6-2.39,1.64-.62A2.16,2.16,0,0,1,413.7,261.45Z"/><path class="cls-5" d="M428.4,280.87a9.13,9.13,0,0,1-1,1.19c-.65.74-1.63,1.8-2.88,3.05-2.48,2.52-6.08,5.83-10.22,9.3s-8,6.43-10.89,8.51c-1.42,1.05-2.6,1.87-3.41,2.42a9.16,9.16,0,0,1-1.31.82,8.15,8.15,0,0,1,1.19-1l3.31-2.55c2.8-2.16,6.64-5.17,10.77-8.62s7.76-6.72,10.31-9.17c1.28-1.21,2.28-2.22,3-2.92A8.13,8.13,0,0,1,428.4,280.87Z"/><path class="cls-5" d="M495.4,312.59c-.11.09-6.64-7.39-14.58-16.7s-14.29-16.95-14.18-17,6.64,7.38,14.58,16.7S495.51,312.49,495.4,312.59Z"/><path class="cls-5" d="M508,276.57a8,8,0,0,1-1.45-.51c-.92-.36-2.23-.92-3.84-1.64-3.22-1.44-7.6-3.61-12.27-6.3s-8.72-5.42-11.58-7.49c-1.43-1-2.57-1.89-3.34-2.51a9.41,9.41,0,0,1-1.17-1,8.48,8.48,0,0,1,1.29.84l3.43,2.37c2.91,2,7,4.65,11.63,7.34s9,4.89,12.16,6.42l3.77,1.78A9.1,9.1,0,0,1,508,276.57Z"/><path class="cls-5" d="M485,265.7c-.14,0-.93-5.27-1.75-11.82S481.84,242,482,242s.92,5.27,1.74,11.82S485.09,265.68,485,265.7Z"/><path class="cls-5" d="M447.32,156.89a2.66,2.66,0,0,1-.41.64l-1.27,1.7-4.6,6,0-.32,7.51,5.9.68.54-.37,0,6.5-8.14,0,.3-4.9-4-1.34-1.14a3.12,3.12,0,0,1-.44-.43,2.43,2.43,0,0,1,.52.33l1.42,1,5,3.85.17.13-.13.17-6.43,8.2-.16.2-.2-.16-.68-.54-7.47-5.95-.18-.14.14-.18,4.75-5.86,1.37-1.62A3.43,3.43,0,0,1,447.32,156.89Z"/><path class="cls-8" d="M466.4,278.11a175.34,175.34,0,0,1-21.47-2.31c-8.42-1.34-8.33-2.1-8-3.06.81-2.59,14.88,1.8,12.36-.91s-17.79-3.35-16.84-6c1.24-3.47,15.9,1.39,17.17,1.71s1.73-1.52.57-1.74c-1.67-.33-19.1-4.19-17.91-7.61.66-1.9,3.94-.31,3.94-.31s16.07,4.82,16.57,3.19-8.83-4.81-12.05-5.65-4.12-2.69-2.62-3.8c1-.76,10.94,1.57,14.11,2.47s11.82,3.54,8.52-1.25c-.06-.07-.1-.15-.15-.22-3.37-4.63-4.44-9.31-3.83-10.87s2.75-1.43,3.56,0a1.86,1.86,0,0,1,.32.76c0,.13.09.28.12.42a29.18,29.18,0,0,0,2.92,5.09,15.48,15.48,0,0,0,3.64,3.76c1.65,1.2,5.79,5.58,7,6.36"/><path class="cls-10" d="M168.81,219.15h0a17.55,17.55,0,0,1-17.23-17c-.23-7.8-.41-15.3-.41-15.3s-14.31-1.33-15.36-15.49-.6-46.85-.6-46.85h0a49.34,49.34,0,0,1,49.87,3.16l2.2,1.49-.61,72.6A17.54,17.54,0,0,1,168.81,219.15Z"/><path class="cls-5" d="M150.81,162.62c0-.15-1.22-.32-3.2-.47-.51,0-.92-.12-1-.39a2.78,2.78,0,0,1,.27-1.48c.43-1.33.85-2.66,1.3-4.07,1.78-5.78,3-10.54,2.7-10.63s-2,4.53-3.76,10.31L145.93,160a3.25,3.25,0,0,0-.14,2.14,1.28,1.28,0,0,0,.93.76,2.72,2.72,0,0,0,.87.06C149.58,162.88,150.81,162.78,150.81,162.62Z"/><path class="cls-3" d="M157.28,164.39a48.25,48.25,0,0,1-9.4,3.37,5.41,5.41,0,0,0,6.5,1.75C158.53,167.7,157.28,164.39,157.28,164.39Z"/><path class="cls-11" d="M151.13,186.63a33,33,0,0,0,18.15-6.39s-3.73,10.47-17.95,10.07Z"/><path class="cls-10" d="M186.49,146.66a2.15,2.15,0,0,1,2-2.14c2.64-.08,7,1,7.37,8.27.58,10.42-9.44,7.82-9.48,7.53S186.47,150.71,186.49,146.66Z"/><path class="cls-11" d="M188.73,156.22s.19.12.5.24a1.79,1.79,0,0,0,1.36-.05c1.08-.46,1.91-2.26,1.86-4.15a6,6,0,0,0-.66-2.57,2.12,2.12,0,0,0-1.44-1.32.93.93,0,0,0-1,.56c-.13.3-.05.51-.1.53s-.24-.17-.18-.6a1.15,1.15,0,0,1,.38-.68,1.41,1.41,0,0,1,1-.32,2.55,2.55,0,0,1,2,1.51,6.07,6.07,0,0,1,.79,2.87c.05,2.11-.91,4.13-2.39,4.65a2,2,0,0,1-1.68-.18C188.76,156.47,188.69,156.24,188.73,156.22Z"/><path class="cls-5" d="M139.64,148.5a1.94,1.94,0,0,0,2,1.81,1.85,1.85,0,0,0,1.86-1.88,1.93,1.93,0,0,0-2-1.8A1.85,1.85,0,0,0,139.64,148.5Z"/><path class="cls-5" d="M136.38,146.57c.25.24,1.63-.94,3.7-1.08s3.65.78,3.86.51c.1-.12-.17-.55-.87-1a5.26,5.26,0,0,0-3.11-.72,5,5,0,0,0-2.92,1.18C136.44,146,136.25,146.47,136.38,146.57Z"/><path class="cls-5" d="M160.18,148.14a1.91,1.91,0,0,0,2,1.81,1.85,1.85,0,0,0,1.86-1.87,1.93,1.93,0,0,0-2-1.81A1.84,1.84,0,0,0,160.18,148.14Z"/><path class="cls-5" d="M157.35,146.57c.25.24,1.63-.94,3.7-1.08s3.65.78,3.85.51c.11-.12-.17-.55-.86-1a5.3,5.3,0,0,0-3.11-.72,5.1,5.1,0,0,0-2.93,1.18C157.41,146,157.22,146.47,157.35,146.57Z"/><path d="M171,119.6a12.4,12.4,0,0,0,2.36,13.3c1.4,1.45,3.15,2.55,4.36,4.15,2.51,3.33,2.1,7.91,2.49,12.06.18,1.92.63,4,2,5.27s4.06,1.4,5-.26a5,5,0,0,0,.52-1.66l2.61-13.86c.65-3.46,1.3-7,.7-10.49a14.82,14.82,0,0,0-18.51-11.77"/><path d="M173.19,116.67c-4.81-.92-7.51-2.45-10.91-4a16.07,16.07,0,0,0-10.84-1.23c-2.42.69-4.71,2.14-7.21,2.12s-4.69-1.5-7.06-2.25a12.6,12.6,0,0,0-9.79,1c-2.32,1.27-4.42,3.56-4.61,6.36s2.3,5.69,4.8,4.9c-2.61.91-3.68,4.76-2.37,7.34a6.72,6.72,0,0,0,7,3.31,12.81,12.81,0,0,0,7.06-4.3c.06,3.12,3.18,5.31,6.08,5.22s5.52-1.83,7.91-3.62,4.81-3.74,7.66-4.37c2-.44,4-.21,6-.45s4.15-1.11,5.12-3,4.82-4.11,2.8-4.16"/><path class="cls-5" d="M144.71,132a10.32,10.32,0,0,0,1.07.57,5.09,5.09,0,0,0,3.21,0,8.39,8.39,0,0,0,2.07-.91c.7-.42,1.41-.95,2.16-1.5a18.61,18.61,0,0,1,2.51-1.6,7.27,7.27,0,0,1,3.15-.79c2.22,0,4.24.56,6.06.39A5.46,5.46,0,0,0,169,126a6,6,0,0,0,1.21-3c.08-.77,0-1.21.06-1.22a1.11,1.11,0,0,1,.08.31,3.75,3.75,0,0,1,.07.92,6.09,6.09,0,0,1-2.85,4.84,5.79,5.79,0,0,1-2.61.84c-1.94.2-4-.4-6.09-.35s-3.88,1.19-5.39,2.26c-.76.54-1.49,1.06-2.22,1.49a9,9,0,0,1-2.19.89,5.1,5.1,0,0,1-3.39-.16,3.37,3.37,0,0,1-.77-.51C144.77,132.12,144.7,132,144.71,132Z"/><path class="cls-5" d="M171.73,111.73a19.94,19.94,0,0,0,.29,3.32,20.48,20.48,0,0,0,1.3,3.07,5.7,5.7,0,0,1-1.59-6.39Z"/><path class="cls-5" d="M177.06,111.51c.11.12-1.18,1.34-2.15,3.25s-1.22,3.66-1.38,3.64a8.36,8.36,0,0,1,3.53-6.89Z"/><polygon class="cls-10" points="243.92 259.79 265.69 315.8 232.37 315.8 216.84 275.93 243.92 259.79"/><path class="cls-10" d="M125.93,214.31s-28.69,29.55-41.11,29.55c-4.06,0-7.25-49.21-7.29-63.4h0a18,18,0,0,1,2.79-5.1,23.51,23.51,0,0,1,3.6-4,25,25,0,0,1,5.63-3.63c1.94-.69,2.1-3.34.34-3.87s-7.16,1.22-12,5.8S74.53,164,75,160.28s1.34-15.35.3-16.37c-1.53-1.5-3.46-.11-3.83,3.63s-2.28,14.9-4.24,14.61.66-19.28.66-19.28,1.21-4-1-4.39c-4.07-.74-5.34,19.63-5.42,21.57,0,1.35-2.2,1.11-2.06-.33s3-18.91-1.11-19.7c-3.18-.6-1.2,16.75-3.81,20.08s-.15-13.34-3.21-13.79c-1.14-.17-2-.14-2,9.61,0,5.23,2,13.14,1.22,23.23h0c1.33,29.75-.13,113.33,33,103.42,36.42-10.89,61.3-34.75,61.3-34.75Z"/><path class="cls-5" d="M206.3,240.8a5.12,5.12,0,0,1,.33,1.17c.17.77.4,1.88.66,3.26.52,2.75,1.12,6.58,1.6,10.83s.71,8.13.81,10.93c0,1.4.06,2.53.06,3.32a6.71,6.71,0,0,1-.06,1.22,5.21,5.21,0,0,1-.15-1.22c-.06-.88-.13-2-.22-3.3-.19-2.79-.49-6.65-1-10.89s-1-8.07-1.44-10.83c-.2-1.3-.37-2.4-.5-3.28A5.69,5.69,0,0,1,206.3,240.8Z"/><path class="cls-12" d="M121.06,315.8l91.73.47L209.7,296.9a149.85,149.85,0,0,0-.14-27.61l4.65,12.59,37.91-18.95s-13.79-36.75-25.32-49.2C212.22,198,186,199.57,186,199.57l-17.72,12L152,200.12a79.37,79.37,0,0,0-25.21,7.33l-.84.25v.17c-9.62,5-23.34,17.28-36.42,29.17l15.09,14.69,16.72,15.56a14.3,14.3,0,0,1,2.86-.12C124.46,268.82,121.06,315.8,121.06,315.8Z"/><path class="cls-13" d="M206.75,234.93l12.46,44.45-5,2.5-4.65-12.59S205.05,242.94,206.75,234.93Z"/><path class="cls-7" d="M151,199.91v-4.8s14.33-1.11,17.23,15.81c0,0,4.66-15.81,18.56-17.39l2,7.39s-6.58,20.58-7.54,20.76-13,3.7-13,3.7l-7-1.59L153.44,215Z"/><path class="cls-5" d="M189.05,200.35a5.29,5.29,0,0,1-.79.84c-.52.52-1.29,1.27-2.18,2.23a50.44,50.44,0,0,0-6.21,8.17c-.44.71-.85,1.43-1.23,2.12l-.23.41-.22-.41c-1.59-3-3-5.61-4.07-7.63a3.4,3.4,0,0,0-.92-1,2.08,2.08,0,0,0-1-.36,2.12,2.12,0,0,0-.88.16s.23-.32.88-.34a2.17,2.17,0,0,1,1.1.31,3.46,3.46,0,0,1,1.06,1.09c1.13,1.88,2.57,4.54,4.24,7.56h-.45c.38-.7.79-1.42,1.23-2.14a44.93,44.93,0,0,1,6.39-8.16c.94-.93,1.75-1.64,2.31-2.12A5.76,5.76,0,0,1,189.05,200.35Z"/><path class="cls-5" d="M150,201.2a3.71,3.71,0,0,1,.68.73c.41.48,1,1.19,1.71,2.08,1.43,1.78,3.37,4.25,5.48,7l.34.44-.43,0A18.08,18.08,0,0,0,159,207a5.23,5.23,0,0,1,2-3.34,2.91,2.91,0,0,1,2.58-.33,1.72,1.72,0,0,1,.6.39c.11.12.16.19.15.2a4.57,4.57,0,0,0-.82-.4,2.76,2.76,0,0,0-2.31.44,5,5,0,0,0-1.72,3.14,17.11,17.11,0,0,1-1.18,4.61l-.19.35-.25-.32-.34-.44c-2.12-2.75-4-5.26-5.36-7.09-.68-.92-1.22-1.67-1.58-2.19A3.38,3.38,0,0,1,150,201.2Z"/><path class="cls-5" d="M160.21,315.8a1.1,1.1,0,0,1,0-.27c0-.21,0-.47,0-.8,0-.73.1-1.76.17-3.05.17-2.7.41-6.52.71-11.23.65-9.52,1.55-22.6,2.54-37.05s2-27.53,2.7-37c.37-4.71.67-8.53.88-11.22.11-1.29.2-2.31.26-3,0-.32.06-.58.08-.79a.84.84,0,0,1,.05-.27,1.1,1.1,0,0,1,0,.27l0,.8c0,.74-.1,1.76-.17,3-.17,2.7-.41,6.52-.71,11.24-.66,9.51-1.55,22.59-2.55,37.05s-2,27.52-2.69,37c-.37,4.7-.67,8.53-.88,11.22-.11,1.29-.2,2.31-.26,3.05,0,.32-.07.58-.09.79A1.14,1.14,0,0,1,160.21,315.8Z"/><path class="cls-5" d="M127.29,226.84a10.42,10.42,0,0,1-.09,1.59c-.09,1.11-.21,2.57-.35,4.32-.27,3.65-.55,8.69-.86,14.27s-.65,10.63-1,14.28c-.17,1.82-.36,3.29-.51,4.31a10.33,10.33,0,0,1-.28,1.56,8.27,8.27,0,0,1,.08-1.59c.09-1.11.21-2.56.35-4.32.27-3.64.55-8.69.86-14.27s.65-10.63,1-14.27c.17-1.83.36-3.3.51-4.31A8.5,8.5,0,0,1,127.29,226.84Z"/><path class="cls-14" d="M167.16,208.51s-4.92,6.42-4.2,7.39l4.2,5.6h3s2.8-7.86,2.08-8.86S167.16,208.51,167.16,208.51Z"/><polygon class="cls-14" points="174.71 206.77 169.28 211.02 171.36 215 176.95 210.89 174.71 206.77"/><polygon class="cls-2" points="158.76 209.45 163.72 213.59 166.46 209.45 160.21 204.7 158.76 209.45"/><polygon class="cls-2" points="167.16 221.5 159.6 289.15 167.04 312.68 176.95 289.37 170.43 220.69 167.16 221.5"/><path class="cls-5" d="M220,208.92a6.17,6.17,0,0,0-1-.67,4.21,4.21,0,0,0-3.1-.18,9.7,9.7,0,0,0-3.87,2.74,22.47,22.47,0,0,0-3.54,4.72,24,24,0,0,0-3,10.26c-.17,2.76.19,4.47.08,4.48a4.68,4.68,0,0,1-.26-1.18,19.49,19.49,0,0,1-.19-3.32A22.86,22.86,0,0,1,208,215.28a22.06,22.06,0,0,1,3.66-4.81,9.77,9.77,0,0,1,4.1-2.75,4.31,4.31,0,0,1,3.31.35,2.92,2.92,0,0,1,.71.58C219.94,208.82,220,208.91,220,208.92Z"/><path d="M291.45,125.21c-6.4,3.93-10.85,10.51-13.49,17.54s-3.64,14.56-4.43,22a430.48,430.48,0,0,0-2.07,59.43c24.24,3.07,48.66,6.14,73,4.48-4.22-27.83-6.9-55.63-3.52-83.57"/><path class="cls-15" d="M345.89,356.52l-17.64-35.69L335,294.74c.79,5.53,1.5,10.33,1.5,10.33l37.85-2a2.39,2.39,0,0,0,2.25-2.73l-7.4-52.21s-2.36-24.22-25.29-33.22h0l-.1,0c-.92-.36-1.88-.69-2.87-1-30.92-10.71-59.86-10.65-92.08.34,0,0-14.31,3.85-21.24,22.52s-14,46.12-14,46.12l32.13,11.34.22-5.42,7.1,27.16-15.58,39.56,54.35,1.34Z"/><path class="cls-15" d="M213.65,282.52,210,299.57c-3.1,14.65,7.75,29.69,22.63,31.37l79.1,8.12a31.43,31.43,0,0,0,34.85-28.49h0l-99.74-9.51.63-9.57Z"/><path class="cls-8" d="M312.57,299.92l6.14-1.14s14.57-15.93,17.3-16.16c2.25-.19,14.64-.06,18.95,0a1.5,1.5,0,0,1,1.48,1.51h0a1.51,1.51,0,0,1-1.44,1.5l-14.64.56-.07,1.18,14.66.2c1.49.11,2.45,2.47-2.33,2.9l-12.26.44v.76l12.43,1.74c.63.08,2.28.41,2.3,1,0,0,.75,1.56-2.79,2-1.22.15-12-.21-12-.21l.42,1,11.17,2.41a1.6,1.6,0,0,1,1.24,1.78h0a1.59,1.59,0,0,1-1.72,1.36l-11.94-1.11L327.75,311H312.08Z"/><path class="cls-16" d="M273.69,206.55s15.41,78.8,20.85,78.22,30.9-75.5,30.9-75.5S292.88,199.33,273.69,206.55Z"/><path class="cls-5" d="M341.89,282.82c-.14,0-.26-5.43-.26-12.13s.12-12.14.26-12.14.26,5.43.26,12.14S342,282.82,341.89,282.82Z"/><path class="cls-5" d="M247.29,283.33a21.05,21.05,0,0,1,.32-3.49c.26-2.15.67-5.12,1.14-8.39s.94-6.23,1.3-8.37a21.8,21.8,0,0,1,.69-3.44,23.71,23.71,0,0,1-.33,3.5c-.26,2.15-.67,5.11-1.14,8.38s-.94,6.23-1.3,8.37A24.77,24.77,0,0,1,247.29,283.33Z"/><path class="cls-5" d="M291.8,356.83a4.14,4.14,0,0,1-.05-.73c0-.53,0-1.23,0-2.09,0-1.82,0-4.45.06-7.7.12-6.5.48-15.47.92-25.38s.86-18.87,1.07-25.36c.1-3.21.18-5.82.23-7.69,0-.87.05-1.56.07-2.09a5.94,5.94,0,0,1,.05-.73,3.18,3.18,0,0,1,.05.73c0,.53,0,1.22,0,2.09,0,1.82,0,4.45-.07,7.7-.12,6.5-.47,15.47-.92,25.38s-.85,18.87-1.07,25.36c-.09,3.2-.17,5.81-.23,7.69,0,.87-.05,1.56-.06,2.09A3.47,3.47,0,0,1,291.8,356.83Z"/><path class="cls-5" d="M325.31,209.11s.05.34.17,1a14,14,0,0,0,.78,2.72,32.34,32.34,0,0,0,2,4,53.18,53.18,0,0,1,2.84,5.28,12.77,12.77,0,0,1,1.2,7.15,9.25,9.25,0,0,1-1.61,3.77,25.41,25.41,0,0,1-2.82,3.27,49.17,49.17,0,0,0-6,6.88,16.34,16.34,0,0,0-3.1,9.05,11.13,11.13,0,0,0,1.06,4.74,41.36,41.36,0,0,1,1.94,4.49,6.67,6.67,0,0,1,.32,2.43,5,5,0,0,1-.76,2.3,12.55,12.55,0,0,1-3.32,3.12l-12.53,9.23L297,284.74l-2.32,1.66-.61.42c-.14.09-.21.14-.22.13l.19-.17.58-.46,2.26-1.74,8.38-6.32,12.46-9.33a12.15,12.15,0,0,0,3.19-3,4.54,4.54,0,0,0,.68-2.07,6.41,6.41,0,0,0-.3-2.24,45.44,45.44,0,0,0-1.93-4.43,11.72,11.72,0,0,1-1.11-4.95,16.84,16.84,0,0,1,3.2-9.34,50.36,50.36,0,0,1,6.07-6.93c2.05-2,3.94-4.22,4.35-6.77a12.47,12.47,0,0,0-1.11-6.94c-.86-2-1.92-3.73-2.75-5.28a29.59,29.59,0,0,1-1.94-4.1,13.17,13.17,0,0,1-.7-2.77,6.82,6.82,0,0,1-.06-.74A.86.86,0,0,1,325.31,209.11Z"/><path class="cls-5" d="M294.48,284a.77.77,0,0,1-.25,0l-.7-.13a26.45,26.45,0,0,1-2.67-.73,27,27,0,0,1-8.8-5.05A26.71,26.71,0,0,1,273,256.58a31.42,31.42,0,0,1,.63-4.69,10.58,10.58,0,0,0,.13-4.68,3.77,3.77,0,0,0-1.21-1.88,6.28,6.28,0,0,0-2.05-1c-.74-.25-1.52-.46-2.26-.77a6.49,6.49,0,0,1-2-1.31,8,8,0,0,1-2.06-4.13,17.27,17.27,0,0,1-.24-4.4,60.19,60.19,0,0,1,3.28-14.7,60.83,60.83,0,0,1,4.2-9.25c.6-1,1.07-1.84,1.42-2.37l.4-.6c.09-.13.14-.2.15-.19a1.71,1.71,0,0,1-.11.22c-.09.17-.21.37-.35.62-.32.55-.77,1.36-1.33,2.42a66.41,66.41,0,0,0-4,9.27,61.34,61.34,0,0,0-3.15,14.61,16.66,16.66,0,0,0,.25,4.27,7.43,7.43,0,0,0,1.93,3.86,6.09,6.09,0,0,0,1.86,1.21c.71.29,1.47.49,2.23.75a6.91,6.91,0,0,1,2.22,1.11,4.31,4.31,0,0,1,1.38,2.15,11,11,0,0,1-.12,4.91,30,30,0,0,0-.63,4.62,26.75,26.75,0,0,0,1,8.71,25.86,25.86,0,0,0,7.85,12.44,27.4,27.4,0,0,0,8.62,5.14c1.12.4,2,.66,2.62.82l.69.18A.75.75,0,0,1,294.48,284Z"/><path class="cls-15" d="M336.09,300l-66.26-2.15.1,22,43.87,9.65,30.87,4.93c19.19,0,34.53-17.61,31.56-36.57l-.08,0Z"/><path class="cls-5" d="M354.33,299.6a4.67,4.67,0,0,1-.85.06l-2.47.07-9.06.17c-7.65.11-18.22.24-29.89.13s-22.26-.54-29.89-1.06c-3.82-.25-6.91-.5-9-.71l-2.45-.25a5.33,5.33,0,0,1-.85-.13,7,7,0,0,1,.86,0l2.46.16c2.13.15,5.22.34,9,.55,7.64.42,18.2.78,29.87.9s22.24,0,29.89,0H351l2.46,0A7,7,0,0,1,354.33,299.6Z"/><path class="cls-8" d="M269.27,299.92l-6.15-1.14s-14.56-15.93-17.29-16.16c-2.25-.19-14.64-.06-19,0a1.5,1.5,0,0,0-1.48,1.51h0a1.51,1.51,0,0,0,1.44,1.5l14.64.56.07,1.18-14.66.2c-1.49.11-2.45,2.47,2.33,2.9l12.26.44v.76L229,293.39c-.62.08-2.28.41-2.29,1,0,0-.75,1.56,2.79,2,1.21.15,12-.21,12-.21l-.42,1L230,299.6a1.59,1.59,0,0,0-1.24,1.78h0a1.58,1.58,0,0,0,1.72,1.36l11.94-1.11L254.09,311h15.67Z"/><path class="cls-5" d="M343.5,334.1a3.84,3.84,0,0,1-.75-.05l-2.15-.23c-1.86-.2-4.55-.54-7.87-1-6.63-.92-15.77-2.37-25.8-4.34s-19.05-4.08-25.54-5.73c-3.25-.83-5.87-1.53-7.67-2l-2.07-.6a3.55,3.55,0,0,1-.71-.24,3.72,3.72,0,0,1,.74.14l2.09.5,7.71,1.88C288,324,297,326,307,328s19.14,3.47,25.76,4.48l7.84,1.17,2.13.33A3.76,3.76,0,0,1,343.5,334.1Z"/><path class="cls-5" d="M270.52,320a18.37,18.37,0,0,1-.57-3.13c-.27-1.95-.55-4.65-.7-7.65s-.16-5.72-.09-7.68a16.29,16.29,0,0,1,.25-3.18,23.51,23.51,0,0,1,.12,3.18c0,2,.08,4.67.24,7.65s.37,5.69.55,7.64A20.83,20.83,0,0,1,270.52,320Z"/><path class="cls-5" d="M277.77,320.83a2.6,2.6,0,0,1-.29-.83c-.16-.55-.35-1.35-.56-2.34a57.11,57.11,0,0,1-1-7.85,57.77,57.77,0,0,1,.07-7.93c.09-1,.18-1.82.27-2.38a2.94,2.94,0,0,1,.19-.87,26.85,26.85,0,0,1-.09,3.27c-.08,2-.1,4.81.08,7.87s.56,5.83.88,7.83A29.14,29.14,0,0,1,277.77,320.83Z"/><path class="cls-5" d="M271.65,301.85c.05.06-.33.34-.32,1a1.2,1.2,0,0,0,.41.89,1,1,0,0,0,1.1,0,1,1,0,0,0,.54-1,1.2,1.2,0,0,0-.57-.8,2,2,0,0,0-1-.21c-.06,0,.4-.43,1.16-.12a1.51,1.51,0,0,1,.87,1,1.52,1.52,0,0,1-2.42,1.4,1.51,1.51,0,0,1-.46-1.28C271.07,302,271.65,301.79,271.65,301.85Z"/><path class="cls-5" d="M283.7,324.09a5.4,5.4,0,0,1-.69,0h-1.94a54.35,54.35,0,0,0-7.11.67,105.65,105.65,0,0,0-10.36,2.3c-3.86,1-8.09,2.26-12.61,3.25a54.24,54.24,0,0,1-13,1.4,32.21,32.21,0,0,1-10.46-2,23.26,23.26,0,0,1-6.26-3.52,17.89,17.89,0,0,1-1.46-1.31,4.57,4.57,0,0,1-.46-.5s.69.63,2,1.64a24.57,24.57,0,0,0,6.27,3.35A33,33,0,0,0,238,331.25a55,55,0,0,0,12.85-1.43c4.5-1,8.72-2.21,12.6-3.2a95.21,95.21,0,0,1,10.42-2.2,46.22,46.22,0,0,1,7.17-.51q1.28,0,1.95.09A3.2,3.2,0,0,1,283.7,324.09Z"/><path class="cls-8" d="M312.84,215.83c1.58-8.79,3.4-18,3.4-18s11.66.11,16.6-14.25c4.72-13.7,8.13-46.65,8.13-46.65h0a43.11,43.11,0,0,0-49.14,2.5h0L280.21,211c-1.35,8.31,4.72,16.09,13.63,17.47h0C302.84,229.86,311.34,224.2,312.84,215.83Z"/><path class="cls-5" d="M332.31,161.6a1.93,1.93,0,0,1-2.17,1.59,1.84,1.84,0,0,1-1.65-2.05,1.92,1.92,0,0,1,2.16-1.59A1.83,1.83,0,0,1,332.31,161.6Z"/><path class="cls-5" d="M335.75,160c-.28.2-1.53-1.11-3.57-1.46s-3.71.4-3.89.11c-.09-.13.23-.53,1-.89a5.26,5.26,0,0,1,3.17-.4,5.09,5.09,0,0,1,2.78,1.47C335.75,159.44,335.89,159.93,335.75,160Z"/><path class="cls-5" d="M311.37,158.28a1.93,1.93,0,0,1-2.17,1.59,1.84,1.84,0,0,1-1.65-2.05,1.92,1.92,0,0,1,2.16-1.59A1.84,1.84,0,0,1,311.37,158.28Z"/><path class="cls-5" d="M314.34,157c-.28.21-1.53-1.11-3.57-1.46s-3.71.4-3.89.11c-.09-.13.23-.53,1-.89a5.26,5.26,0,0,1,3.17-.4,5,5,0,0,1,2.78,1.48C314.34,156.44,314.48,156.92,314.34,157Z"/><path class="cls-5" d="M319.08,173.44a13.93,13.93,0,0,1,3.42,0c.53,0,1,0,1.19-.31a2.67,2.67,0,0,0-.08-1.61c-.26-1.35-.54-2.76-.84-4.24-1.14-6-1.87-10.93-1.63-11s1.37,4.81,2.51,10.83c.27,1.48.53,2.89.77,4.25a3,3,0,0,1-.09,2.09,1.32,1.32,0,0,1-1,.61,3.7,3.7,0,0,1-.9,0A13.64,13.64,0,0,1,319.08,173.44Z"/><path class="cls-9" d="M316.24,197.82a38.13,38.13,0,0,1-18.86-8.77s3,11,18,12.22Z"/><path class="cls-9" d="M317.35,178.2a3.7,3.7,0,0,0-3.05-1.94,3.45,3.45,0,0,0-2.54.83,2.18,2.18,0,0,0-.59,2.4,2.51,2.51,0,0,0,2.56,1.15,7.75,7.75,0,0,0,2.88-1.1,2.15,2.15,0,0,0,.69-.5.7.7,0,0,0,.13-.76"/><path class="cls-5" d="M312.83,173.79c.33,0-.05,2.26,1.57,4.16s4,2.08,4,2.39c0,.14-.6.34-1.6.19a5.57,5.57,0,0,1-3.35-1.87,4.83,4.83,0,0,1-1.17-3.46C312.34,174.26,312.68,173.75,312.83,173.79Z"/><path d="M301.83,128.86c3.94,8.71,16.74,19.31,26.62,23.07-.89-1.8-6.45-6.85-7.35-8.65,4,4.34,9.75,10.22,15.84,11.69a3.78,3.78,0,0,0,2.18.06,2.87,2.87,0,0,0,1.51-2.11,62.39,62.39,0,0,0,2.09-13.44,15.07,15.07,0,0,0-3.53-10.54c-3.37-3.78-8.87-5.59-14.16-6.72-4.43-1-9.08-1.55-13.45-.71s-8.46,3.37-9.78,7.08"/><path d="M278.26,161.67a87.83,87.83,0,0,1,.38-10.14c1-7.69,3.4-35.65,29.21-28.46l-2.75,7.17s2,18-11.26,27.66c0,0,.05,18-9.12,24.44,0,0-6.4-12.18-6.46-20.67"/><path class="cls-8" d="M294.39,156.68a8.82,8.82,0,0,0-4.81-.53,6.22,6.22,0,0,0-4,2.54,6.54,6.54,0,0,0-.87,4.72,11.11,11.11,0,0,0,2,4.45,7.54,7.54,0,0,0,2.53,2.4,3.53,3.53,0,0,0,3.38.07"/><path class="cls-9" d="M291.83,166.1c.17.1-.69.93-2.06.29a3.12,3.12,0,0,1-1.51-1.88,7.07,7.07,0,0,1-.33-2.76,4.15,4.15,0,0,1,1.16-2.66,2.79,2.79,0,0,1,2.29-.86c1.49.23,1.77,1.34,1.6,1.34s-.62-.54-1.64-.47-2.1,1.13-2.18,2.76.25,3.25,1,3.78S291.75,166,291.83,166.1Z"/><path d="M291.8,170.3c-4,23.91-.74,48.36,0,72.59.07,2.32.09,4.76-1,6.83-1.6,3.13-5.31,4.65-8.82,4.87s-7-.61-10.49-.89l-1.14-7q-1.74,4-3.5,8,2.31-25.51,5.06-51"/></g></g></svg>