<svg id="Layer_1" data-name="Layer 1" xmlns="http://www.w3.org/2000/svg" xmlns:xlink="http://www.w3.org/1999/xlink" viewBox="0 0 1410 441"><defs><style>.cls-1{fill:url(#linear-gradient);}.cls-11,.cls-2{fill:#09343d;}.cls-2{opacity:0.2;}.cls-3{fill:none;}.cls-4{font-size:96px;font-family:ArialMT, Arial;}.cls-12,.cls-4{fill:#fff;}.cls-5{fill:#ccc;}.cls-6{fill:#b5b4ad;}.cls-7{fill:#a0a095;}.cls-8{fill:#f9b29b;}.cls-9{fill:#4e4e4e;}.cls-10{fill:#603a17;}.cls-13{fill:#f79f8f;}.cls-14{fill:#f9ab88;}.cls-15{fill:#f79c84;}.cls-16{fill:#f58d87;}.cls-17{fill:#b02d42;}.cls-18{fill:#cb3645;}.cls-19{fill:#595a5c;}.cls-20{fill:#00a4b2;}.cls-21{fill:#474645;}.cls-22{fill:#045aa5;}.cls-23{fill:#2baae2;}.cls-24{fill:#e6e6e5;}.cls-25{fill:#b4b5b7;}.cls-26{fill:#c8b299;}.cls-27{fill:#dfdadd;}</style><linearGradient id="linear-gradient" y1="220.5" x2="1422.82" y2="220.5" gradientUnits="userSpaceOnUse"><stop offset="0" stop-color="#d14827"/><stop offset="1" stop-color="#b7603d"/></linearGradient></defs><rect class="cls-1" y="-1.4" width="1422.8" height="443.89"/><path class="cls-2" d="M868.9,135.2c-167.6-2.8-269.9,34-401.6,140.7s-249.9,89.9-348.1,59.4c-52.6-16.4-93-13.1-119.2-6.6V439.9H1412V10.3C1167.6,209.2,1028.5,137.9,868.9,135.2Z"/><rect class="cls-3" x="538.1" y="-47.8" width="870.3" height="488.22"/><text class="cls-4" transform="translate(174.5 257.1)">About Us</text><rect class="cls-5" x="969.4" y="138.3" width="120.6" height="62.46" rx="8.1"/><path class="cls-5" d="M1078.6,282.9H983.3c-5.5,0-6.2,7.8-6.2,7.8h107.7S1084.1,282.9,1078.6,282.9Z"/><rect class="cls-6" x="974" y="290.7" width="114" height="8.85" rx="0.7"/><rect class="cls-7" x="1024.4" y="299.6" width="13.1" height="80.92"/><polygon class="cls-7" points="1024.4 380.5 977.1 404.1 977.1 412.3 987.4 412.3 987.4 408.3 1031 386.9 1031 380.5 1024.4 380.5"/><polygon class="cls-7" points="1037.5 380.5 1084.8 404.1 1084.8 412.3 1074.6 412.3 1074.6 408.3 1031 386.9 1031 380.5 1037.5 380.5"/><path class="cls-8" d="M926.1,152.3s-4.1-19.3-5.8-20.1-1.2,10-1.2,10-17.2-10.5-19.3-10.1-2,6-1.8,10.1,12.6,12.8,15.5,14,6,2.9,6,2.9Z"/><path d="M1002.1,86.2s-7.3-13.6-3.2-18.9c0,0-.8-15.1,14.8-18.6s40.1-.4,51.5-7.1c0,0,.6,23-3.8,28.8,0,0,2.6,9-3,15.4Z"/><path d="M1046.7,382.7c.2-2,3.4-6,3.4-6a61.4,61.4,0,0,0,13.5,1.5c3.1,0,6.6,8.8,18.7,17.2,8.6,5.9,15.4,11.5,12,15.8s-20.5,1.5-25.3-.8c-12.8-6.3-16.8-5.1-16.8-5.1a9.2,9.2,0,0,1-4.8-.7c-2.6-1.1-3.2-2.3-3.9-5.9S1046.5,384.7,1046.7,382.7Z"/><path class="cls-9" d="M1070.8,366.3s-7.5,10.1-7.2,11.9,4.9,6.7,1.2,9.9-12-3-14.3-7.3,5.8-27.8,5.8-27.8l16.7,5.4Z"/><path class="cls-8" d="M1053.2,101.7s6.9-1.9,8.1-10.7-6.6-3.8-6.6-3.8Z"/><path class="cls-8" d="M1007.2,102.2s-7-1.9-8.1-10.8,6.5-3.8,6.5-3.8Z"/><path class="cls-10" d="M1061,251.8s42.8-1.2,50.9,9.5c5.3,6.9,2.9,20.7-1.9,29.9-6.2,11.9-39.5,90.9-39.5,90.9l-27-6,31.3-88.2s-33,2.5-43.6-3.1V230.7Z"/><path d="M1015.6,382.7c-.2-2-3.4-6-3.4-6a61.4,61.4,0,0,1-13.5,1.5c-3,0-6.6,8.8-18.6,17.2-8.7,5.9-15.4,11.5-12,15.8s20.5,1.5,25.2-.8c12.9-6.3,16.9-5.1,16.9-5.1a8.9,8.9,0,0,0,4.7-.7c2.6-1.1,3.2-2.3,4-5.9S1015.8,384.7,1015.6,382.7Z"/><path class="cls-9" d="M991.6,366.3s7.5,10.1,7.1,11.9-4.9,6.7-1.2,9.9,12.1-3,14.3-7.3-5.7-27.8-5.7-27.8l-16.8,5.4Z"/><path class="cls-10" d="M1001.4,251.8s-42.9-1.2-51,9.5c-5.2,6.9-2.9,20.7,1.9,29.9,6.2,11.9,39.6,90.9,39.6,90.9l26.9-6-31.3-88.2s33,2.5,43.7-3.1V230.7Z"/><path class="cls-11" d="M989.8,251.9l-1.9-68.3s-7.9,30.2-17.5,30.2-56.5-54.6-56.5-54.6l13.3-14.3s31.4,38.3,36.8,38.9,14.3-38.9,24.9-43.5,25.4-12.5,41.4-13,38.8,13.3,43.6,16,32.1,33,37.5,34.8,32.7,3,32.7,3v14.1s-29.4,5.2-39.8,3.2-31.3-16.8-31.3-16.8l.6,70.3S1033.3,258.6,989.8,251.9Z"/><path class="cls-8" d="M1029.9,113.9c.1,0,.1.2.1.7s0-.7.1-.7,12.2,0,12.2,0-1.5,17.2-1.5,17.2-4,9.5-10.8,12.4c-6.8-2.9-10.8-12.4-10.8-12.4s-1.5-16-1.5-17.2S1029.7,114.1,1029.9,113.9Z"/><path class="cls-8" d="M1030,67.3s27.9.2,27,13.9c0,0-3.6,20.8-4.4,22.9s-6.3,17-22.6,17-21.7-14.8-22.5-17-4.4-22.9-4.4-22.9C1002.2,67.5,1030,67.3,1030,67.3Z"/><path d="M1041.5,112.4c-.2-2.4-11.4-3.9-11.4-3.9v-2.8a49.6,49.6,0,0,1,16.2,2.8L1057,81.2s-1,21.2-5.7,30.3-21.3,12.1-21.3,12.1v-5C1037.1,118.6,1041.8,114.8,1041.5,112.4Z"/><path d="M1013.8,108.5a48.8,48.8,0,0,1,16.2-2.8v2.8s-11.3,1.5-11.5,3.9,4.4,6.2,11.5,6.2v5s-16.5-3-21.2-12.1-5.8-30.3-5.8-30.3Z"/><path class="cls-9" d="M1018.5,123.6s-4.9,6.6-5.9,6.9,8.9,19.4,9.1,19.6.7-9.7,1.5-9.5,6.8,2.9,6.8,2.9S1018.5,134.9,1018.5,123.6Z"/><path class="cls-9" d="M1041.5,123.6s4.9,6.6,5.9,6.9-8.9,19.4-9.1,19.6-.7-9.7-1.5-9.5-6.8,2.9-6.8,2.9S1041.5,134.9,1041.5,123.6Z"/><polygon points="1002.1 86.2 1007.2 76.4 1052.6 72.8 1057 81.2 1059.8 79.5 1053.2 61.3 1008.1 58.8 1002.1 72.5 1002.1 86.2"/><polygon class="cls-12" points="1131.9 198.4 1149.5 136.9 1183 136.9 1165 196.7 1131.9 198.4"/><path class="cls-8" d="M1169.7,181.4s-7.8-5.1-8.2-3.2,1.4,3.2,1.4,3.2-2.4,1-1.5,3.3-1,7.2,1.9,8.9,6,.9,7.7-3.5S1172.8,183.3,1169.7,181.4Z"/><path class="cls-7" d="M1301.4,288.2s13.7-34.7,16-57.6c2-19.8,7.9-72.9,9.4-87.2a3.3,3.3,0,0,0-3.2-3.6h0a3.3,3.3,0,0,0-3.2,3c-1.3,14.5-7.3,78.4-8.6,86.5-5.5,35.3-18,58.9-18,58.9Z"/><path class="cls-5" d="M1198.7,280.4h95.2c5.6,0,6.2,7.8,6.2,7.8H1192.4S1193.1,280.4,1198.7,280.4Z"/><rect class="cls-6" x="1189.3" y="288.2" width="114" height="8.85" rx="0.7" transform="translate(2492.6 585.3) rotate(180)"/><rect class="cls-7" x="1239.7" y="297.1" width="13.1" height="80.92" transform="translate(2492.6 675.1) rotate(180)"/><polygon class="cls-7" points="1252.8 378 1300.1 401.6 1300.1 409.8 1289.9 409.8 1289.9 405.8 1246.3 384.4 1246.3 378 1252.8 378"/><polygon class="cls-7" points="1239.7 378 1192.4 401.6 1192.4 409.8 1202.7 409.8 1202.7 405.8 1246.3 384.4 1246.3 378 1239.7 378"/><path class="cls-5" d="M1320.4,142.8s-8.6-2.6-10.1,6.2-5.1,52.4-5.7,58,8.7,9.1,8.7,9.1Z"/><path class="cls-13" d="M1165.6,184.3s-4.3.6-6.4-.3-13.9-5.2-20.2-1.7-19.8,11.7-20.5,13.9,6,3.3,11.6,2.8,8.9-2.9,14.5-1.6,8.2,3.5,11.3,3,5.7-3.9,11.6-2.7S1172,184.6,1165.6,184.3Z"/><path class="cls-14" d="M1134,374.2s27.3-96.9,32.2-109.3,35.3,2.6,26.8,14.6a34.6,34.6,0,0,0-3.1,6.6c.4,6.9-3.4,13.4-4.9,19.1-2.3,9.3-18.5,34.5-27.6,51.8-6.2,13.6-8.1,20.9-8.1,20.9Z"/><path class="cls-14" d="M1149.3,377.9c-.4,9.3,4.4,10.6,0,16.7l-2,15.5h-4.1V396.7s-14.7,11.6-21.6,13.4-20.1,1.3-24.5,0,24.9-12.7,36.9-35.9Z"/><path d="M1149.3,394.6l-2,15.5h-4.1V396.7s-14.7,11.6-21.6,13.4-20.1,1.3-24.5,0c-1.8-.5,2.1-2.7,8.1-6.8,5.2,4,13.2,2.5,13.2,2.5,15.1-3.4,23.6-16.1,23.6-16.1,1.2-12.7,7.3-11.8,7.3-11.8C1148.9,387.2,1153.7,388.5,1149.3,394.6Z"/><path class="cls-8" d="M1162.8,374.6s7.1-99.5,12.1-111.9,35.2,2.6,26.8,14.7a32.6,32.6,0,0,0-3.2,6.5c.4,6.9.4,15.3-1,21-2.4,9.3-11.7,36.7-15.9,52.7-2.2,12.2-3.6,20.7-3.6,20.7Z"/><path class="cls-8" d="M1178,378.3c-.4,9.3,4.5,10.6,0,16.8l-1.9,15.5H1172V397.1s-14.7,11.6-21.6,13.5-20.1,1.2-24.5,0,24.9-12.7,36.9-36Z"/><path d="M1178,395.1l-1.9,15.5H1172V397.1s-14.7,11.6-21.6,13.5-20.1,1.2-24.5,0c-1.8-.5,2.1-2.8,8.1-6.9,5.2,4.1,13.2,2.5,13.2,2.5,15.1-3.4,23.6-16.1,23.6-16.1,1.2-12.7,7.2-11.8,7.2-11.8C1177.6,387.6,1182.5,388.9,1178,395.1Z"/><path class="cls-11" d="M1298.1,257.4s-.1,22.2-23.5,22.2-60,3.3-72.3,3.4c0,0-16-17.2-36.4-18.5,0,0,2.9-15.5,17.2-21.2s67.2-9.9,67.2-9.9Z"/><path d="M1235.4,52.8c26.4-12.4,48.5.2,56.6,19.9s-4,46.8,6.6,58.4,21.3,28.9,10.4,52.1-57,16.7-70.2-9.9-5.1-38.7-13.3-56.1S1211.1,64.3,1235.4,52.8Z"/><path class="cls-8" d="M1272.1,106.8l1,32.6s-14.6,13.5-20,3.6l-2.8-35.7Z"/><path class="cls-15" d="M1272.1,107.2l.2,5.8a37.5,37.5,0,0,1-20.4,14.5l-1.6-20.2,21-.5Z"/><path class="cls-8" d="M1232.7,70.7s.7,12.5.1,19,.5,21.1,3.3,27.8,23.9,1.7,30.5-1.7,8.7-14.3,8.7-14.3,6.6.4,8.3-5.8-4.3-8.4-7.9-3.6l3.6-23.8Z"/><path class="cls-16" d="M1236.8,87.9s-4.6,7.5-6.8,9.2c0,0,3.5,2.7,6,2.8Z"/><path d="M1279.3,87.9s-22.9-.9-33.8-17.1c0,0-7.1,13.6-15.5,17.1l-2.1-21.2,51.4,1.6Z"/><path class="cls-17" d="M1261,139.1c-5.6,1.8-28,39.2-32.2,42.4s-62.4-3.7-62.4-3.7-9,9.2-2.4,20.7c0,0,59.7,6.8,67.9,7,10.7.4,44.4-45.6,47.7-51.5S1279.5,132.8,1261,139.1Z"/><path class="cls-18" d="M1236.8,165.8c5.5-6.5,9.6-23.2,9.6-23.2h0c.3-4.2.5-6.8.6-7.3.9-2.9,11.8-3.7,16.8-4.1s9.7,3.2,11.6-1.7c0,0,27.3,16.6,15.6,69-3.4,15.1,13.8,50.2,7.1,74.2,0,0-56.9-36.2-56.6-41,.1-2.3,1.2-24,2.4-46.2C1235.1,178.2,1236.8,165.8,1236.8,165.8Z"/><path class="cls-17" d="M1250.3,151.3l-8,29.1-4-2.9a24.8,24.8,0,0,1-1.5-6.6Z"/><path class="cls-17" d="M1243.9,184.7l28.5-20.4s-18.6,37.7-24.3,43.5a14,14,0,0,1-5.6,3.6C1243,203.5,1243.4,194.2,1243.9,184.7Z"/><path class="cls-8" d="M1173.3,188.2s-4.3.6-6.4-.3-13.9-5.2-20.2-1.7-19.8,11.7-20.5,13.9,6,3.3,11.7,2.8,8.8-2.9,14.4-1.6,8.2,3.5,11.3,3,5.7-3.9,11.6-2.7S1179.7,188.5,1173.3,188.2Z"/><polygon class="cls-17" points="1276.9 123.9 1247.7 129.9 1246.4 142.6 1280.5 135.3 1276.9 123.9"/><path class="cls-18" d="M1259.4,138.9c-5.4,2.4-24.4,41.6-28.2,45.1s-62.5,1.8-62.5,1.8-8.1,9.9-.6,20.8c0,0,60.1,1.6,68.4,1.1,10.6-.6,40.1-49.4,42.8-55.5S1277.2,131.1,1259.4,138.9Z"/><path class="cls-13" d="M899.6,198.4H917c5.5,0,8.1-4.2,4.7-6.3s-10.3-1-10.3-1,6.7-3.7,8.7-3.7,5.8,8.8,7.4,9.3,2.9-.2,2.4-2.6c0,0,2.8,2.9,4.6,1.3s-2.5-7-5.4-12.2c-4-7.4-7.9-9.6-11.3-8.3s-18.2,6.2-18.2,6.2Z"/><path class="cls-19" d="M903.2,163.7l-1.6,1.5,18.5,26.3s4,.8,2.7,4.3l3.9,2.3-1.6-4.3Z"/><path class="cls-20" d="M799.2,135.5c5.9,2,29.3,41.5,33.6,44.9s65.2-3.9,65.2-3.9,9.4,9.6,2.6,21.8c0,0-62.4,7.2-71,7.5-11.1.3-46.4-48.3-49.8-54.5S779.9,128.9,799.2,135.5Z"/><path d="M880.6,384.1v26.3h9.5v-3s8.3,4.9,30.9,4.9,11.7-7.5,3.4-11.7c-11.6-5.8-26.6-19.3-26.6-19.3Z"/><path d="M920.6,385.8v26.3h9.5V409s8.3,4.9,30.8,4.9,11.8-7.4,3.5-11.6c-11.6-5.9-26.6-19.4-26.6-19.4Z"/><path class="cls-21" d="M849,284.1c7.4,0,29.2,108.3,29.2,108.3l26.9-5.2s-13.3-93-21.4-112.3S849,284.1,849,284.1Z"/><path class="cls-9" d="M893.9,257.6c-5.9-10.3-17-15.9-37.5-16.5,0,0-29.5-2.2-36.1-4s-10.6-15.3-10.6-22.4l-51,16.4s-2.2,19.6-3.1,30.3,7.2,22.7,19.6,22.7h81.2c10.3,0,61.8,108.3,61.8,108.3l24.2-8.2S899.8,267.9,893.9,257.6Z"/><path class="cls-8" d="M786.6,104.5,785.5,139s15.3,14.3,20.9,3.9l2.9-37.8Z"/><path d="M776.1,58.8s8.8-13,30-9.9,28.4,1.2,30.9-.3.2,24.7-11.3,30.5-39.4,28.4-39.4,28.4-6.1.3-11.3-12.1S763.6,60.7,776.1,58.8Z"/><path class="cls-8" d="M826.8,71.3s.2,8.3.8,15.1-.6,22.4-3.4,29.5-25.1,1.8-31.9-1.8S783.2,99,783.2,99s-6.9.4-8.7-6.2,4.6-8.9,8.3-3.7l-.9-20.2S812.2,77.3,826.8,71.3Z"/><path d="M827,102.7s-8.4-2.4-20.6,8.7c0,0-13.8-3.1-16.7-8.5-1.9-3.4-4.3-10-5.7-14.2-.9-2.5-1.4-4.1-1.4-4.1l.6,14.4s1.4,13.5,12.2,16.5,18.3,5.5,26,3.2a6,6,0,0,0,3.8-5.8,7.3,7.3,0,0,1-7.5,3.4c-3.7-.5-4-2.1-4.9-2.7s5.8-8.2,13.6-6.5Z"/><path class="cls-16" d="M823.5,84.6s4.7,7.9,7,9.7c0,0-3.6,2.9-6.3,3Z"/><path class="cls-20" d="M784.2,125.4s-33.4,25.3-28.7,149.5c0,0,64.4-36.4,64.1-41.4s-4.9-98.9-5.8-102-12.3-3.9-17.5-4.3S786.1,130.5,784.2,125.4Z"/><path class="cls-22" d="M817,183.8l-29.7-21.7s19.4,40,25.4,46.1a15.3,15.3,0,0,0,5.8,3.8C818.1,203.7,817.5,193.8,817,183.8Z"/><polygon class="cls-23" points="782.6 119.4 813.1 125.8 814.5 139.2 778.9 131.5 782.6 119.4"/><path class="cls-8" d="M889.5,190.5s4.2.8,6.3,0,14.2-4.5,20.4-.8,19.2,12.6,19.8,14.8-6.1,3.1-11.8,2.3-8.7-3.2-14.3-2.3-8.4,3.2-11.5,2.6-5.5-4.2-11.4-3.3S883.1,190.5,889.5,190.5Z"/><path class="cls-20" d="M800.9,135.3c5.7,2.5,25.4,44,29.4,47.8s65.3,1.9,65.3,1.9,8.5,10.4.6,22c0,0-62.8,1.6-71.4,1.1-11.1-.7-41.8-52.2-44.7-58.8S782.3,127,800.9,135.3Z"/><path class="cls-7" d="M749.1,289.4s-13.7-34.7-16-57.6c-2-19.8-7.9-73-9.4-87.2a3.2,3.2,0,0,1,3.2-3.6h0a3.3,3.3,0,0,1,3.2,2.9c1.3,14.5,7.3,78.4,8.6,86.5,5.5,35.4,18,59,18,59Z"/><path class="cls-5" d="M851.8,281.6H756.6c-5.6,0-6.2,7.8-6.2,7.8H858.1S857.4,281.6,851.8,281.6Z"/><rect class="cls-6" x="747.2" y="289.4" width="114" height="8.85" rx="0.7"/><rect class="cls-7" x="797.7" y="298.3" width="13.1" height="80.92"/><polygon class="cls-7" points="797.7 379.2 750.4 402.8 750.4 411 760.6 411 760.6 407 804.2 385.6 804.2 379.2 797.7 379.2"/><polygon class="cls-7" points="810.8 379.2 858.1 402.8 858.1 411 847.8 411 847.8 407 804.2 385.6 804.2 379.2 810.8 379.2"/><path class="cls-5" d="M730.1,143.9s8.6-2.6,10.1,6.3,5.1,52.4,5.7,58-8.7,9.1-8.7,9.1Z"/><polygon class="cls-24" points="873.6 235.2 847.2 413.9 855.6 413.9 896.6 235.2 873.6 235.2"/><polygon class="cls-25" points="896.6 235.2 906.2 235.2 859.4 413.9 855.6 413.9 896.6 235.2"/><polygon class="cls-24" points="1174.1 235.2 1200.4 413.9 1192 413.9 1151 235.2 1174.1 235.2"/><polygon class="cls-25" points="1151 235.2 1141.5 235.2 1188.2 413.9 1192 413.9 1151 235.2"/><rect class="cls-26" x="825" y="208.6" width="397.6" height="18.64"/><rect class="cls-27" x="834" y="227.2" width="380.1" height="8.02"/><polygon class="cls-12" points="950.7 208.6 947.4 177.4 970.7 177.4 966.7 208.6 950.7 208.6"/><polygon class="cls-18" points="948.2 184.8 969.7 184.8 967.6 202 950 202 948.2 184.8"/><path class="cls-6" d="M958.3,174.6a7.6,7.6,0,0,1-3-2.4,2.2,2.2,0,0,1,.1-2.2,4.9,4.9,0,0,1,1.5-1.4c2.4-1.3,5.1-1.4,7.3-2.2a4.2,4.2,0,0,0,1.5-.8c.3-.3.3-.2-.1-.7a10.7,10.7,0,0,0-3-1.7l-7.2-2.4a39.9,39.9,0,0,1,7.5,1.5,11.8,11.8,0,0,1,3.6,1.7,2,2,0,0,1,.7,1.2,1.8,1.8,0,0,1-.6,1.4,7,7,0,0,1-1.9,1c-2.6.9-5.1.9-7.3,1.9s-2,1.3-1.5,2.4A6.8,6.8,0,0,0,958.3,174.6Z"/><path class="cls-6" d="M954.2,171.5a3.7,3.7,0,0,1-1.2-1.3,2,2,0,0,1,.1-2,6,6,0,0,1,3.1-1.9,33.7,33.7,0,0,0,3.4-.9l1.4-.6c.1,0,.1-.1.1.1a.1.1,0,0,0,0,.2h0l-.6-.3c-2-.8-4.4-1.4-6.5-2.4a6.9,6.9,0,0,1-3.1-2,1.4,1.4,0,0,1-.1-1.1,2.4,2.4,0,0,1,.6-.8l1.6-.8-1.4,1.1c-.4.4-.5.9-.2,1.2a8.9,8.9,0,0,0,2.9,1.5c2.2.7,4.5,1.2,6.8,2.1l.9.6a.5.5,0,0,1,.2.4.7.7,0,0,1,.1.6c-.2.5-.4.5-.6.7a6.7,6.7,0,0,1-1.8.7l-3.4.7a5.2,5.2,0,0,0-2.9,1.3C952.9,169.4,953.5,170.7,954.2,171.5Z"/><rect class="cls-9" x="1106.2" y="202.5" width="7.1" height="1.81" rx="0.3"/><rect class="cls-9" x="1117.5" y="202.5" width="7.1" height="1.81" rx="0.3"/><rect class="cls-9" x="1125.5" y="202.5" width="7.1" height="1.81" rx="0.3"/><rect class="cls-9" x="1133.4" y="202.5" width="7.1" height="1.81" rx="0.3"/><rect class="cls-9" x="1141.3" y="202.5" width="7.1" height="1.81" rx="0.3"/><rect class="cls-9" x="1149.2" y="202.5" width="7.1" height="1.81" rx="0.3"/><rect class="cls-9" x="1157.1" y="202.5" width="7.1" height="1.81" rx="0.3"/><rect class="cls-9" x="1165" y="202.5" width="7.1" height="1.81" rx="0.3"/><path class="cls-6" d="M1101.1,208.8v-5.4h74.1c2.9,0,2.6,5.4,2.6,5.4Z"/><rect class="cls-9" x="1103.5" y="205" width="4.1" height="2.22"/><rect class="cls-9" x="1149.6" y="205" width="6.5" height="2.22"/><rect class="cls-9" x="1157.5" y="205" width="6.5" height="2.22"/><rect class="cls-9" x="1133.9" y="205" width="13.9" height="1.11" rx="0.2"/><path class="cls-9" d="M1168.7,205.9a.9.9,0,0,1-.9,1,.9.9,0,0,1-1-1,.9.9,0,0,1,1-.9A.9.9,0,0,1,1168.7,205.9Z"/><path class="cls-9" d="M1171.9,205.9a.9.9,0,0,1-.9,1,1,1,0,0,1-1-1,1,1,0,0,1,1-.9A.9.9,0,0,1,1171.9,205.9Z"/><path class="cls-9" d="M1175.1,205.9a.9.9,0,0,1-.9,1,1,1,0,0,1-1-1,1,1,0,0,1,1-.9A.9.9,0,0,1,1175.1,205.9Z"/><path class="cls-6" d="M1101.1,203.4l-12.5-74.2a2.7,2.7,0,0,0-2.1,3.1c.3,2.6,11.4,69.7,11.4,69.7s-.2,6.8,3.2,6.8Z"/></svg>