<svg xmlns="http://www.w3.org/2000/svg" viewBox="0 0 133.03 158.87"><defs><style>.cls-1{fill:#b52f09;}</style></defs><g id="Layer_2" data-name="Layer 2"><g id="Layer_2-2" data-name="Layer 2"><path class="cls-1" d="M85.67,60a98.87,98.87,0,0,1,26,8A35.13,35.13,0,0,0,120,59.5a34.86,34.86,0,0,0,5.49-20.16,42.7,42.7,0,0,0-3.75-18.73,30.62,30.62,0,0,0-10.3-12A44.45,44.45,0,0,0,95.54,2,99.42,99.42,0,0,0,74.75,0H39.87V27.15H67.63a49.48,49.48,0,0,1,9,.79,22.11,22.11,0,0,1,7.66,2.77,14.64,14.64,0,0,1,5.34,5.62,18.39,18.39,0,0,1,2,9.12Q91.67,55.4,85.67,60Z"/><path class="cls-1" d="M70.31,64.3H34.94V27.15h0V0H0V158.87H77a82.1,82.1,0,0,0,20.81-2.68,55.72,55.72,0,0,0,18-8.19,41,41,0,0,0,12.57-14.35A43.82,43.82,0,0,0,133,112.8a45.88,45.88,0,0,0-7.23-25.48C116.86,73.46,97.41,64.3,70.31,64.3ZM96,121a16.94,16.94,0,0,1-5.62,6.35,24,24,0,0,1-8.24,3.34,46.66,46.66,0,0,1-9.78,1H34.9V88.05H73.06q11.35,0,18.25,5.23t6.89,17.46A21.76,21.76,0,0,1,96,121Z"/></g></g></svg>