<svg xmlns="http://www.w3.org/2000/svg" viewBox="0 0 210.97 237"><defs><style>.cls-1{fill:#b52f09;}</style></defs><g id="Layer_2" data-name="Layer 2"><g id="Layer_2-2" data-name="Layer 2"><path class="cls-1" d="M50,0c5.08,1.48,10.4,1.74,15.4,3.77,20.88,8.47,33.49,30.77,29.33,52.32C90.25,79.34,70.84,95.58,47.56,95.57A47.47,47.47,0,0,1,1,56.73c-.18-1,0-2-.95-2.73V42a7.47,7.47,0,0,0,.8-1.73c2.94-17.21,12.75-29,28.43-36.2C34.58,1.6,40.41,1.36,46,0ZM7,47.65a41,41,0,0,0,40.46,41c22.39.25,41.1-18.31,41.14-40.84,0-22.18-18.44-40.67-40.73-40.72A40.94,40.94,0,0,0,7,47.65Z"/><path class="cls-1" d="M149,237q-14.67-14.92-29.35-29.82c-1.45-1.47-2.83-2.46-.86-4.82,1.67-2,2.5-1.86,4.15-.19q10,10.14,20.17,20.08c4.18,4.09,7.06,4.12,11,0,16.06-16.69,33.41-32,50-48.12,2-1.92,3.21-2.73,5.57-.3s.82,3.61-.79,5.16q-27.78,26.94-55.52,53.94c-1.25,1.22-3.08,2-3.42,4.07Z"/><path class="cls-1" d="M148.36,220.16c-.74-.6-1.41-1.07-2-1.64-9.42-9.41-18.75-18.9-28.28-28.19-2.72-2.65-.32-3.67,1.07-5q23.8-23.13,47.68-46.18c.48-.46,1-.94,1.45-1.37,3.64-3.07,6.63-9.35,10.53-8.94s7,6,10.46,9.36c6.38,6.32,12.64,12.77,19.12,19,2.05,2,2.07,3.08,0,5.06q-29.13,28-58.09,56.22C149.74,219,149.1,219.52,148.36,220.16Zm46.3-64.53,1.64-.83c-2.43-2-4.93-3.87-7.27-5.94-3-2.66-5.13-7.32-10.47-4.05a2.73,2.73,0,0,1-2.37-.39c-2.54-1.87-4.09-.41-5.86,1.3-11.27,10.86-22.14,22.22-34.13,32.23-5.7,4.75-3.72,10.65-3.37,14.92.32,3.94,6.53,7.42,10.17,11.07,2,2,3.56-.88,5.41-.64,1,.12,2.13,0,2.88.5,2.38,1.56,3.76.39,5.46-1.26,10.27-10,20.14-20.47,31.19-29.52C194,168.08,194.47,162.28,194.66,155.63Z"/><path class="cls-1" d="M102.84,188.21c1.23,2.81,1.31,5.61,3.15,7.7a1.79,1.79,0,0,1-.41,3c-5.7,3-9.52,8.14-14,12.45-3.59,3.45-6.4,3.29-9.73-.14s-7.08-6.57-10.45-10c-1.87-1.92-3.15-2.22-5.22-.19-3.8,3.73-7.94,7.11-11.88,10.68-2.72,2.46-5.32,2.38-7.93-.1-4-3.78-8.08-7.45-11.9-11.39-2-2-3.63-2.5-5.93-.69A21.63,21.63,0,0,1,24.24,202c-3.39,1.57-6.33,0-7.08-3.58a7.52,7.52,0,0,1-.1-1.5c0-31.78,0-63.56,0-95.66.86.25,1.45.44,2.05.58,6.32,1.46,7.54,5.55,7.44,11.67-.38,23.3-.15,46.61-.15,69.92v5.77c2.9,0,5.24-2.88,7.77-1.21a57.6,57.6,0,0,1,6,5.21c.5.44,1,.92,1.46,1.36,3,2.64,6,7.34,8.91,7.32s6.09-4.59,9-7.32c10.24-9.65,9.3-8.47,18.56.11,2.81,2.59,5.57,7.23,8.42,7.28,3.68.07,6.11-5,9.26-7.67C98,192.39,99.78,189.86,102.84,188.21Z"/><path class="cls-1" d="M191.66,121.86c-2.64-2.08-4.83-4.11-7.32-5.69-2.13-1.35-1.35-3.23-1.36-4.89-.06-22.48-.15-45,.06-67.44,0-4.2-1.16-5.24-5.27-5.2-21.47.21-43,.1-64.43.09a6.44,6.44,0,0,1-6.55-7.79c.53-2.58,2.68-1.43,4.07-1.43,16.32-.09,32.64-.06,49-.06,8.83,0,17.65,0,26.48,0,3.8,0,5.89,1.54,5.88,5.65q-.09,42.72-.07,85.42A6.18,6.18,0,0,1,191.66,121.86Z"/><path class="cls-1" d="M103.4,108.13c15.31,0,30.63.08,45.94-.07,3.35,0,4.73.69,4.6,4.35-.1,3.29-.31,5.08-4.47,5.06q-46.68-.27-93.37,0c-3.76,0-4.35-1.43-4.28-4.67.06-3,.16-4.82,4.15-4.75C71.77,108.27,87.59,108.13,103.4,108.13Z"/><path class="cls-1" d="M147.11,140c-4.6,5.7-8.7,9.46-16.61,9.24-24.44-.68-48.92-.29-73.38-.21-3.3,0-5.52.1-5.4-4.51.11-4.1,1.43-4.86,5.16-4.84,28.46.14,56.91.07,85.37.08C143.67,139.77,145.1,139.91,147.11,140Z"/><path class="cls-1" d="M133,86.05c-7,0-14-.17-21,.06-3.89.14-3.27-2.32-3.21-4.56s-.91-4.74,3.08-4.7q21.21.23,42.43,0c4.34,0,3,2.83,3.27,5.07.27,2.7-.2,4.34-3.65,4.21C147,85.86,140,86.05,133,86.05Z"/><path class="cls-1" d="M47.81,22.25c3.66,11.16,10.45,19.29,15.13,28.6,3.84,7.65,2.12,15.29-4.1,20.12s-16.56,4.65-22.75-.5c-5.59-4.63-7-12.76-3.22-20C37.57,41.4,44.21,33.38,47.81,22.25Zm-9.08,31a3.06,3.06,0,0,0-1.59,2.17c-.6,3.71,4.09,11.79,7.64,13.14,1.07.41,1.91.39,2.59-.57.79-1.11.08-2-.73-2.48a12.84,12.84,0,0,1-5.71-9.9A2.27,2.27,0,0,0,38.73,53.26Z"/><path class="cls-1" d="M172.86,174.51a10.35,10.35,0,0,1-20.7.53,10.36,10.36,0,0,1,20.7-.53Z"/></g></g></svg>