<svg xmlns="http://www.w3.org/2000/svg" viewBox="0 0 216.16 266.02"><defs><style>.cls-1{fill:#b52f09;}</style></defs><g id="Layer_2" data-name="Layer 2"><g id="Layer_2-2" data-name="Layer 2"><path class="cls-1" d="M174.62,141.64c-12.84-2.63-25.26-2.81-37.62,1.08a66.71,66.71,0,0,0-32.42,22.2,7.49,7.49,0,0,1-6.64,3.16C75.29,168,52.63,168,30,168c-1.16,0-2.33,0-3.5,0A4,4,0,0,0,22,171.84c-.32,2.73,1.49,4.36,4.06,4.8a33.32,33.32,0,0,0,5.48.13H96.51c-2.75,7.11-5.28,13.86-6.27,21.1A57.54,57.54,0,0,0,90,214.29c.51,3.41-.36,3.8-3.33,3.78-19-.11-38-.06-57,0a18.82,18.82,0,0,0-4,.15A4.38,4.38,0,0,0,22,222.3c-.08,2.45,1.52,4,3.86,4.53a19.62,19.62,0,0,0,4,.12c19.32,0,38.65.11,58-.09,3.6,0,5.1,1.14,6.33,4.46,4.26,11.4,8.48,16.85,21.91,29.82-.88,1.54-2.37.76-3.51.76q-48.48.08-97,0C5.32,261.92,0,256.85,0,246.69Q0,130.74,0,14.79C0,4.92,5.06,0,14.77,0H160.21c9.4,0,14.41,5,14.41,14.45q0,61.23,0,122.45ZM102.31,50c5-7.2,9.36-13.61,13.82-20,1.33-1.88,2.23-3.82,1.15-6s-3.13-2.17-5.19-2.16c-7.66,0-15.33.11-23,0-3-.06-4.84,1.07-6.57,3.51C74.08,37.29,65.42,49.1,56.86,61c-1.34,1.85-3.18,3.63-1.69,6.25s4,2.65,6.54,2.63c5.81,0,11.62,0,17.84,0-2.4,9.75-4.71,19-7,28.34-.57,2.37-.61,4.69,2.12,5.95,2.39,1.1,4.16,0,5.74-1.69q21-22.06,42-44.17c1.38-1.44,2.74-3,1.67-5.31s-2.9-3-5.28-3C113.71,50.06,108.54,50,102.31,50ZM87.08,126.35q28.71,0,57.43,0a30.43,30.43,0,0,0,5-.25,3.61,3.61,0,0,0,3.17-3.87,3.78,3.78,0,0,0-3.38-4.19,22.91,22.91,0,0,0-4-.13q-57.93,0-115.87,0a35.39,35.39,0,0,0-4,.13C23,118.32,22,120.09,22,122.2a3.66,3.66,0,0,0,3.17,3.89,35.82,35.82,0,0,0,5,.25Q58.61,126.37,87.08,126.35Z"/><path class="cls-1" d="M156.86,266a58.95,58.95,0,0,1,.48-117.89c32.34.06,59,26.94,58.82,59.31C216,240.16,189.79,266,156.86,266Zm1.52-63v0c-3.17,0-6.34.06-9.5,0-5.74-.13-7.06-1.48-7.09-7.07a35.53,35.53,0,0,0,0-4c-.58-4.64,2-6.46,6.08-6.57,6.32-.16,12.66-.17,19,0,2.42.08,5,.56,5.8,3.7.69,2.86,2.55,4.51,5.45,3.49s3.5-3.59,2.69-6.58c-1.49-5.53-6.49-9.15-13.86-9.05-3.9.06-5.95-.59-5.35-5.05.42-3.09-.51-5.86-4.32-5.89s-4.8,2.79-4.44,5.84c.52,4.38-1.35,5.12-5.31,5.12-9.74,0-14.1,4.74-14.14,14.57,0,2.33,0,4.66,0,7,.15,7.12,3.79,11.29,10.95,12.57,5.79,1,11.64.44,17.46.49,10.89.11,10.83.14,10.93,11.19.05,4.32-1.73,6.18-5.77,6.22-6.5.06-13,0-19.5,0-2.3,0-4.69-.62-5.33-2.88-1-3.63-3.11-5.56-6.47-3.83-3.66,1.89-2.56,5.45-1.09,8.33,2.86,5.57,8.19,7.15,13.86,7.17,3.5,0,4.76,1,4.37,4.46s.86,6.37,4.63,6.28c3.46-.09,4.66-3,4.18-6.15-.6-4,1.23-4.51,4.74-4.59,8.13-.19,15.9-4.16,15-15.7-.15-2,0-4,0-6-.27-7.65-5.18-12.67-12.91-13.05C165.05,202.88,161.71,203,158.38,203Z"/><path class="cls-1" d="M67.56,61l21.1-29.35a3.39,3.39,0,0,1,3-1.35c4.13,0,8.26,0,13,0-2.49,5.43-6.21,9.43-9,14-1.23,2-2.64,3.83-4,5.73s-3,3.77-1.64,6.31,4,2.64,6.52,2.61c4-.05,8,0,13.17,0L85.85,84.19l-.72-.39c1.34-5.41,2.7-10.82,4-16.24,1-4.26-.51-6.41-4.84-6.51C79,60.92,73.76,61,67.56,61Z"/></g></g></svg>