<svg xmlns="http://www.w3.org/2000/svg" xmlns:xlink="http://www.w3.org/1999/xlink" viewBox="0 0 500 500"><defs><style>.cls-1{fill:#ebebeb;}.cls-2{fill:#263238;}.cls-3{opacity:0.3;}.cls-4{fill:#ecb029;}.cls-5{fill:#455a64;}.cls-6{fill:#f5f5f5;}.cls-7{fill:#fff;}.cls-8{opacity:0.2;}.cls-9{fill:#d39926;}.cls-10{fill:#e0e0e0;}.cls-11{fill:#1f366b;}.cls-12{fill:#192b5d;}.cls-13{opacity:0.5;}</style><image id="image" width="998" height="222" xlink:href="Fastag-logo.png"/></defs><g id="Character"><polygon class="cls-1" points="156.2 323.6 150.4 410.8 133.3 411.1 142.6 323.4 156.2 323.6"/><polygon class="cls-1" points="27.9 321.6 4.3 358 4.3 388.5 39.2 321.6 27.9 321.6"/><polygon class="cls-1" points="470.5 321.8 494.2 358.2 494.2 388.7 459.2 321.8 470.5 321.8"/><polygon class="cls-1" points="335.4 332.3 380.8 419.5 400.4 419.5 352.3 332.3 335.4 332.3"/><polygon class="cls-1" points="259.7 323.9 264.8 413.9 250.1 413.9 247.8 323.9 259.7 323.9"/><path class="cls-2" d="M487.6,320.8c0,.1-107,.2-239,.2s-239-.1-239-.2,107-.3,239-.3S487.6,320.6,487.6,320.8Z"/><g id="freepik--Car--inject-2"><path class="cls-2" d="M299.7,279.9s-1.4-1.4-1.8,7.4-.9,20.3,1,25.4a2.2,2.2,0,0,0,1,1.3,3.6,3.6,0,0,0,1.7.7c1.6.2,8.1.1,8.1.1s3.6,0,3.7-3.2v-8.4Z"/><g class="cls-3"><path d="M299.7,279.9s-1.4-1.4-1.8,7.4-.9,20.3,1,25.4a2.2,2.2,0,0,0,1,1.3,3.6,3.6,0,0,0,1.7.7c1.6.2,8.1.1,8.1.1s3.6,0,3.7-3.2v-8.4Z"/></g><path class="cls-2" d="M374.4,279.9s-1.4-1.4-1.8,7.4-.9,20.3,1,25.4a2.7,2.7,0,0,0,1,1.3,3.6,3.6,0,0,0,1.7.7c1.6.2,8.1.1,8.1.1s3.6,0,3.7-3.2v-8.4Z"/><g class="cls-3"><path d="M374.4,279.9s-1.4-1.4-1.8,7.4-.9,20.3,1,25.4a2.7,2.7,0,0,0,1,1.3,3.6,3.6,0,0,0,1.7.7c1.6.2,8.1.1,8.1.1s3.6,0,3.7-3.2v-8.4Z"/></g><path class="cls-2" d="M394.4,264.7s-.5,1.5-1.3,1.7l-7.5.3-.7,1.5h-1.2l-.9-5.8.7.2a1,1,0,0,1,.6.5h0a1.1,1.1,0,0,0,.7.6Z"/><path class="cls-4" d="M394.1,264.9a.9.9,0,0,0,.8-.9h0c-.3-1.6-1.1-4.8-4-5.3a17.5,17.5,0,0,0-5.6-.1c-.4,0-.7.5-.7,1-.3,2.2-.1,5,.5,5.3S391.9,265.1,394.1,264.9Z"/><path class="cls-2" d="M390.1,258.6l.2.3.4.6a21.1,21.1,0,0,1,1.9,4.7,4.5,4.5,0,0,0,.2.8v.3c0-.1-.1-.2-.1-.3a2.5,2.5,0,0,0-.2-.7,18.3,18.3,0,0,0-.8-2.5l-1.1-2.2-.4-.7Z"/><path class="cls-2" d="M392.9,285.9s1.3-1.5,1.7,7.3.9,20.3-1,25.5a2.6,2.6,0,0,1-1,1.3,5.2,5.2,0,0,1-1.6.6c-1.7.3-8.2.2-8.2.2s-3.6,0-3.7-3.3v-8.3Z"/><path class="cls-5" d="M392.9,285.9h-.1l-.2.3-.7,1.3-2.9,4.8-9.8,16.8h0V317a3.4,3.4,0,0,0,0,1,2.8,2.8,0,0,0,1.7,2.3,10.7,10.7,0,0,0,4,.4h4.2l2-.2a1.7,1.7,0,0,0,1-.3,3.5,3.5,0,0,0,1.4-1.4l.2-.5v-.5c.1-.1.1-.3.2-.5v-.5a3.6,3.6,0,0,1,.2-1,13.6,13.6,0,0,0,.2-2,3.4,3.4,0,0,0,.1-1,3.1,3.1,0,0,0,.1-1c.2-2.6.2-5.1.2-7.4s-.1-4.5-.2-6.5-.1-3.7-.2-5.3-.2-2.7-.3-4a7.7,7.7,0,0,0-.7-2.4l-.2-.3h0l.2.3a7.7,7.7,0,0,1,.7,2.4c.2,1.3.3,2.7.4,4s.2,3.4.2,5.3.2,4.2.2,6.5,0,4.8-.2,7.4v1a3.4,3.4,0,0,0-.1,1l-.3,2c-.1.4-.1.7-.2,1a1.1,1.1,0,0,0-.1.5c-.1.2-.1.4-.2.6v.5c-.1.1-.1.3-.2.5a3.5,3.5,0,0,1-1.4,1.4l-1,.4h-8.3a4.5,4.5,0,0,1-2-.4,4,4,0,0,1-1.5-1.4l-.3-1v-8.8h0l9.9-16.7,2.8-4.8.8-1.3.2-.3A.1.1,0,0,1,392.9,285.9Z"/><path class="cls-2" d="M293.6,285.9s-1.4-1.5-1.8,7.3-.9,20.3,1,25.5a2.6,2.6,0,0,0,1,1.3,4.9,4.9,0,0,0,1.7.6c1.6.3,8.1.2,8.1.2s3.6,0,3.7-3.3v-8.3Z"/><path class="cls-4" d="M394.1,278.3l-3-2.1c-.7-3.2-6.3-10-6.3-10S379,251.3,374,247.8s-29.4-3-29.4-3h-1.3s-25.9-.4-30.9,3-10.8,18.4-10.8,18.4-5.6,6.8-6.3,10l-3,2.1a2.3,2.3,0,0,0-.9,1.9c.2,5.5,1.2,27.4,2.9,29.8s17.4,1.1,21.7,1.1l25.2-.3h28.1c3.1-.4,20.7,1.9,22.8-.8s2.8-24.3,2.9-29.8A2.1,2.1,0,0,0,394.1,278.3Z"/><path class="cls-5" d="M372.7,248.8c-.1-.2-.4-.3-.6-.4l-28.4-1.2h-.3l-29.1,1.2c-.2.1-.5.2-.6.4l-7.4,13.8a.6.6,0,0,0,.3.9c0,.1.2.1.3.1h3.4c2.3-.1,20.4-.1,30,0h5.8c9.6-.1,27.7-.1,30,0h3.6a.5.5,0,0,0,.5-.6v-.3Z"/><path class="cls-2" d="M292,264.7s.5,1.5,1.3,1.7l7.5.3.7,1.5h1.2l1-5.8-.8.2a1,1,0,0,0-.6.5h0a1.1,1.1,0,0,1-.7.6Z"/><g class="cls-3"><path d="M319.7,298.7,297,295.5a1.7,1.7,0,0,0-2.1,1.8c0,.8-.1,3.8-.2,5.5a2.8,2.8,0,0,0,1.3,2.4,6.6,6.6,0,0,0,1.9.9c1.8.6,12.9,1.1,15.2,1.2a1.1,1.1,0,0,0,.8-.3,27.7,27.7,0,0,0,3.7-3.9c2.3-3.4,2.1-4.4,2.1-4.4ZM308.4,305l-10.6-1.8.4-6.2,14.4,1.4Z"/></g><g class="cls-3"><path d="M295.2,282.9s-1.1,3.5,5.8,5.1,17.3,4.6,17.3,4.6l-5.5-4.2s-16-2.8-16.4-5.4a29,29,0,0,1,0-6.3Z"/></g><path class="cls-2" d="M322.1,298.5h-.3l-.8-.3-3.1-.7c-2.6-.6-6.3-1.4-10.3-2.1l-5.7-.9-2.5-.4-2.2-.2a3,3,0,0,0-1.6.5,5.2,5.2,0,0,0-1,1.1,3.6,3.6,0,0,0-.4,1.1.4.4,0,0,1,.1-.3,1.6,1.6,0,0,1,.3-.9,2.8,2.8,0,0,1,.9-1,2.7,2.7,0,0,1,1.7-.6l2.2.2,2.5.4,5.7.9c4.1.7,7.7,1.5,10.3,2.1l3.1.8.8.3h.3Z"/><path class="cls-2" d="M294.3,289.5h0v-1.8c0-1.1.1-2.7.2-4.5s.4-3.3.6-4.5.1-1,.2-1.3v-.4h0v.4a4.4,4.4,0,0,0-.2,1.3,102.5,102.5,0,0,0-.8,9v1.8Z"/><path class="cls-2" d="M299.1,273.8v-.6c0-.2.1-.3.1-.5a20.5,20.5,0,0,1,.5-2.4l.8-2.4a1.3,1.3,0,0,0,.3-.7c.1-.1.1-.1.1-.2v.3a2.4,2.4,0,0,0-.3.7,21.9,21.9,0,0,0-.7,2.3,10.2,10.2,0,0,0-.6,2.5A3.5,3.5,0,0,0,299.1,273.8Z"/><path class="cls-6" d="M300.4,275.4s-3.6-1.4-4,1.5-.4,5.9.2,7,6.1,2.4,6.1,2.4l9.6,2.2s.7.2.3-.6-3-6.9-4.5-8.4S300.4,275.4,300.4,275.4Z"/><g class="cls-3"><path d="M304,286.6s0-7-.5-7.7-6.1-3.6-6.1-3.6a1.8,1.8,0,0,1,1.6-.3,18.1,18.1,0,0,1,4.6,1.7c1.6.8,4.1,2,5,3.4s1.2,2.1,2,3.7a32.7,32.7,0,0,1,2.1,4.4c0,.2,0,.5-.9.2Z"/></g><path class="cls-2" d="M343.7,275.7H314.6a1.7,1.7,0,0,0-1.2.4l-1.6,1.5-.7.6a1.1,1.1,0,0,1-.7.3h0l.6-.3.7-.7,1.7-1.5a1.6,1.6,0,0,1,1.2-.3h29.1Z"/><path class="cls-2" d="M388.6,308.2c-.1-.3-.3-.4-.8-.4s-15.4.5-17.3,0-8.4-8.3-11.2-8.8-13.4-.7-16.9-.6-14.7.2-17,.6-9.1,9.1-11,9.6-16.1-.6-17.4-.8-.8.1-.9.4a.8.8,0,0,0,.4,1.1h.3l16.7.2,29.4-.6,28,.2c2.5,0,14,.3,17,.2a.8.8,0,0,0,.8-.9A.4.4,0,0,0,388.6,308.2Z"/><path class="cls-4" d="M292.3,264.9a.9.9,0,0,1-.8-.9h0c.3-1.6,1.1-4.8,4-5.3a17.5,17.5,0,0,1,5.6-.1c.4,0,.7.5.7,1,.3,2.2.1,5-.5,5.3S294.5,265.1,292.3,264.9Z"/><path class="cls-2" d="M312.9,247.6h-.1l-.3.6-1.1,2.1-3.6,6.9-3,5.9h0l-2.5,2-.7.5-.2.2h0l.2-.2.7-.6,2.4-2h0l3-5.9,3.7-6.9,1.1-2.1.3-.5v-.2Z"/><path class="cls-2" d="M316.8,246.3l-.5.2-1.2.7a4.8,4.8,0,0,0-.9,1.1l-.4.4.3-.5a3.7,3.7,0,0,1,2.2-1.7Z"/><g class="cls-3"><path d="M304.7,263.3h-.2c-.1-.1,5,11.1,7.3,14.1l1.6-1.4C310,272.6,307.5,267.2,304.7,263.3Z"/></g><path class="cls-2" d="M314.7,307.3h.1l.4-.3,1.1-1,3.9-4,1.3-1.4,1.4-1.5a4.9,4.9,0,0,1,1.8-1.1,8.7,8.7,0,0,1,2.2-.5h10l18.1-.2h0l-18.1.2h-10a5.4,5.4,0,0,0-2.1.5,6.9,6.9,0,0,0-1.9,1l-1.3,1.5-1.3,1.4c-1.7,1.7-3,3.1-4,4l-1.1,1-.4.3Z"/><g class="cls-3"><path class="cls-7" d="M303.2,293.8a13.7,13.7,0,0,0-2.2-2c-.7-.5-1.9-1.1-2.6-.6a3.9,3.9,0,0,0-.8,1.4.7.7,0,0,0-.1.6c.1.2.4.2.6.3l4.9.6h.3A1,1,0,0,0,303.2,293.8Z"/></g><g class="cls-3"><path d="M322.4,290.5c12.5,3.5,25.8,2.6,38.7,1,2-.2,4.2-.6,5.5-2.1"/></g><path class="cls-2" d="M369.2,278.2c-4.9-.8-15.2-1.1-25.5-1.1s-20.5.3-25.5,1.1a2.6,2.6,0,0,0-2.1,3v.4h.1c.5,1.9,2.6,7.9,6,8.8,1.6.4,10.4.8,19.8.9h3.5c9.4-.1,18.2-.5,19.8-.9,3.3-.9,5.4-6.9,6-8.8h0a2.9,2.9,0,0,0-1.7-3.4Z"/><path class="cls-2" d="M370.4,289.6h-.1l-.4.2-.6.3-.4.2-.5.3a28.6,28.6,0,0,1-5.8,2.1,53.6,53.6,0,0,1-8.9,1.6c-3.4.3-7.2.4-11.1.4a76.8,76.8,0,0,1-11.1-.7,44.4,44.4,0,0,1-8.9-2.1,39.9,39.9,0,0,1-5.6-2.5l-.9-.5-.6-.4-.3-.3h0l.3.2.6.4.9.5a31,31,0,0,0,5.6,2.5,46,46,0,0,0,8.9,2.1,76.8,76.8,0,0,0,11.1.7c3.9,0,7.7-.1,11.1-.4a53.6,53.6,0,0,0,8.9-1.6,31,31,0,0,0,5.8-2.1l.5-.2.4-.2.6-.3.4-.2Z"/><path class="cls-5" d="M371,281.1H316.3c0-.1,12.3-.1,27.4-.1S371,281,371,281.1Z"/><path class="cls-5" d="M371,279.3h0Z"/><path class="cls-5" d="M363.3,277.5c0,.1-8.8.1-19.6.1s-19.6,0-19.6-.1h39.2Z"/><path class="cls-5" d="M371,282.9h0Z"/><path class="cls-5" d="M369.8,284.7h0Z"/><path class="cls-5" d="M369.3,286.4c0,.1-11.5.1-25.6.1s-25.6,0-25.6-.1h51.2Z"/><path class="cls-5" d="M368,288.2c0,.1-10.9.1-24.3.1s-24.2,0-24.2-.1H368Z"/><path class="cls-5" d="M366.3,290c0,.1-10,.1-22.4.1s-22.5,0-22.5-.1h44.9Z"/><path class="cls-7" d="M301.9,308.6h0a.6.6,0,0,1-.4.8h-3.7a.9.9,0,0,1-.6-.6v-.2a.7.7,0,0,1,.6-.7h.1l3.5.3A.7.7,0,0,1,301.9,308.6Z"/><path class="cls-5" d="M368.4,306.4c0,.1-11.5.1-25.6.1s-25.7,0-25.7-.1h51.3Z"/><polygon class="cls-5" points="328.4 308.4 326.9 308.4 326.8 306.4 328.5 306.4 328.4 308.4"/><polygon class="cls-5" points="342.5 308.4 341 308.4 340.9 306.4 342.6 306.4 342.5 308.4"/><polygon class="cls-5" points="356.6 308.4 355.1 308.4 355 306.4 356.7 306.4 356.6 308.4"/><path class="cls-5" d="M367.6,305.7c-2.7-2.5-6.4-6.3-8.2-6.7s-13.5-.7-17-.6-14.7.2-17,.6-5,4-7.6,6.7Z"/><path class="cls-2" d="M295.1,304.4h.2l.3-.3,1.4-1.2h0l7.4,1,4,.5h0l3.7,2.1,1,.7h.3a.1.1,0,0,0,.1.1c-.1,0-.1,0-.1-.1h-.3l-1.1-.6-3.6-2.1h0l-4-.5-7.4-1h0l-1.4,1.1-.3.3Z"/><path class="cls-2" d="M313.5,300.1s.7-1.4,0-1.7-14.8-2.1-15.4-2.2-1.5.4-1.8,1.9-.9,4.9.3,5.9,2.8,1.5,6.3,1.7,5.3.3,7-.7S313.5,300.1,313.5,300.1Z"/><path class="cls-2" d="M312.8,288.4c-.1,0-.3-.3-.6-1.1s-.8-1.7-1.5-2.9-.6-1.3-1-2a15.3,15.3,0,0,0-1.4-2.1l-.9-1-1.1-.8-1.3-.8-1.3-.7c-.9-.5-1.8-.8-2.7-1.2l-1.3-.3-1.3-.2a1.8,1.8,0,0,0-1.7,1.3l-.3,1.1c-.1.3-.1.7-.2,1l-.7,3.3c-.2.7-.3,1.2-.4,1.2a10.3,10.3,0,0,1,.1-1.3q.2-1.2.6-3.3c.1-.3.1-.7.2-1l.3-1.2a2.4,2.4,0,0,1,.7-1.2,2.3,2.3,0,0,1,1.4-.4,3.3,3.3,0,0,1,1.4.1l1.4.4a15.9,15.9,0,0,1,2.7,1.2l1.4.7,1.3.8,1.1.8,1,1.1a17.6,17.6,0,0,1,1.4,2.3l1,2c.6,1.3,1,2.3,1.3,3.1A7,7,0,0,0,312.8,288.4Z"/><path class="cls-2" d="M318.3,292.6c0,.2-3.9-.7-8.6-2s-8.5-2.4-8.5-2.6,3.9.8,8.6,2A84.9,84.9,0,0,1,318.3,292.6Z"/><path class="cls-2" d="M295.6,275.9h0v-.2l.3-.7a2.4,2.4,0,0,1,.8-.9l.3-.2h1.2l1.9.4,2.1.7a34.5,34.5,0,0,1,4.6,1.9l.6.4.6.3.9,1,1.4,2.1,2.1,3.7,1.4,2.5a1.7,1.7,0,0,1,.3.7v.2h.1a.1.1,0,0,1-.1-.1v-.2l-.3-.6c-.4-.6-.8-1.5-1.4-2.6l-2.2-3.6-1.4-2.1a3.8,3.8,0,0,0-.9-.9l-.5-.4-.6-.3a42.9,42.9,0,0,0-4.6-2l-2.1-.7-1.9-.4h-1.5a2.4,2.4,0,0,0-.8.9,1.9,1.9,0,0,0-.2.7.3.3,0,0,0-.1.2Z"/><path class="cls-2" d="M296.3,258.6v.3a6.1,6.1,0,0,1-.4.6,20,20,0,0,0-1.9,4.8,2.5,2.5,0,0,0-.2.7c0,.1-.1.2-.1.3V265a4.5,4.5,0,0,0,.2-.8,21.1,21.1,0,0,1,1.9-4.7l.4-.6Z"/><g class="cls-3"><path class="cls-7" d="M294.7,277.2l-1.9,1.1a2.1,2.1,0,0,0-1,1.4,3.3,3.3,0,0,0,.1,1.7c.5,1.9,1.1,5.3,1.6,7.1.4-3.4.9-9.2,1.2-11.3"/></g><path class="cls-5" d="M310.7,304.2l-7.4-1c-4.1-.6-7.4-1.1-7.4-1.2l7.4,1Z"/><path class="cls-5" d="M309.6,305.1h-.5l-1.5-.2-4.8-.6-4.8-.6-1.5-.3h0l1.5.2,4.8.6,4.8.6,1.5.3h.4A.1.1,0,0,1,309.6,305.1Z"/><path class="cls-5" d="M307.3,305.7h-1.4l-3.4-.4-3.5-.5h0l3.5.4,3.4.4,1,.2Z"/><path class="cls-5" d="M311.5,303.2c0,.1-3.5-.4-7.8-1l-7.8-1.1c0-.1,3.5.4,7.8,1Z"/><path class="cls-5" d="M312.1,302.3s-3.7-.4-8.1-1.1l-8.1-1.1c0-.1,3.7.4,8.1,1Z"/><path class="cls-5" d="M312.7,301.2c0,.1-3.7-.4-8.3-1.1s-8.2-1.1-8.2-1.2l8.3,1.1Z"/><path class="cls-5" d="M313.3,300.1l-8.5-1.1-8.4-1.2c0-.1,3.8.4,8.4,1.1Z"/><path class="cls-5" d="M313.8,299c0,.1-3.8-.4-8.5-1.1l-8.5-1.2,8.5,1.1Z"/><path class="cls-5" d="M301.5,296.5s-.4,2-.8,4.4a34.1,34.1,0,0,1-1,4.4l.9-4.4C301,298.5,301.5,296.5,301.5,296.5Z"/><path class="cls-5" d="M300.1,296.3s-.4,2-.8,4.4a40.1,40.1,0,0,1-1,4.4s.4-2,.8-4.4S300.1,296.3,300.1,296.3Z"/><path class="cls-5" d="M298.7,296s-.3,1.9-.8,4.2l-.9,4.1s.3-1.8.8-4.1A27.3,27.3,0,0,1,298.7,296Z"/><path class="cls-5" d="M297.2,296.4c0,.1-.1.1-.1.2a2,2,0,0,1-.1.7c-.1.6-.2,1.4-.4,2.2s-.3,1.7-.4,2.3a3.5,3.5,0,0,1-.1.6c0,.1-.1.2-.1.3v-.3a6.4,6.4,0,0,0,.2-.7c.1-.6.2-1.3.3-2.2s.3-1.6.4-2.2a6.4,6.4,0,0,1,.2-.7C297.1,296.5,297.1,296.5,297.2,296.4Z"/><path class="cls-5" d="M303.1,296.8s-.3,2-.8,4.3l-.9,4.2s.3-1.9.8-4.2Z"/><path class="cls-5" d="M304.7,297.2a34.7,34.7,0,0,1-.8,4.3c-.4,2.3-.9,4.2-.9,4.2s.3-1.9.8-4.3Z"/><path class="cls-5" d="M306.4,297.3s-.3,1.9-.8,4.2l-.9,4.2s.3-1.9.8-4.2Z"/><path class="cls-5" d="M308,297.5a31.7,31.7,0,0,1-.8,4.2,27.3,27.3,0,0,1-.9,4.2s.4-1.9.8-4.2Z"/><path class="cls-5" d="M309.6,297.9c.1,0-.3,1.7-.7,3.9s-.8,3.9-.8,3.9a36,36,0,0,1,.7-3.9C309.2,299.6,309.6,297.8,309.6,297.9Z"/><path class="cls-5" d="M311.3,298l-.7,3.7a26.8,26.8,0,0,1-.8,3.6l.7-3.7C310.9,299.6,311.3,298,311.3,298Z"/><path class="cls-5" d="M312.9,298.3a20.7,20.7,0,0,1-.4,2.2,15.5,15.5,0,0,1-.4,2.1l.3-2.2C312.6,299.7,312.7,299,312.9,298.3Z"/><path class="cls-2" d="M366.4,304.8h0Z"/><path class="cls-2" d="M365.5,303.7h0Z"/><path class="cls-2" d="M364.1,302.5h0Z"/><path class="cls-2" d="M363.1,301.3h0Z"/><path class="cls-2" d="M361.5,300.2h0Z"/><path class="cls-2" d="M359.7,299.1h0Z"/><g class="cls-3"><path d="M346.1,263.6H306.3a6,6,0,0,0,4.6,2.1h65.2a4.9,4.9,0,0,0,4-2Z"/></g><path class="cls-2" d="M380.2,262.7l-7.5-13.9-.6-.4-26-1.1h0l-2.5-.2h-.8l-2.5.2h0l-26,1.1-.6.4-7.5,13.9a.8.8,0,0,0,.2,1h73.3c.4-.1.7-.4.6-.8S380.2,262.8,380.2,262.7Zm-70.5-.6a.7.7,0,0,1-.7-.7.6.6,0,0,1,.1-.4c1.4-2.6,5-9.3,5.6-10.1s17.4-1.5,26.1-1.5h4.8c8.7,0,25,.2,26.1,1.5s4.2,7.5,5.6,10.1a.8.8,0,0,1-.2,1h-.4l-33.5.3"/><g class="cls-3"><path d="M366.7,298.7h0s-.2,1,2.1,4.4a27.7,27.7,0,0,0,3.7,3.9,1.1,1.1,0,0,0,.8.3c2.3-.1,13.4-.6,15.2-1.2a6.6,6.6,0,0,0,1.9-.9,2.8,2.8,0,0,0,1.3-2.4c-.1-1.7-.2-4.7-.2-5.5a1.7,1.7,0,0,0-2-1.8Zm7.1-.3,14.4-1.4.4,6.2L378,305Z"/></g><g class="cls-3"><path d="M391.2,282.9s1.1,3.5-5.8,5.1-17.3,4.6-17.3,4.6l5.6-4.2s15.9-2.8,16.3-5.4a29,29,0,0,0,0-6.3Z"/></g><path class="cls-2" d="M364.3,298.5h.3l.8-.3,3.1-.8c2.6-.6,6.2-1.4,10.3-2.1l5.7-.9,2.5-.4,2.2-.2a2.7,2.7,0,0,1,1.7.6,2.9,2.9,0,0,1,.9,1,1.6,1.6,0,0,1,.3.9.4.4,0,0,1,.1.3,5.6,5.6,0,0,0-.4-1.2l-1-1a3.4,3.4,0,0,0-1.7-.5l-2.1.2-2.5.4-5.7.9c-4,.7-7.7,1.5-10.3,2.1l-3.1.8-.8.2h-.3Z"/><path class="cls-2" d="M392.1,289.5h0V289c0-.3-.1-.8-.1-1.4s-.1-2.7-.2-4.5-.4-3.3-.5-4.5a8.3,8.3,0,0,1-.2-1.3c0-.2-.1-.3-.1-.4h0v.4a13,13,0,0,1,.3,1.3c.1,1.2.3,2.8.5,4.5s.2,3.4.2,4.5v1.8Z"/><path class="cls-2" d="M387.3,273.8s-.1-.4-.2-1a10.2,10.2,0,0,0-.6-2.5,21.9,21.9,0,0,0-.7-2.3,2.4,2.4,0,0,0-.3-.7.4.4,0,0,0-.1-.3l.2.2a2.5,2.5,0,0,0,.2.7,11.2,11.2,0,0,1,.8,2.4,10.5,10.5,0,0,1,.6,2.4.9.9,0,0,0,.1.5v.6Z"/><path class="cls-6" d="M386,275.4s3.6-1.4,4,1.5.4,5.9-.2,7-6.1,2.4-6.1,2.4l-9.6,2.2s-.7.2-.3-.6,3-6.9,4.5-8.4S386,275.4,386,275.4Z"/><g class="cls-3"><path d="M382.4,286.6s0-7,.5-7.7,6.1-3.6,6.1-3.6a1.8,1.8,0,0,0-1.6-.3,18.1,18.1,0,0,0-4.6,1.7c-1.6.8-4.1,2-5,3.4a40,40,0,0,0-2.1,3.7c-1,2.1-2,4.3-2,4.4s-.1.5.9.3Z"/></g><path class="cls-2" d="M342.7,275.7h29.1a1.3,1.3,0,0,1,1.2.4l1.7,1.5.7.6c.2.1.4.3.6.3h0l-.7-.4-.6-.6-1.7-1.5a1.7,1.7,0,0,0-1.2-.3H342.7Z"/><path class="cls-2" d="M297.8,308.2c.1-.3.3-.4.8-.4s15.4.5,17.3,0,8.4-8.3,11.1-8.8,13.5-.7,17-.6,14.7.2,17,.6,9.1,9.1,11,9.6,16.1-.6,17.4-.8.8.1.9.4a.8.8,0,0,1-.4,1.1h-.3l-16.7.2-29.4-.6-28,.2c-2.5,0-14,.3-17,.2a.8.8,0,0,1-.8-.9A.4.4,0,0,1,297.8,308.2Z"/><path class="cls-2" d="M373.5,247.6h0v.2l.3.6,1.1,2,3.7,7,3,5.8h0l2.5,2.1.6.5.2.2h-.2l-.7-.6-2.4-2h0l-3.1-5.8-3.6-7-1.1-2.1-.3-.6h-.1Z"/><path class="cls-2" d="M369.5,246.3l.6.2a3.7,3.7,0,0,1,2.2,1.7l.3.5a1,1,0,0,1-.4-.5,4.3,4.3,0,0,0-2.1-1.7Z"/><g class="cls-3"><path d="M381.7,263.3h.2c.1-.1-5,11.1-7.3,14.1l-1.6-1.4C376.4,272.6,378.9,267.2,381.7,263.3Z"/></g><path class="cls-2" d="M371.7,307.3h-.1l-.4-.2-1.1-1.1c-1-.9-2.3-2.2-4-4l-1.3-1.4-1.3-1.4a5.2,5.2,0,0,0-1.9-1.1,8,8,0,0,0-2.1-.5h-10l-18.1-.2h0l18.1.2h10a8.7,8.7,0,0,1,2.2.5,4.9,4.9,0,0,1,1.8,1.1l1.4,1.5,1.3,1.4,3.9,4,1.2,1,.3.3Z"/><g class="cls-3"><path class="cls-7" d="M383.2,293.8a13.7,13.7,0,0,1,2.2-2c.7-.5,1.9-1.1,2.6-.6a6.4,6.4,0,0,1,.8,1.4.7.7,0,0,1,.1.6c-.1.2-.4.2-.6.3l-4.9.6h-.3A1,1,0,0,1,383.2,293.8Z"/></g><path class="cls-7" d="M384.5,308.6h0a.6.6,0,0,0,.4.8h3.7a.6.6,0,0,0,.5-.6v-.2a.7.7,0,0,0-.6-.7h-.1l-3.5.3A.7.7,0,0,0,384.5,308.6Z"/><path class="cls-5" d="M318,306.4h51.3c0,.1-11.5.1-25.7.1S318,306.5,318,306.4Z"/><polygon class="cls-5" points="358 308.4 359.5 308.4 359.6 306.4 357.9 306.4 358 308.4"/><polygon class="cls-5" points="343.9 308.4 345.4 308.4 345.5 306.4 343.8 306.4 343.9 308.4"/><polygon class="cls-5" points="329.8 308.4 331.3 308.4 331.4 306.4 329.7 306.4 329.8 308.4"/><path class="cls-5" d="M318.8,305.7c2.7-2.5,6.4-6.3,8.2-6.7s13.5-.7,17-.6,14.7.2,17,.6,5,4,7.6,6.7Z"/><path class="cls-2" d="M391.3,304.4h-.2l-.3-.3-1.4-1.1h0l-7.4,1-4,.5h0l-3.7,2.1-1,.6H373a.1.1,0,0,1-.1.1h.1l.3-.2,1-.6,3.6-2.1h0l4.1-.5,7.4-1h0l1.4,1.2.3.3Z"/><path class="cls-2" d="M372.9,300.1s-.7-1.4,0-1.7,14.8-2.1,15.4-2.2,1.5.4,1.8,1.9.9,4.9-.3,5.9-2.8,1.5-6.3,1.7-5.3.3-7-.7S372.9,300.1,372.9,300.1Z"/><path class="cls-2" d="M373.6,288.4a8.2,8.2,0,0,1,.4-1.1c.3-.8.7-1.8,1.3-3.1s.6-1.3,1-2a17.6,17.6,0,0,1,1.4-2.3l.9-1.1,1.2-.9,1.3-.7,1.3-.7a16.9,16.9,0,0,1,2.8-1.2l1.4-.4,1.4-.2a2.9,2.9,0,0,1,1.3.5,2,2,0,0,1,.8,1.2l.3,1.1c.1.4.1.8.2,1.1s.4,2.5.6,3.3.1,1.2,0,1.2l-.3-1.1-.7-3.3c-.1-.3-.1-.7-.2-1.1l-.3-1.1a1.9,1.9,0,0,0-1.7-1.2h-1.3l-1.3.4-2.7,1.2-1.3.7-1.3.7-1.1.9-.9.9-1.4,2.2c-.4.7-.7,1.4-1.1,2l-1.4,2.9C373.9,288,373.7,288.4,373.6,288.4Z"/><path class="cls-2" d="M368.1,292.6c0-.2,3.8-1.3,8.5-2.6s8.5-2.1,8.6-2-3.8,1.3-8.5,2.6S368.1,292.8,368.1,292.6Z"/><path class="cls-2" d="M390.8,275.9h0a.3.3,0,0,0-.1-.2,1.9,1.9,0,0,0-.2-.7,2,2,0,0,0-.9-.9h-.3l-.3-.2h-.8a5.8,5.8,0,0,0-1.9.4l-2.1.7-4.6,1.9-.6.4-.5.3a2.8,2.8,0,0,0-.9,1l-1.4,2.1-2.2,3.6-1.4,2.6-.3.6v.2h-.1a.1.1,0,0,1,.1-.1v-.2l.4-.7,1.3-2.5,2.2-3.7,1.4-2.1.9-1,.6-.4.5-.3,4.7-2,2.1-.6a5.8,5.8,0,0,1,1.8-.4h.9l.4.2h.3a3.9,3.9,0,0,1,.8,1l.3.7v.2Z"/><g class="cls-3"><path class="cls-7" d="M391.7,277.2l1.9,1.1a2.1,2.1,0,0,1,1,1.4,3.3,3.3,0,0,1-.1,1.7c-.5,1.9-1.1,5.3-1.6,7.1-.4-3.4-.9-9.2-1.2-11.3"/></g><path class="cls-5" d="M375.7,304.2l7.4-1.1,7.4-1.1c0,.1-3.3.6-7.4,1.2Z"/><path class="cls-5" d="M376.8,305.1a.1.1,0,0,1,.1-.1h.4l1.4-.3,4.9-.6,4.8-.6,1.4-.2h.1l-1.5.3-4.8.6-4.8.6-1.5.2h-.5Z"/><path class="cls-5" d="M379.1,305.7h.4l1-.2,3.4-.4,3.5-.4h0l-3.5.5-3.4.4Z"/><path class="cls-5" d="M374.9,303.2l7.8-1.1c4.3-.6,7.8-1.1,7.8-1l-7.8,1.1C378.4,302.8,374.9,303.3,374.9,303.2Z"/><path class="cls-5" d="M374.3,302.3l8.1-1.2c4.4-.6,8.1-1.1,8.1-1l-8.1,1.1C378,301.9,374.3,302.3,374.3,302.3Z"/><path class="cls-5" d="M373.7,301.2l8.2-1.2,8.3-1.1c0,.1-3.7.6-8.2,1.2S373.7,301.3,373.7,301.2Z"/><path class="cls-5" d="M373.1,300.1l8.5-1.2c4.6-.6,8.4-1.2,8.4-1.1l-8.4,1.2Z"/><path class="cls-5" d="M372.6,299l8.5-1.2,8.5-1.1-8.5,1.2C376.4,298.6,372.6,299.1,372.6,299Z"/><path class="cls-5" d="M384.9,296.5s.5,2,.9,4.4l.9,4.4a34.1,34.1,0,0,1-1-4.4C385.3,298.5,384.9,296.6,384.9,296.5Z"/><path class="cls-5" d="M386.3,296.3s.5,1.9.9,4.4l.9,4.4a40.1,40.1,0,0,1-1-4.4C386.7,298.3,386.3,296.3,386.3,296.3Z"/><path class="cls-5" d="M387.7,296l.9,4.2c.5,2.3.8,4.1.8,4.1l-.9-4.1C388,297.9,387.7,296,387.7,296Z"/><path class="cls-5" d="M389.2,296.4c.1.1.1.1.1.2a2.5,2.5,0,0,0,.2.7c.1.6.2,1.3.4,2.2s.2,1.6.3,2.2a6.4,6.4,0,0,0,.2.7v.3c0-.1-.1-.2-.1-.3a3.5,3.5,0,0,1-.1-.6,12,12,0,0,1-.4-2.3c-.2-.8-.3-1.6-.4-2.2a2,2,0,0,1-.1-.7C389.2,296.5,389.2,296.5,389.2,296.4Z"/><path class="cls-5" d="M383.3,296.8l.9,4.3c.5,2.3.8,4.2.8,4.2l-.9-4.2C383.6,298.8,383.3,296.9,383.3,296.8Z"/><path class="cls-5" d="M381.7,297.2l.9,4.2c.5,2.4.8,4.3.8,4.3a27.3,27.3,0,0,1-.9-4.2A34.7,34.7,0,0,1,381.7,297.2Z"/><path class="cls-5" d="M380,297.3l.9,4.2c.5,2.3.8,4.2.8,4.2l-.9-4.2C380.3,299.2,380,297.3,380,297.3Z"/><path class="cls-5" d="M378.4,297.5l.9,4.2c.4,2.3.8,4.2.7,4.2s-.4-1.9-.8-4.2A31.7,31.7,0,0,1,378.4,297.5Z"/><path class="cls-5" d="M376.8,297.9s.4,1.7.8,3.9a36,36,0,0,1,.7,3.9s-.4-1.8-.8-3.9S376.7,297.9,376.8,297.9Z"/><path class="cls-5" d="M375.1,298s.4,1.6.8,3.6l.7,3.7a26.8,26.8,0,0,1-.8-3.6C375.4,299.7,375.1,298,375.1,298Z"/><path class="cls-5" d="M373.5,298.3c.2.7.3,1.4.5,2.1l.3,2.2c-.2-.7-.3-1.4-.5-2.1Z"/><path class="cls-2" d="M320,304.8h0Z"/><path class="cls-2" d="M320.9,303.7h0Z"/><path class="cls-2" d="M322.3,302.5h0Z"/><path class="cls-2" d="M323.3,301.3h0Z"/><path class="cls-2" d="M324.9,300.2h0Z"/><path class="cls-2" d="M326.6,299.1h0Z"/><g class="cls-3"><path class="cls-7" d="M310.6,271s1.1-.4.8-1.2a15.4,15.4,0,0,0,7.2,1.8c4.2-.1,19.4.9,19.4.9l1.7,2.5s-25.7-.6-26.7.1Z"/></g><g class="cls-3"><path class="cls-7" d="M300.9,273c-.2,0,6.6,2.5,7.5,3.2l1.4-.3-4.9-8.5h-.5S302.7,273,300.9,273Z"/></g><g class="cls-3"><path class="cls-7" d="M317.2,247.1c.2,0,26.5-1.2,26.5-1.5s-11.8-.3-16.9,0A53.2,53.2,0,0,0,317.2,247.1Z"/></g><g class="cls-8"><path class="cls-7" d="M307.8,261.7l18.7-4.9,3.5-8.2-15.1.7a.5.5,0,0,0-.5.3Z"/></g><path class="cls-2" d="M354.5,251.9c0,.2-4.8,2-10.9,4.1s-10.9,3.7-11,3.5,4.8-1.9,10.9-4S354.4,251.8,354.5,251.9Z"/><path class="cls-2" d="M364.6,251.6c0,.1-4.8,1.9-10.8,4s-11,3.7-11,3.6,4.8-2,10.8-4.1S364.5,251.4,364.6,251.6Z"/></g><g id="freepik--car-2--inject-2"><rect class="cls-2" x="103.3" y="290.1" width="16.8" height="30.76"/><rect class="cls-2" x="196.6" y="290.1" width="17.6" height="30.76"/><rect class="cls-2" x="104.1" y="242.1" width="4.6" height="3.78"/><path class="cls-2" d="M100,248.8h0a4.6,4.6,0,0,1-4.6-4.6h0v-5.7a4.6,4.6,0,0,1,4.6-4.6h0a4.7,4.7,0,0,1,4.6,4.6h0v5.7a4.7,4.7,0,0,1-4.6,4.6Z"/><rect class="cls-2" x="206.4" y="242.1" width="4.6" height="3.78"/><path class="cls-2" d="M215,248.8h0a4.6,4.6,0,0,0,4.6-4.6h0v-5.7a4.6,4.6,0,0,0-4.6-4.6h0a4.6,4.6,0,0,0-4.5,4.6v5.7A4.6,4.6,0,0,0,215,248.8Z"/><path class="cls-9" d="M123.1,197.9a6.9,6.9,0,0,0-5.7,3.1,12.6,12.6,0,0,0-1.8,3.2c-.8,2.6-5.1,13-8.5,38.9-1.3,8-2.3,17.2-3.2,27l-1.1,9.2,110.2.5s-3.2-31.3-3.9-36.7-9.3-41.3-9.3-41.3.3-2.9-5.5-3.9S137,197.7,123.1,197.9Z"/><g class="cls-3"><polygon points="128.4 260 188.1 260 210.8 258.2 213 279.2 187 279.8 102.8 279.3 104.2 267.3 105.1 258.2 128.4 260"/></g><path class="cls-5" d="M118.6,215.4s-4.4.2-6.1,8.5-3.1,21.8-3.1,21.8H207l-5-24.2s-.6-4.1-6.2-6.1S121,213.1,118.6,215.4Z"/><polygon class="cls-2" points="109.4 245.7 109.8 242.1 206 242.1 207 245.7 109.4 245.7"/><path class="cls-2" d="M207,245.7v1.5c0,1-.1,2.4-.1,4.3-.1,3.7-.3,9.1-.5,15.8H109.3c0-6.4.1-11.6.1-15.2v0c0,3.6,0,8.8.1,15.2h96.6c.2-6.7.4-12.1.6-15.8.1-1.9.1-3.3.2-4.3v-1.1A.6.6,0,0,1,207,245.7Z"/><path class="cls-10" d="M188.1,260c-.1.3,0,11.9,0,11.9s19.5,1,23.8-3.8l-1.1-9.9Z"/><path class="cls-2" d="M188.1,260h1.7l4.6-.4,16.4-1.4h.2v.2c.3,3.1.7,6.4,1.1,9.9H212a6.1,6.1,0,0,1-1.5,1.2,21.6,21.6,0,0,1-6.1,1.9q-3,.4-6,.6a88.5,88.5,0,0,1-10.3.1H188V260.8a1.9,1.9,0,0,1,.1-.8v3.2c0,2,0,5,.1,8.7h-.1a88.5,88.5,0,0,0,10.3-.2,56.1,56.1,0,0,0,5.9-.6,21.6,21.6,0,0,0,6.1-1.9l1.4-1.1h-.1c-.3-3.5-.7-6.8-1-9.9h.1l-16.3,1.3-4.7.3h-1.7Z"/><path class="cls-10" d="M128,260c.1.3,0,11.9,0,11.9s-19.5,1-23.8-3.8l1.1-9.9Z"/><path class="cls-2" d="M128,260h-1.7l-4.7-.3-16.3-1.3h.1c-.3,3.1-.7,6.4-1.1,9.9h0l1.4,1.1a21,21,0,0,0,6,1.9l6,.7c3.4.2,6.9.2,10.3.1h-.1c0-3.7.1-6.6.1-8.7V260c0,.2.1.5.1.8v11.1H128a90.2,90.2,0,0,1-10.4-.1,56.1,56.1,0,0,1-5.9-.6,22.3,22.3,0,0,1-6.2-1.9,7.9,7.9,0,0,1-1.5-1.2h0c.4-3.5.8-6.8,1.1-9.9h.1l16.4,1.3,4.7.4,1.3.2Z"/><path class="cls-2" d="M102.8,279.3s-1,14.4,1.4,23.2a6.6,6.6,0,0,0,6.4,4.7h96.9a5.1,5.1,0,0,0,4.8-3.2c1.5-4,3.2-10.7.7-24.8H102.8Z"/><g class="cls-3"><path d="M105.5,284.1c.4.2,1.3,6.4,5.7,7.4s11.7.4,11.7.4v-7.8Z"/></g><path class="cls-7" d="M119.2,288a3.6,3.6,0,0,1-7.1,0,3.6,3.6,0,0,1,3.6-3.6h0a3.5,3.5,0,0,1,3.5,3.5Z"/><g class="cls-3"><path d="M206.8,284.1c-.3.2-1.3,6.5-5.7,7.5s-11.7.4-11.7.4v-7.9Z"/></g><path class="cls-7" d="M193.1,288a3.6,3.6,0,1,0,3.5-3.5h0A3.5,3.5,0,0,0,193.1,288Z"/><path class="cls-5" d="M131.3,284.1v6.1a6,6,0,0,0,6,6h41.5a5.9,5.9,0,0,0,5.9-6h0v-5.8Z"/><g class="cls-3"><path d="M178.8,293.7H137.3a5.9,5.9,0,0,1-6-5.9h0v2.5a6,6,0,0,0,6,6h41.5a6,6,0,0,0,6-6h0v-2.5a5.9,5.9,0,0,1-6,5.9Z"/></g><path class="cls-2" d="M134.6,267.3s-2.8,1.1-3.3,5.4,5.4,6.6,5.4,6.6h45.5a11.2,11.2,0,0,0,2.5-6.6c.2-3.8-3.5-5.4-3.5-5.4Z"/><path class="cls-2" d="M199.5,202.7c0,.1-18.6.2-41.5.2s-41.6-.1-41.6-.2h83.1Z"/><path class="cls-5" d="M213,279.3a51.4,51.4,0,0,1,.9,6.1,61.2,61.2,0,0,1,.4,7.4,32.1,32.1,0,0,1-1.4,9.7c-.1.4-.3.8-.4,1.3a4.7,4.7,0,0,1-.7,1.2,4.5,4.5,0,0,1-2.2,1.9l-1.5.4H110.9a6.1,6.1,0,0,1-3-.5,6.5,6.5,0,0,1-3.7-4.2,51.9,51.9,0,0,1-1.5-9.6c-.2-2.9-.2-5.4-.2-7.4s.1-3.6.2-4.7.1-.9.1-1.2v1.2c-.1,1.1-.1,2.7-.1,4.7s0,4.5.2,7.3a50.6,50.6,0,0,0,1.5,9.6,6.5,6.5,0,0,0,3.6,4,7.2,7.2,0,0,0,2.9.6h97.2a4.7,4.7,0,0,0,3.6-2.1,5.2,5.2,0,0,0,.6-1.3l.5-1.2a35.4,35.4,0,0,0,1.4-9.6c0-2.5-.1-4.9-.3-7.4q-.2-1.5-.3-2.7c-.1-.7-.2-1.4-.3-1.9s-.1-.9-.2-1.2S213,279.3,213,279.3Z"/><path class="cls-5" d="M213,279.3H109c0-.1,23.3-.2,52-.2S213,279.1,213,279.3Z"/><path class="cls-2" d="M143,234.5c0-.1,8.8-3.4,19.7-7.3s19.9-7,20-6.8-8.8,3.4-19.8,7.3S143,234.7,143,234.5Z"/><path class="cls-2" d="M130,235.4c-.1-.1,8.8-3.4,19.7-7.3s19.9-7,19.9-6.8-8.8,3.4-19.7,7.3S130,235.6,130,235.4Z"/><g class="cls-8"><path class="cls-7" d="M113.6,232.4l18.1-6.6,4.8-10.3-15.2.8a6.4,6.4,0,0,0-4.1,1.8h-.1a6.6,6.6,0,0,0-1.9,3.7Z"/></g></g><rect class="cls-11" x="64.3" y="140.7" width="374.4" height="31.55"/><rect class="cls-5" x="130.7" y="147.3" width="41.5" height="20.38"/><rect class="cls-4" x="177.6" y="147.3" width="20.7" height="20.38" rx="2.5"/><path class="cls-2" d="M151.6,167.1c-.1,0-.2-4.3-.2-9.6s.1-9.7.2-9.7.3,4.3.3,9.7S151.8,167.1,151.6,167.1Z"/><path class="cls-4" d="M148.1,158.1a7,7,0,1,1-7-7A7,7,0,0,1,148.1,158.1Z"/><path class="cls-2" d="M168.6,158.1a7,7,0,1,1-6.9-7A6.9,6.9,0,0,1,168.6,158.1Z"/><rect class="cls-12" x="33.2" y="108.5" width="418.7" height="32.2"/><path class="cls-7" d="M189.3,153.6v9.3h-2.1v-7.6h-1.9v-1.7Z"/><rect class="cls-5" x="303.3" y="147.3" width="41.5" height="20.38"/><rect class="cls-4" x="350.3" y="147.3" width="20.7" height="20.38" rx="2.5"/><path class="cls-2" d="M324.3,167.1c-.2,0-.3-4.3-.3-9.6s.1-9.7.3-9.7.2,4.3.2,9.7S324.4,167.1,324.3,167.1Z"/><path class="cls-2" d="M320.7,158.1a7,7,0,1,1-7-7A6.9,6.9,0,0,1,320.7,158.1Z"/><path class="cls-5" d="M341.3,158.1a7,7,0,1,1-7-7A6.9,6.9,0,0,1,341.3,158.1Z"/><path class="cls-7" d="M365.4,161.2v1.7h-7.1v-1.4l3.6-3.4a5.7,5.7,0,0,0,.8-.9,3.1,3.1,0,0,0,.2-.8,1.3,1.3,0,0,0-.4-.9,1.8,1.8,0,0,0-1.1-.3,2,2,0,0,0-1.1.3,1.3,1.3,0,0,0-.9.7l-1.6-1.1a4,4,0,0,1,1.6-1.2,4.8,4.8,0,0,1,2.2-.5,4.8,4.8,0,0,1,1.8.3,4,4,0,0,1,1.2,1,2.5,2.5,0,0,1,.5,1.5,3.3,3.3,0,0,1-.4,1.4,4,4,0,0,1-1.2,1.5l-2.2,2.1Z"/><rect class="cls-10" x="38.2" y="187.4" width="57.7" height="124.62"/><rect class="cls-11" x="38.2" y="197.8" width="57.7" height="51.95"/><g class="cls-3"><rect x="53.2" y="187.4" width="29" height="124.62"/></g><rect class="cls-10" x="57.5" y="154.2" width="20.1" height="157.83"/><path class="cls-2" d="M77.6,312v-.8a22,22,0,0,0-.1-2.3v-9.1c0-7.9,0-19.3-.1-33.4,0-28.4,0-67.8-.1-112.2l.3.3H57.5l.3-.3c-.1,69.1-.1,129-.2,157.8h-.2c0-28.8-.1-88.7-.1-157.8v-.3H77.8v.3c0,44.5,0,84-.1,112.4v33.3c-.1,3.9-.1,7-.1,9V312Z"/><path class="cls-11" d="M79.3,312H56.1V280.4a11.5,11.5,0,0,1,11.6-11.6h0a11.5,11.5,0,0,1,11.6,11.6Z"/><path class="cls-4" d="M191,285.1H67.8c-3.2,0-5.7-2.1-5.7-4.6h0c0-2.5,2.5-4.5,5.7-4.5H191c3.2,0,5.7,2.1,5.7,4.5h0C196.7,283,194.2,285.1,191,285.1Z"/><g class="cls-13"><path class="cls-7" d="M66.6,277.5a3.1,3.1,0,1,1,0,6.1,3.1,3.1,0,0,1,0-6.1Z"/></g><polygon class="cls-7" points="74.1 285.1 80.9 276 92.1 276 84.8 285.1 74.1 285.1"/><polygon class="cls-7" points="98 285.1 104.8 276 116 276 108.7 285.1 98 285.1"/><polygon class="cls-7" points="121.9 285.1 128.7 276 139.9 276 132.6 285.1 121.9 285.1"/><polygon class="cls-7" points="145.8 285.1 152.6 276 163.8 276 156.5 285.1 145.8 285.1"/><polygon class="cls-7" points="169.6 285.1 176.4 276 187.5 276 180.3 285.1 169.6 285.1"/><path class="cls-2" d="M191,285.1h.7a4.6,4.6,0,0,0,2-.5l1.3-.7,1.1-1.2c1.4-2.2.3-4.9-2.6-6.1l-1.5-.4a9.7,9.7,0,0,0-1.7,0H67.8a5.6,5.6,0,0,0-5.4,3.1,3.2,3.2,0,0,0-.2,1.4,5.9,5.9,0,0,0,.2,1.3,5.9,5.9,0,0,0,5.3,3.1h0a5.9,5.9,0,0,1-5.5-3.2,3.4,3.4,0,0,1,0-2.8,5.8,5.8,0,0,1,5.6-3.3H192c3.1.4,5.3,2.8,4.8,5.3a4.2,4.2,0,0,1-.6,1.4,6.8,6.8,0,0,1-1.2,1.2l-1.2.8-2.1.5Z"/><rect class="cls-10" x="42.1" y="140.7" width="48.2" height="22.97"/><path class="cls-2" d="M90.3,163.6V162c0-1.1-.1-2.6-.1-4.6,0-4,0-9.7-.1-16.7l.2.2H42.1l.2-.2h0v22.8l-.2-.2h-.3V140.8h0l.3-.3H90.5v.2c0,7.1-.1,12.8-.1,16.8v4.6a5.4,5.4,0,0,0-.1,1.1Z"/><rect class="cls-7" x="33.2" y="312" width="65.5" height="8.45"/><rect class="cls-4" x="33.2" y="312" width="5.6" height="8.45"/><rect class="cls-4" x="44.5" y="312" width="5.6" height="8.45"/><rect class="cls-4" x="55.9" y="312" width="5.6" height="8.45"/><rect class="cls-4" x="67.2" y="312" width="5.6" height="8.45"/><rect class="cls-4" x="78.5" y="312" width="5.6" height="8.45"/><rect class="cls-4" x="89.8" y="312" width="5.6" height="8.45"/><path class="cls-2" d="M98.8,320.5a1.5,1.5,0,0,1-.1-.6v-1.6c0-1.5,0-3.6-.1-6.3h.2l-65.6.2h0l.3-.3h0v8.2l-.3-.3H33v-8.4h0l.2-.2H98.9c-.1,2.8-.1,4.9-.1,6.4v2.1Z"/><rect class="cls-10" x="223.6" y="187.4" width="57.7" height="124.62"/><rect class="cls-11" x="223.6" y="197.8" width="57.7" height="51.95"/><g class="cls-3"><rect x="238.7" y="187.4" width="29" height="124.62"/></g><rect class="cls-10" x="243" y="154.2" width="20.1" height="157.83"/><path class="cls-2" d="M263.1,312a2.8,2.8,0,0,1-.1-.8V299.8c0-7.9-.1-19.3-.1-33.4,0-28.4-.1-67.8-.1-112.2l.3.3H243l.3-.3c-.1,69.1-.2,129-.2,157.8h-.2c-.1-28.8-.1-88.7-.2-157.8v-.3h20.6v.3c0,44.5-.1,84-.1,112.4,0,14.1-.1,25.5-.1,33.3V312Z"/><path class="cls-11" d="M264.8,312H241.6V280.4a11.5,11.5,0,0,1,11.6-11.6h0a11.5,11.5,0,0,1,11.6,11.6Z"/><path class="cls-4" d="M341.4,197l-83.8,90.3c-2.1,2.3-5.4,2.8-7.2,1.1h0c-1.8-1.7-1.6-4.9.6-7.2l83.8-90.4c2.1-2.3,5.4-2.8,7.2-1.1h0C343.8,191.4,343.6,194.7,341.4,197Z"/><g class="cls-13"><path class="cls-7" d="M251.3,283a3,3,0,0,1,4.3-.1,3,3,0,1,1-4.2,4.4A3,3,0,0,1,251.3,283Z"/></g><polygon class="cls-7" points="261.9 282.7 259.9 271.5 267.5 263.4 269.2 274.8 261.9 282.7"/><polygon class="cls-7" points="278.2 265.1 276.2 254 283.7 245.8 285.5 257.3 278.2 265.1"/><polygon class="cls-7" points="294.4 247.6 292.4 236.5 300 228.3 301.7 239.8 294.4 247.6"/><polygon class="cls-7" points="310.7 230.1 308.7 218.9 316.3 210.8 318 222.3 310.7 230.1"/><polygon class="cls-7" points="326.8 212.7 324.8 201.5 332.4 193.4 334.1 204.8 326.8 212.7"/><path class="cls-2" d="M341.4,197h.1l.4-.5a10.4,10.4,0,0,0,1-1.8l.3-1.4a5,5,0,0,0-.2-1.7c-.6-2.5-3.4-3.5-6.1-2.2a4.2,4.2,0,0,0-1.4.9,6.8,6.8,0,0,0-1.2,1.2l-3.6,3.9L318.9,208,251,281.2c-1.6,1.8-2.2,4.2-1.3,6a3.6,3.6,0,0,0,.8,1.2,3.5,3.5,0,0,0,1.2.7,5.9,5.9,0,0,0,5.8-1.8l7.1-7.7,18.1-19.4,30.5-33,20.6-22.1,5.6-6,1.5-1.6.5-.5-.5.5-1.5,1.6-5.6,6-20.5,22.2-30.5,32.9-25.2,27.2a5.9,5.9,0,0,1-6.1,1.8,2.9,2.9,0,0,1-1.2-.7,2.7,2.7,0,0,1-.9-1.2c-.9-1.9-.3-4.4,1.4-6.3l68-73.2,11.7-12.6,3.7-4,1.2-1.2c2.4-2,5.6-2,7.1.1a3.5,3.5,0,0,1,.6,1.4,4.7,4.7,0,0,1,.1,1.7,3.9,3.9,0,0,1-.3,1.4,6.4,6.4,0,0,1-1,1.8Z"/><rect class="cls-10" x="227.6" y="140.7" width="48.2" height="22.97"/><path class="cls-2" d="M275.8,163.6v-.4a5.7,5.7,0,0,0-.1-1.2v-4.6c0-4-.1-9.7-.1-16.7l.2.2H227.6l.2-.2h0v22.8l-.2-.2h-.3V140.8h0c-.1,0,.5-.5.3-.3H276v.2c-.1,7.1-.1,12.8-.1,16.8,0,2-.1,3.5-.1,4.6v1.5Z"/><rect class="cls-7" x="218.7" y="312" width="65.5" height="8.45"/><rect class="cls-4" x="218.7" y="312" width="5.6" height="8.45"/><rect class="cls-4" x="230" y="312" width="5.6" height="8.45"/><rect class="cls-4" x="241.3" y="312" width="5.6" height="8.45"/><rect class="cls-4" x="252.6" y="312" width="5.6" height="8.45"/><rect class="cls-4" x="264" y="312" width="5.6" height="8.45"/><rect class="cls-4" x="275.3" y="312" width="5.6" height="8.45"/><path class="cls-2" d="M284.2,320.5v-2.2c0-1.5-.1-3.6-.1-6.3h.1l-65.5.2h0l.3-.3h0v8.2l-.3-.3h-.3v-8.4h0c0,.1.5-.5.3-.2h65.7c-.1,2.8-.1,4.9-.1,6.4V320A1.8,1.8,0,0,0,284.2,320.5Z"/><rect class="cls-10" x="403.3" y="187.4" width="57.7" height="124.62"/><rect class="cls-11" x="403.3" y="197.8" width="57.7" height="51.95"/><g class="cls-3"><rect x="418.4" y="187.4" width="29" height="124.62"/></g><rect class="cls-10" x="422.7" y="154.2" width="20.1" height="157.83"/><path class="cls-2" d="M442.7,312V299.8c0-7.9-.1-19.3-.1-33.4,0-28.4-.1-67.8-.1-112.2l.2.3h-20l.3-.3c-.1,69.1-.2,129-.2,157.8h-.2c-.1-28.8-.1-88.7-.2-157.8v-.3H443v.3c0,44.5-.1,84-.1,112.4,0,14.1-.1,25.5-.1,33.3v11.4A1.7,1.7,0,0,1,442.7,312Z"/><path class="cls-11" d="M444.5,312H421.3V280.4a11.5,11.5,0,0,1,11.6-11.6h0a11.5,11.5,0,0,1,11.6,11.6Z"/><rect class="cls-10" x="407.2" y="140.7" width="48.2" height="22.97"/><path class="cls-2" d="M455.5,163.6v-.4c0-.3-.1-.7-.1-1.2v-4.6c0-4-.1-9.7-.1-16.7l.2.2H407.3l.2-.2h0v22.8l-.3-.2H407V140.8h0c-.1,0,.5-.5.3-.3h48.4v.2c-.1,7.1-.1,12.8-.1,16.8-.1,2-.1,3.5-.1,4.6v1.5Z"/><rect class="cls-7" x="398.4" y="312.3" width="65.5" height="8.45"/><rect class="cls-4" x="398.4" y="312.3" width="5.6" height="8.45"/><rect class="cls-4" x="409.7" y="312.3" width="5.6" height="8.45"/><rect class="cls-4" x="421" y="312.3" width="5.6" height="8.45"/><rect class="cls-4" x="432.3" y="312.3" width="5.6" height="8.45"/><rect class="cls-4" x="443.7" y="312.3" width="5.6" height="8.45"/><rect class="cls-4" x="455" y="312.3" width="5.6" height="8.45"/><path class="cls-2" d="M463.9,320.8v-2.2c0-1.5-.1-3.6-.1-6.3v.2H398.4l.3-.3h0v8.2l-.3-.3h-.3v-8.4h0c0,.1.5-.5.3-.2H464v8A1.8,1.8,0,0,0,463.9,320.8Z"/><g class="cls-3"><path class="cls-7" d="M341.3,158.1a7,7,0,1,1-7-7A6.9,6.9,0,0,1,341.3,158.1Z"/></g><use transform="translate(158.7 58.4) scale(0.18)" xlink:href="#image"/><rect class="cls-6" x="338.5" y="249.7" width="8" height="3.67"/><rect class="cls-6" x="424.1" y="290.5" width="8" height="3.67"/><rect class="cls-6" x="155.8" y="215.5" width="8" height="3.67"/><use transform="translate(161.5 49.6) scale(0.18)" xlink:href="#image"/><use transform="translate(161.5 49.6) scale(0.18)" xlink:href="#image"/></g></svg>