<svg xmlns="http://www.w3.org/2000/svg" xmlns:xlink="http://www.w3.org/1999/xlink" viewBox="0 0 353.47 404.38"><defs><style>.cls-1{fill:none;clip-rule:evenodd;}.cls-2{fill:#fadbc0;}.cls-10,.cls-12,.cls-13,.cls-2,.cls-3,.cls-4,.cls-6,.cls-8,.cls-9{fill-rule:evenodd;}.cls-14,.cls-3,.cls-7,.cls-8,.cls-9{fill:#fff;}.cls-4{fill:#ebc9ab;}.cls-5{fill:#e69a06;}.cls-6{fill:#02336d;}.cls-8{opacity:0.5;}.cls-9{opacity:0.3;}.cls-10{fill:#001e50;}.cls-11{clip-path:url(#clip-path);}.cls-12{fill:#ffb200;}.cls-13{fill:#f2cc64;}.cls-14{font-size:20.52px;font-family:MyriadPro-Regular, Myriad Pro;}.cls-15{letter-spacing:0.01em;}.cls-16{letter-spacing:0em;}.cls-17{letter-spacing:-0.01em;}</style><clipPath id="clip-path"><polygon id="SVGID" class="cls-1" points="323.63 311.78 353.48 392.74 250.68 392.74 234.24 347.38 323.63 311.78"/></clipPath></defs><g id="Layer_2" data-name="Layer 2"><g id="Layer_2-2" data-name="Layer 2"><path class="cls-2" d="M59.43,257.19l63,20.68,10.77-34.78C161.16,241.57,169,198,181,173L93.84,146Z"/><polygon class="cls-3" points="55.86 238.58 131.24 261.92 106.31 342.44 23.71 342.44 55.86 238.58"/><path class="cls-4" d="M93.05,177c5.72.28,9.22,3.37,9.23,6.93l-.1-33L108,125.24c1.83-7.5-4.26-14.53-10.59-17.37,4.62,3.41,9,8.13,7.56,14.81C102.52,134.05,93.24,176.62,93.05,177Z"/><rect class="cls-5" x="96.97" width="105.67" height="208" rx="8.22"/><path class="cls-6" d="M100.82,8.58H199a.35.35,0,0,1,.35.34v190.6a.35.35,0,0,1-.35.34H100.82a.35.35,0,0,1-.35-.34V8.92A.35.35,0,0,1,100.82,8.58Z"/><path class="cls-3" d="M131.58,3h27.93a1.38,1.38,0,0,1,1.38,1.38h0a1.37,1.37,0,0,1-1.38,1.37H131.58a1.37,1.37,0,0,1-1.37-1.37h0A1.38,1.38,0,0,1,131.58,3Z"/><circle class="cls-7" cx="168.04" cy="4.36" r="1.38"/><polygon class="cls-3" points="150.19 125.49 161.98 141.94 138.41 141.94 150.19 125.49"/><polygon class="cls-8" points="150.19 146.19 161.98 162.64 138.41 162.64 150.19 146.19"/><polygon class="cls-9" points="150.19 166.89 161.98 183.34 138.41 183.34 150.19 166.89"/><path class="cls-2" d="M222,278.06l27,64.38h57.22c2.52-2.25,5-4.55,7.41-6.91l-27.89-69.59Z"/><polygon class="cls-3" points="305.83 293.06 325.1 342.44 295.58 392.74 260.51 392.74 234.57 321.44 305.83 293.06"/><path class="cls-2" d="M165.69,227.63l31.15,44.21c4,5.69,36.14,32.13,42.14,28.6S225.23,268.6,221.07,263L197.2,233.08C183.51,215.91,171.74,223.09,165.69,227.63Z"/><path class="cls-2" d="M175.32,139.77l25.1,57.33c2-10.39,17.83-12,23.56-2.18.59-10.92,15.36-13.64,22.28-5.77,2.21-10,18.08-10.94,22.77-.34l21.49,48.59c6,13.65,6.41,34.46,3.67,44-8.13,28.27-45.49,29.16-58.64,20.48-10.25-6.77-18.31-10.47-21.64-17.72L152.35,149.57C144.54,132.57,169.28,125.62,175.32,139.77Z"/><path class="cls-4" d="M254.51,205.84s-4.07-9.72-7.73-18.34a10.59,10.59,0,0,0-.52,1.65,12.24,12.24,0,0,0-2-1.83c4.56,8.39,10.24,18.52,10.24,18.52Zm-54-9a10,10,0,0,1,.92-2.54c4.06,9.67,10.63,26.37,10.63,26.37s-8.38-16.43-11.62-23.53c.05.11.07,0,.07-.3Zm20.44-5.42a12.83,12.83,0,0,1,3,3.54,11.22,11.22,0,0,1,.3-2.07c4.13,9.5,9.19,21.3,9.19,21.3S225.59,200.18,220.93,191.38Z"/><path class="cls-8" d="M172.19,140.36l2.14,4.92c-3.89,7-9.84,9.31-17.51,7.72l-2.13-4.67C148.91,135.62,167.75,129.78,172.19,140.36Z"/><path class="cls-8" d="M168.89,225.9c-1.09.54-2.15,1.12-3.2,1.73l10.73,15.23C180.78,238,173.64,230.61,168.89,225.9Z"/><polygon class="cls-4" points="186.31 223.83 201.51 257.05 182 223.12 186.31 223.83"/><polygon class="cls-10" points="323.63 311.78 353.48 392.74 250.68 392.74 234.24 347.38 323.63 311.78"/><g class="cls-11"><path class="cls-12" d="M249.68,358.38a4.29,4.29,0,1,1-.81,6A4.28,4.28,0,0,1,249.68,358.38Z"/><path class="cls-12" d="M255.59,374.71a4.28,4.28,0,1,1-.81,6A4.28,4.28,0,0,1,255.59,374.71Z"/><path class="cls-12" d="M261.51,391a4.29,4.29,0,1,1-.81,6A4.3,4.3,0,0,1,261.51,391Z"/><polygon class="cls-12" points="256.12 338.56 277.9 398.68 280.78 397.64 258.99 337.52 256.12 338.56"/><polygon class="cls-13" points="261.96 404.38 280.78 397.64 279.75 394.77 260.94 401.51 261.96 404.38"/></g><polygon class="cls-10" points="41.73 259.51 132.44 287.6 99.48 392.74 0 392.74 41.73 259.51"/><path class="cls-2" d="M79.55,230.65l7.06-24.53,20.32-76.42c4.17-15.72-6.44-21.27-16.24-24.3l-21,81.47C65.76,201.92,69.54,224.53,79.55,230.65Z"/><path class="cls-8" d="M94.12,119.75c-1.13-.43-2.28-.82-3.43-1.18l-3.93,18.17C93.28,136.65,93.87,126.42,94.12,119.75Z"/><path class="cls-12" d="M112.47,305.74a4.29,4.29,0,1,0-4.29-4.29A4.29,4.29,0,0,0,112.47,305.74Z"/><path class="cls-12" d="M107.27,322.31A4.29,4.29,0,1,0,103,318,4.3,4.3,0,0,0,107.27,322.31Z"/><path class="cls-12" d="M102.08,338.88a4.29,4.29,0,1,0-4.29-4.29A4.29,4.29,0,0,0,102.08,338.88Z"/><polygon class="cls-12" points="106.45 279.56 87.33 340.57 84.41 339.67 103.54 278.65 106.45 279.56"/><polygon class="cls-12" points="103.5 345.57 84.41 339.67 85.31 336.75 104.39 342.66 103.5 345.57"/><text class="cls-14" transform="translate(113.59 49.39)"><tspan xml:space="preserve">  </tspan><tspan class="cls-15" x="8.7" y="0">M</tspan><tspan x="25.32" y="0">obile </tspan><tspan class="cls-16" x="-3.82" y="24.62">R</tspan><tspan x="7.3" y="24.62">echa</tspan><tspan class="cls-17" x="48.05" y="24.62">r</tspan><tspan x="54.59" y="24.62">ge</tspan></text></g></g></svg>