<svg xmlns="http://www.w3.org/2000/svg" xmlns:xlink="http://www.w3.org/1999/xlink" viewBox="0 0 1474.02 1063.72"><defs><style>.cls-1,.cls-11,.cls-17,.cls-20,.cls-22{fill:none;stroke-miterlimit:10;}.cls-1{stroke:#a0d0d9;}.cls-2{fill:#b6603d;}.cls-3{opacity:0.09;}.cls-4{fill:#b52f09;}.cls-5{fill:#f5f5f5;}.cls-6{fill:#686868;}.cls-7{fill:#e05150;}.cls-8{fill:#479d4f;}.cls-9{opacity:0.15;}.cls-10{fill:#1e3fd1;}.cls-11,.cls-20{stroke:#0e1d61;}.cls-11{stroke-width:0.32px;}.cls-12{fill:#c0e2e8;}.cls-13{fill:url(#linear-gradient);}.cls-14{fill:#e87a71;}.cls-15{fill:#e0c180;}.cls-16{fill:#09343d;}.cls-17,.cls-22{stroke:#0b184f;}.cls-17{stroke-width:0.5px;}.cls-18{fill:#c2392d;}.cls-19{fill:#0e1d61;}.cls-20{stroke-width:0.3px;}.cls-21{fill:#0b184f;}.cls-22{stroke-width:0.35px;}</style><linearGradient id="linear-gradient" x1="364.23" y1="394.84" x2="370.43" y2="341.43" gradientUnits="userSpaceOnUse"><stop offset="0" stop-color="#344dbf" stop-opacity="0"/><stop offset="1" stop-color="#344dbf"/></linearGradient></defs><g id="Layer_2" data-name="Layer 2"><g id="Layer_2-2" data-name="Layer 2"><rect class="cls-1" x="391.5" y="22.45" width="600.26" height="216" rx="8"/><path class="cls-2" d="M1150.37,707.44a97.45,97.45,0,0,0,0-25.23h-23.55a76.41,76.41,0,0,0-3.82-14.28l20.42-11.79a99.73,99.73,0,0,0-12.64-21.83l-20.34,11.74A77,77,0,0,0,1100,635.56l11.74-20.33a99.73,99.73,0,0,0-21.83-12.64L1078.08,623a76,76,0,0,0-14.29-3.82V595.64a97.45,97.45,0,0,0-25.23,0v23.55a75.65,75.65,0,0,0-14.28,3.82l-11.79-20.42a100,100,0,0,0-21.84,12.64l11.74,20.33a77,77,0,0,0-10.48,10.49l-20.33-11.74a99.77,99.77,0,0,0-12.65,21.83l20.43,11.79a75.65,75.65,0,0,0-3.82,14.28H952a97.45,97.45,0,0,0,0,25.23h23.55a76,76,0,0,0,3.82,14.29l-20.43,11.79a100.17,100.17,0,0,0,12.65,21.83l20.33-11.74a77.53,77.53,0,0,0,10.48,10.49l-11.74,20.33a100,100,0,0,0,21.84,12.64l11.79-20.42a76.41,76.41,0,0,0,14.28,3.82V794a97.45,97.45,0,0,0,25.23,0V770.47a76.72,76.72,0,0,0,14.29-3.82l11.79,20.42a99.73,99.73,0,0,0,21.83-12.64L1100,754.1a77.53,77.53,0,0,0,10.48-10.49l20.34,11.74a99.73,99.73,0,0,0,12.64-21.83L1123,721.73a76.72,76.72,0,0,0,3.82-14.29Zm-99.19,22a34.57,34.57,0,1,1,34.56-34.57A34.57,34.57,0,0,1,1051.18,729.4Z"/><rect class="cls-3" x="295.6" y="111.73" width="919.11" height="566.9" rx="8"/><rect class="cls-4" x="288.86" y="102.55" width="919.11" height="566.9" rx="8"/><path class="cls-4" d="M1186,102.55H919.67V669.46H1186a22,22,0,0,0,22-22V124.57A22,22,0,0,0,1186,102.55Z"/><path class="cls-5" d="M415.81,585.34v29a67.53,67.53,0,0,1-55.36-106.24l23.77,16.63a38.53,38.53,0,0,0,31.59,60.59Z"/><path class="cls-5" d="M483.11,541.22c.18,1.85.25,3.71.25,5.59a67.55,67.55,0,0,1-67.55,67.55v-29a38.52,38.52,0,0,0,38.53-38.53,31.36,31.36,0,0,0-.16-3.21Z"/><path class="cls-2" d="M483.11,541.22l-28.93,2.38a38.2,38.2,0,0,0-9.42-22.21l21.8-19.16A67.16,67.16,0,0,1,483.11,541.22Z"/><path class="cls-2" d="M415.81,479.25v29a38.44,38.44,0,0,0-31.59,16.47l-23.77-16.63A67.35,67.35,0,0,1,415.81,479.25Z"/><path class="cls-2" d="M466.56,502.23l-21.8,19.16a38.42,38.42,0,0,0-28.95-13.11v-29A67.39,67.39,0,0,1,466.56,502.23Z"/><path class="cls-5" d="M603.48,479.25v29a38.54,38.54,0,0,0-38.56,38.53,37.4,37.4,0,0,0,.61,6.83L537,558.78a64.76,64.76,0,0,1-1.09-12A67.56,67.56,0,0,1,603.48,479.25Z"/><path class="cls-5" d="M573,570.44l-22.9,17.77A66.44,66.44,0,0,1,537,558.78l28.52-5.14A38.1,38.1,0,0,0,573,570.44Z"/><path class="cls-2" d="M636.16,567.16l24.63,15.36a67.5,67.5,0,0,1-110.66,5.69L573,570.44a38.51,38.51,0,0,0,63.13-3.28Z"/><path class="cls-5" d="M641.68,551.84l28.72,3.81a66.5,66.5,0,0,1-9.61,26.87l-24.63-15.36A37.6,37.6,0,0,0,641.68,551.84Z"/><path class="cls-5" d="M671,546.81a64.55,64.55,0,0,1-.61,8.84l-28.72-3.81a38.06,38.06,0,0,0,.33-5,38.54,38.54,0,0,0-38.53-38.53v-29A67.56,67.56,0,0,1,671,546.81Z"/><path class="cls-2" d="M791.11,585.34v29a67.53,67.53,0,0,1-60-98.59l25.75,13.32a38.52,38.52,0,0,0,34.21,56.25Z"/><path class="cls-2" d="M829,554l28.49,5.37a67.55,67.55,0,0,1-66.38,55v-29A38.53,38.53,0,0,0,829,554Z"/><path class="cls-5" d="M858.66,546.81a67.37,67.37,0,0,1-1.17,12.53L829,554a39.24,39.24,0,0,0,.66-7.16,38.5,38.5,0,0,0-18.07-32.64L827,489.6A67.44,67.44,0,0,1,858.66,546.81Z"/><path class="cls-5" d="M791.11,479.25A67.1,67.1,0,0,1,827,489.6l-15.43,24.57a38.33,38.33,0,0,0-20.48-5.89Z"/><path class="cls-5" d="M791.11,479.25v29a38.5,38.5,0,0,0-34.21,20.81l-25.75-13.32A67.44,67.44,0,0,1,791.11,479.25Z"/><ellipse class="cls-6" cx="203.32" cy="1001.02" rx="203.32" ry="59.86"/><rect class="cls-3" x="386.58" y="710.95" width="539.79" height="236.52" rx="8.16"/><rect class="cls-5" x="379.89" y="704.94" width="539.79" height="236.52" rx="8.16"/><rect class="cls-7" x="793.22" y="735.99" width="74.83" height="17.39" rx="1.25"/><rect class="cls-2" x="702.86" y="735.99" width="74.83" height="17.39" rx="1.25"/><path class="cls-2" d="M402.36,941.46H897.2A22.47,22.47,0,0,0,919.67,919V741.74L793.22,871l-52.94-41.8-62.44,44.13-72.38-95.21L499.8,872.56l-37.93-36.38-51.09,59.61-30.89-37.43V919A22.47,22.47,0,0,0,402.36,941.46Z"/><path class="cls-2" d="M379.89,919a22.47,22.47,0,0,0,22.47,22.48h8.42V895.79l-30.89-37.43Z"/><polygon class="cls-2" points="461.87 836.18 499.8 872.56 499.8 941.46 461.87 941.46 461.87 836.18"/><polygon class="cls-2" points="605.46 778.13 677.84 873.34 677.84 941.46 605.46 941.46 605.46 778.13"/><polygon class="cls-2" points="740.28 829.22 793.22 871.01 793.22 941.46 740.28 941.46 740.28 829.22"/><path class="cls-7" d="M415.31,895.38a4.53,4.53,0,1,1-4.53-4.53A4.53,4.53,0,0,1,415.31,895.38Z"/><path class="cls-7" d="M504.33,872a4.53,4.53,0,1,1-4.53-4.53A4.53,4.53,0,0,1,504.33,872Z"/><circle class="cls-7" cx="677.84" cy="873.34" r="4.53"/><path class="cls-7" d="M797.75,871a4.53,4.53,0,1,1-4.53-4.52A4.53,4.53,0,0,1,797.75,871Z"/><path class="cls-8" d="M744.81,829.21a4.53,4.53,0,1,1-4.53-4.52A4.53,4.53,0,0,1,744.81,829.21Z"/><circle class="cls-8" cx="605.46" cy="778.13" r="4.53"/><path class="cls-8" d="M466.4,836.18a4.53,4.53,0,1,1-4.53-4.53A4.53,4.53,0,0,1,466.4,836.18Z"/><rect class="cls-9" x="233.4" y="79.92" width="634.75" height="354.01" rx="8.82"/><rect class="cls-5" x="226.76" y="73.62" width="634.75" height="354.01" rx="8"/><line class="cls-4" x1="272.05" y1="123.42" x2="272.05" y2="427.63"/><rect class="cls-4" x="268.93" y="222.5" width="6.23" height="127.34"/><line class="cls-4" x1="285.32" y1="123.42" x2="285.32" y2="427.63"/><rect class="cls-4" x="282.2" y="196.96" width="6.23" height="65"/><line class="cls-4" x1="298.59" y1="123.42" x2="298.59" y2="427.63"/><rect class="cls-4" x="295.48" y="151.29" width="6.23" height="127.34"/><line class="cls-4" x1="311.86" y1="123.42" x2="311.86" y2="427.63"/><rect class="cls-4" x="308.75" y="189.02" width="6.23" height="127.34"/><line class="cls-4" x1="325.14" y1="123.42" x2="325.14" y2="427.63"/><rect class="cls-4" x="322.02" y="181.86" width="6.23" height="73.8"/><line class="cls-4" x1="338.41" y1="123.42" x2="338.41" y2="427.63"/><rect class="cls-4" x="335.29" y="201.6" width="6.23" height="67.36"/><line class="cls-4" x1="351.68" y1="123.42" x2="351.68" y2="427.63"/><rect class="cls-4" x="348.35" y="215.56" width="6.23" height="65.96"/><line class="cls-4" x1="364.95" y1="123.42" x2="364.95" y2="427.63"/><rect class="cls-4" x="361.84" y="262.81" width="6.23" height="87.03"/><line class="cls-4" x1="378.23" y1="123.42" x2="378.23" y2="427.63"/><line class="cls-4" x1="391.5" y1="123.42" x2="391.5" y2="427.63"/><rect class="cls-4" x="388.39" y="286.17" width="6.23" height="63.67"/><line class="cls-4" x1="404.77" y1="123.42" x2="404.77" y2="427.63"/><rect class="cls-4" x="401.66" y="222.5" width="6.23" height="104.48"/><line class="cls-4" x1="418.05" y1="123.42" x2="418.05" y2="427.63"/><rect class="cls-4" x="414.93" y="178.99" width="6.23" height="107.18"/><line class="cls-4" x1="431.32" y1="123.42" x2="431.32" y2="427.63"/><rect class="cls-4" x="428.2" y="171.61" width="6.23" height="54.42"/><line class="cls-4" x1="444.59" y1="123.42" x2="444.59" y2="427.63"/><rect class="cls-4" x="441.48" y="187.32" width="6.23" height="78.15"/><line class="cls-4" x1="457.86" y1="123.42" x2="457.86" y2="427.63"/><rect class="cls-4" x="454.75" y="222.5" width="6.23" height="81.28"/><line class="cls-4" x1="471.14" y1="123.42" x2="471.14" y2="427.63"/><rect class="cls-4" x="468.02" y="198.82" width="6.23" height="82.7"/><line class="cls-4" x1="484.41" y1="123.42" x2="484.41" y2="427.63"/><rect class="cls-4" x="481.29" y="188.44" width="6.23" height="53.02"/><line class="cls-4" x1="497.68" y1="123.42" x2="497.68" y2="427.63"/><rect class="cls-4" x="494.57" y="198.29" width="6.23" height="112.2"/><line class="cls-4" x1="510.96" y1="123.42" x2="510.96" y2="427.63"/><rect class="cls-4" x="507.84" y="194.49" width="6.23" height="103.87"/><line class="cls-4" x1="524.23" y1="123.42" x2="524.23" y2="427.63"/><rect class="cls-4" x="521.11" y="176.51" width="6.23" height="28.71"/><line class="cls-4" x1="537.5" y1="123.42" x2="537.5" y2="427.63"/><rect class="cls-4" x="534.39" y="190.72" width="6.23" height="54.81"/><line class="cls-4" x1="550.77" y1="123.42" x2="550.77" y2="427.63"/><rect class="cls-4" x="547.66" y="201.02" width="6.23" height="42.96"/><line class="cls-4" x1="564.05" y1="123.42" x2="564.05" y2="427.63"/><rect class="cls-4" x="560.93" y="220.75" width="6.23" height="46.46"/><line class="cls-4" x1="577.32" y1="123.42" x2="577.32" y2="427.63"/><rect class="cls-4" x="574.2" y="217.86" width="6.23" height="57.67"/><line class="cls-4" x1="590.59" y1="123.42" x2="590.59" y2="427.63"/><rect class="cls-4" x="587.48" y="213.86" width="6.23" height="55.86"/><line class="cls-4" x1="603.86" y1="123.42" x2="603.86" y2="427.63"/><rect class="cls-4" x="600.75" y="222.5" width="6.23" height="31.89"/><line class="cls-4" x1="617.14" y1="123.42" x2="617.14" y2="427.63"/><rect class="cls-4" x="614.02" y="229.92" width="6.23" height="61.09"/><line class="cls-4" x1="630.41" y1="123.42" x2="630.41" y2="427.63"/><rect class="cls-4" x="627.3" y="247.34" width="6.23" height="109.39"/><line class="cls-4" x1="643.68" y1="123.42" x2="643.68" y2="427.63"/><rect class="cls-4" x="640.57" y="254.33" width="6.23" height="88.56"/><line class="cls-4" x1="656.96" y1="123.42" x2="656.96" y2="427.63"/><rect class="cls-4" x="653.84" y="250.63" width="6.23" height="30.9"/><line class="cls-4" x1="670.23" y1="123.42" x2="670.23" y2="427.63"/><rect class="cls-4" x="667.11" y="226.39" width="6.23" height="36.42"/><line class="cls-4" x1="683.5" y1="123.42" x2="683.5" y2="427.63"/><rect class="cls-4" x="680.39" y="232.58" width="6.23" height="96.75"/><line class="cls-4" x1="696.77" y1="123.42" x2="696.77" y2="427.63"/><rect class="cls-4" x="693.66" y="283.65" width="6.23" height="90.5"/><line class="cls-4" x1="710.05" y1="123.42" x2="710.05" y2="427.63"/><line class="cls-4" x1="723.32" y1="123.42" x2="723.32" y2="427.63"/><rect class="cls-4" x="720.2" y="294.01" width="6.23" height="60.25"/><line class="cls-4" x1="736.59" y1="123.42" x2="736.59" y2="427.63"/><rect class="cls-4" x="733.48" y="262.15" width="6.23" height="72.94"/><line class="cls-4" x1="749.86" y1="123.42" x2="749.86" y2="427.63"/><rect class="cls-4" x="746.75" y="181.21" width="6.23" height="102.44"/><line class="cls-4" x1="763.14" y1="123.42" x2="763.14" y2="427.63"/><rect class="cls-4" x="760.02" y="162.72" width="6.23" height="81.88"/><line class="cls-4" x1="776.41" y1="123.42" x2="776.41" y2="427.63"/><rect class="cls-4" x="773.3" y="163.47" width="6.23" height="36.26"/><line class="cls-4" x1="789.68" y1="123.42" x2="789.68" y2="427.63"/><rect class="cls-4" x="786.57" y="181.6" width="6.23" height="44.12"/><line class="cls-4" x1="802.96" y1="123.42" x2="802.96" y2="427.63"/><rect class="cls-4" x="799.84" y="154.74" width="6.23" height="52.94"/><line class="cls-4" x1="816.23" y1="123.42" x2="816.23" y2="427.63"/><rect class="cls-4" x="813.11" y="168.91" width="6.23" height="61.01"/><rect class="cls-4" x="706.93" y="310.49" width="6.23" height="71.18"/><path class="cls-4" d="M839.49,73.62H248.78a22,22,0,0,0-22,22v39.91H861.51V95.64A22,22,0,0,0,839.49,73.62Z"/><rect class="cls-10" x="374.86" y="322.57" width="6.23" height="68.32"/><polygon class="cls-5" points="1015.63 436.75 967.96 369.67 920.3 436.75 946.78 436.75 946.78 526.9 989.14 526.9 989.14 436.75 1015.63 436.75"/><polygon class="cls-5" points="1112.92 404.65 1062.28 333.38 1011.64 404.65 1039.78 404.65 1039.78 500.43 1084.79 500.43 1084.79 404.65 1112.92 404.65"/><path class="cls-10" d="M412.32,408.34H299.86c-3.82,0-6.08-3.09-5-6.91l21.93-81a9.72,9.72,0,0,1,8.79-6.91H438c3.82,0,6.07,3.1,5,6.91l-21.94,81A9.7,9.7,0,0,1,412.32,408.34Z"/><path class="cls-11" d="M411.17,403.26H303.75a2.81,2.81,0,0,1-2.78-3.81l20.86-77a5.35,5.35,0,0,1,4.85-3.81H434.11a2.82,2.82,0,0,1,2.78,3.81l-20.87,77A5.35,5.35,0,0,1,411.17,403.26Z"/><path class="cls-12" d="M411.17,403.26H303.75a2.81,2.81,0,0,1-2.78-3.81l20.86-77a5.35,5.35,0,0,1,4.85-3.81H434.11a2.82,2.82,0,0,1,2.78,3.81l-20.87,77A5.35,5.35,0,0,1,411.17,403.26Z"/><path class="cls-13" d="M416,399.45,434.3,332l-28.47,28.6-1.43-8.22L375.34,386l-.8-7.75-5,4.84-1.08-31.73L343,372.68l-2.66-10.15L317,379.26l-2.18-8.38-7.57,5.4L301,399.45a2.81,2.81,0,0,0,2.78,3.81H411.17A5.35,5.35,0,0,0,416,399.45Z"/><path class="cls-7" d="M422.43,330.69H399.79A1.84,1.84,0,0,1,398,328.2l.46-1.67a3.49,3.49,0,0,1,3.16-2.49h22.64a1.84,1.84,0,0,1,1.82,2.49l-.46,1.67A3.49,3.49,0,0,1,422.43,330.69Z"/><path class="cls-8" d="M390.3,330.69H367.66a1.84,1.84,0,0,1-1.81-2.49l.45-1.67a3.5,3.5,0,0,1,3.17-2.49h22.64a1.84,1.84,0,0,1,1.81,2.49l-.45,1.67A3.49,3.49,0,0,1,390.3,330.69Z"/><path class="cls-14" d="M442.63,392l2.45-12.9s2.83-22-9.68-29.47l-2,7.63a4.51,4.51,0,0,1-5.86,3.13l-10.34-3.61-.53,1.74a3,3,0,0,0,1.9,3.76c2.26.79,5.14,2.1,5.6,3.79.77,2.84.79,7.48,6.59,10.45L425,382.76Z"/><path class="cls-15" d="M420.45,384.33l7.55-6.19s15.29,1.94,17.22,17.42l-7,13.93Z"/><path d="M65,958.44,55,975.47S58.83,991,69.67,997.92a137.49,137.49,0,0,1,14.67,11.15,28.68,28.68,0,0,0,16.32,6.91c7,.59,15.28.95,16.74-.51,2.58-2.58-16.25-18.58-16.25-18.58l-8.78-19.35.78-16.78Z"/><path d="M252.48,987.47l-4.55,23.78a11.26,11.26,0,0,0,9.08,13.22,42.5,42.5,0,0,0,10.56.41c15.49-1.16,20.9-5.94,34.06-8.39s29.81-12.89,28.26-18.31-39.09-7-39.09-7l-6.2-8.62Z"/><path class="cls-2" d="M297.76,577.85l5.82,183.46L287.7,988.11s-24,7-40.25,0c0,0-10.84-159.46-5.42-222.93l-37.93-178Z"/><path class="cls-2" d="M217.31,558.35,171.76,756.06,98.5,971.3s-15.16-8-38.92-10.28c0,0,30.24-156.94,51.68-216.93l10.79-190.23Z"/><path class="cls-2" d="M297.76,577.85l-86.92,8.62,6.47-28.12-95.26-4.49-6.53,115.08c20.64-8,51.51-18.31,82.85-28.37L207.26,602l7.13,33.47c33.62-10.65,65.82-20.44,84.37-26Z"/><path class="cls-16" d="M136.28,286.41C112.5,285,99.21,296.62,88.93,322.53c-11.07,27.92-24.69,82-35.56,112.33C41.93,466.77,63.6,514,134.46,490.77Z"/><path class="cls-16" d="M134.46,490.77l.44-48.91-13.23-24.65S93.74,487.28,55,472C64.56,492,89.68,505.44,134.46,490.77Z"/><path class="cls-14" d="M200.45,221.62l4.47,14.44s7.73,8.6,7.73,18.57a33,33,0,0,1-1.71,10.55,7.55,7.55,0,0,1-8.07,5l-3.28-.39-4,22.7H159.18l9.8-33.88,17.71-34Z"/><path d="M205.26,207.17c-5.67-2.4-8.62,4.16-24.24,3.1-17.71-1.2-28.43,8.6-24.25,19.77-11.35,13.78-.19,26.71,5.11,31.62a8.65,8.65,0,0,1,2.71,5.76l.35,5.11s16.25,1,26.56-10.85a17.94,17.94,0,0,0,3.82-7.6,6.28,6.28,0,0,1-4.47,1.93,7.07,7.07,0,0,1,0-14.1,6.31,6.31,0,0,1,5.12,2.72,61.27,61.27,0,0,0-4.47-18C209.9,226.26,210.93,209.58,205.26,207.17Z"/><path class="cls-16" d="M420.45,384.33l-58.83,42.58L299.89,329a91.42,91.42,0,0,0-77.3-42.63H136.28a25.12,25.12,0,0,0-25,27.64l18.77,186.39-29.42,78.44a260.2,260.2,0,0,0,60.84,22.79l10.38-38.78L176,604.61c78.25,13.3,133-17.86,133-17.86l-13.55-71.21L290,462.13s11.46,18.4,19,29c20.51,29,66.57,22.06,81.28,3.09s53-80.12,53-80.12C442.52,390.14,420.45,384.33,420.45,384.33Z"/><polygon class="cls-16" points="290.02 462.13 251.32 382.4 303.58 558.35 295.44 515.54 290.02 462.13"/><polyline class="cls-17" points="162.3 359.66 180.08 487.29 174.68 549.21"/><line class="cls-17" x1="121.67" y1="417.21" x2="114.19" y2="342.96"/><ellipse class="cls-6" cx="1270.69" cy="1003.86" rx="203.32" ry="59.86"/><path class="cls-14" d="M1178.67,636.91s19.35,231,20.12,262.71,1.06,55.45-4.64,65.8c-4.13,7.48-13.68,22.7-13.68,22.7s-19.61,12.9-19.09,16.52,16.77-.26,27.09-2.07,28.9-24,28.9-24v26.57h6.19s0-13.67,3.61-21.16,3.87-22.19-3.61-29.41c0,0,14.45-91.44,20.64-133.06s-4.39-87-4.39-104.07,6.34-79.08,6.34-79.08Z"/><path class="cls-14" d="M1276.38,636.91s59.72,231,66,262.71,10.75,55.45,6.85,65.8c-2.82,7.48-9.71,22.7-9.71,22.7s-17.36,12.9-16.21,16.52,16.73-.26,26.73-2.07,24.71-24,24.71-24l4.64,26.57h6.2s-2.39-13.67-.09-21.16,0-22.19-8.75-29.41c0,0-1.53-91.44-2.61-133.06s-19.6-87-22.58-104.07-7.48-79.08-7.48-79.08Z"/><path class="cls-18" d="M1351.6,717.45c-3-17-7.48-79.08-7.48-79.08l-67.74-1.46s9.41,36.39,21.15,82.26c20,8.81,41.24,18.91,63,30.4C1356.49,735.68,1352.79,724.28,1351.6,717.45Z"/><path class="cls-18" d="M1178.67,636.91s1.31,15.7,3.27,39.46c14.59,4.37,34.88,10.89,59,19.85,1.82-24.52,5.23-57.85,5.23-57.85Z"/><path class="cls-5" d="M1200.18,331.88l-24.72-1.94a3.76,3.76,0,0,1-3.36-3.38l-3.39-48a2.63,2.63,0,0,1,2.92-2.89l24.72,1.94a3.78,3.78,0,0,1,3.36,3.38l3.38,48A2.62,2.62,0,0,1,1200.18,331.88Z"/><path class="cls-19" d="M1177.63,281.21a1.58,1.58,0,0,1-1.75,1.73,2.27,2.27,0,0,1-2-2,1.58,1.58,0,0,1,1.75-1.73A2.27,2.27,0,0,1,1177.63,281.21Z"/><polygon class="cls-19" points="1188.81 282.91 1179.27 282.16 1179.16 280.5 1188.69 281.25 1188.81 282.91"/><line class="cls-20" x1="1196.08" y1="281.7" x2="1199.57" y2="327.77"/><path d="M1237.76,242.4s-14.7-2.12-21.78,9.7c-6.71,11.2-2,22.71,0,30.68,1.16,4.77.5,12.43-.22,17.81a5.14,5.14,0,0,0,5.43,5.78l38.71-2.51s28.16,1.24,31.17-9.57-13.29-15.92-13.29-27.45C1277.78,254.09,1269.64,229.47,1237.76,242.4Z"/><path class="cls-14" d="M1151.19,348.86l17.15-25.16.78-18.57s2.32-22.84,3.74-23,1.55,19.48,1.55,19.48,13.93-10.06,15.48-9.16-13,13.9-13,13.9,16.64-3.83,18.19-2.42-15.87,6.46-15.87,6.46,13.81,0,13.93,1.29-11.09,2.06-11.09,2.06,2.06,14.19-4.77,16.9L1173.17,356Z"/><path class="cls-2" d="M1185.89,481.62s-23.74,57-9.55,168.23h176.73s-7.2-109.4-39.71-165.14L1251,430.14l-32.12,15.24Z"/><path class="cls-21" d="M1359.69,615.22h-72.17l4.14-22.4a12.16,12.16,0,0,1,12-10h40a12.16,12.16,0,0,1,12,10Zm-65.55-5.5h58.93l-2.94-15.9a6.67,6.67,0,0,0-6.55-5.45h-40a6.65,6.65,0,0,0-6.54,5.45Z"/><rect class="cls-4" x="1239.81" y="604.27" width="167.59" height="118.05"/><path class="cls-2" d="M1372.69,704.78h-98.17A26.67,26.67,0,0,1,1248,680.94l-8.19-76.67H1407.4l-8.2,76.67A26.66,26.66,0,0,1,1372.69,704.78Z"/><path class="cls-14" d="M1316.45,556.66l-.9,9-7.34,19a9.65,9.65,0,0,0,0,6.8l.42,1.14a7.76,7.76,0,0,0,7.28,5.07h8.56a7.5,7.5,0,0,0,6.73-4.2l2.07-4.23-2.19-3.92s6.45-13,.77-18.87l2.34-10.32Z"/><path class="cls-16" d="M1329.87,331.19c-15.48-18.32-56.55-27.93-56.55-27.93l-25.71,1.3c-37.88,12.6-67,50.88-67,50.88l-31.74-11.22s-24,48.38-26.32,66.12,12.78,27.54,33.68,24.44,42.57-36.11,42.57-36.11l5.42,7.09L1181,490.13c8.35,1.28,17.21,2.19,26.27,2.82a23,23,0,0,0,24-17.93l5.35-24.13L1249.88,483a17.29,17.29,0,0,0,16.53,10.67c31.33-1,52.55-3.58,52.55-3.58l-27.52-58.06Z"/><path class="cls-5" d="M1262.65,300.48c13.36-2.13,34.84,25,34.84,25l-35.42,19.35,11.81,8.66s-32.13,10.11-36.38,18.62a52.78,52.78,0,0,0-14.91-22.25l11.23-7.74-14.9-18S1238,304.41,1262.65,300.48Z"/><polygon class="cls-21" points="1295.01 359.7 1291.44 432.07 1311.51 379.38 1295.01 359.7"/><path class="cls-14" d="M1239,252.1s.2,15.48,20.9,19c0,0,1.75-6.68,7.16-5.42,6.17,1.43,3.68,12.58-2.12,12l5.56,27.28s-25.11,38.13-29.75,53.22c-2.52-17,8.51-47.41,8.51-47.41l-1.74-12a13.87,13.87,0,0,1-11.61-1.16c-6.29-3.48-5.81-11.61-6.87-16.16a122.82,122.82,0,0,0-4.55-13.06S1231.69,254.52,1239,252.1Z"/><path class="cls-18" d="M1247.56,298.74c5.61-1.84,10-9.19,11.32-12.58.1,7.84-4.54,17.73-10.15,20.62Z"/><polyline class="cls-22" points="1237.5 372.08 1222.53 406.27 1234.91 448.59"/><line class="cls-22" x1="1180.6" y1="355.44" x2="1166.86" y2="406.92"/><path class="cls-21" d="M1179.36,421.55a140.52,140.52,0,0,0,19.43-22.88c-3.87-5.3-2.9-22,4.26-36.16C1188.2,378.25,1187.76,406.81,1179.36,421.55Z"/><path class="cls-16" d="M1295,358.15l15.13,93.68V559.57h28s11-67.85,13.75-113.25-11.89-101-22-115.13C1329.87,331.19,1295.65,343.48,1295,358.15Z"/><path class="cls-5" d="M1233.1,409.67a2.76,2.76,0,1,1-2.76-2.75A2.77,2.77,0,0,1,1233.1,409.67Z"/><rect class="cls-5" x="1261.49" y="457.43" width="35.61" height="4.45"/><polygon class="cls-5" points="1214.96 461.88 1189.12 461.88 1189.99 457.43 1214.96 457.43 1214.96 461.88"/><path d="M1223.56,1005.15s0-13.67,3.61-21.16,3.87-22.19-3.61-29.41c-8.9-5.61-24,23.61-24,23.61s-6.41-.76-10.12-4.7c-4.24,7.08-9,14.63-9,14.63s-19.61,12.9-19.09,16.52,16.77-.26,27.09-2.07,28.9-24,28.9-24v26.57Z"/><path d="M1385.63,1005.15s-2.39-13.67-.09-21.16,0-22.19-8.75-29.41c-9.88-5.61-19.87,23.61-19.87,23.61s-6.54-.76-10.94-4.7c-3,7.08-6.42,14.63-6.42,14.63s-17.36,12.9-16.21,16.52,16.73-.26,26.73-2.07,24.71-24,24.71-24l4.64,26.57Z"/><circle class="cls-1" cx="176.3" cy="46.36" r="45.86" transform="translate(-4.48 69.78) rotate(-22.11)"/></g></g></svg>