<svg xmlns="http://www.w3.org/2000/svg" viewBox="0 0 1790.26 1348.55"><defs><style>.cls-1,.cls-10{fill:#b6603d;}.cls-1{opacity:0.36;}.cls-2,.cls-38{fill:#b52f09;}.cls-13,.cls-3{fill:#fff;}.cls-31,.cls-4{fill:#e5f0f8;}.cls-5{fill:#bbdbf3;}.cls-6{fill:#586773;}.cls-7{fill:#40a87b;}.cls-8{fill:#f74242;}.cls-12,.cls-23,.cls-24,.cls-25,.cls-26,.cls-28,.cls-29,.cls-32,.cls-33,.cls-34,.cls-35,.cls-36,.cls-37,.cls-9{fill:none;}.cls-25,.cls-29,.cls-34,.cls-37,.cls-9{stroke:#fff;}.cls-23,.cls-25,.cls-26,.cls-28,.cls-32,.cls-34,.cls-35,.cls-36,.cls-9{stroke-linecap:round;stroke-linejoin:round;}.cls-9{stroke-width:7.26px;}.cls-11{fill:#d34513;}.cls-12,.cls-13{stroke:#bbdbf3;}.cls-12,.cls-13,.cls-24,.cls-29,.cls-33,.cls-37{stroke-miterlimit:10;}.cls-12{stroke-width:3.09px;}.cls-13{stroke-width:5.63px;}.cls-14{fill:#0775ef;}.cls-15{fill:#fdae97;}.cls-16{fill:#21484f;}.cls-17{fill:#e89780;}.cls-18{fill:#d6eaff;}.cls-19{fill:#93acbf;}.cls-20{fill:#ea9d85;}.cls-21{fill:#322a28;}.cls-22{fill:#332b27;}.cls-23,.cls-32{stroke:#ea9d85;}.cls-23{stroke-width:1.43px;}.cls-24,.cls-33{stroke:#332b27;}.cls-24{stroke-width:0.91px;}.cls-25,.cls-26{stroke-width:0.74px;}.cls-26,.cls-35{stroke:#322a28;}.cls-27{fill:#fff1f0;}.cls-28,.cls-36{stroke:#fff1f0;}.cls-28{stroke-width:1.13px;}.cls-29{stroke-width:1.64px;}.cls-30{fill:#09343d;}.cls-31{opacity:0.3;}.cls-32{stroke-width:1.42px;}.cls-33{stroke-width:0.91px;}.cls-34,.cls-35{stroke-width:0.74px;}.cls-36{stroke-width:1.13px;}.cls-37{stroke-width:1.63px;}.cls-38{font-size:78.98px;font-family:MyriadPro-Regular, Myriad Pro;}</style></defs><g id="Layer_2" data-name="Layer 2"><g id="Layer_2-2" data-name="Layer 2"><path class="cls-1" d="M161.11,1315.51S-409.94-20.92,638,69.54c448.84,38.75,365,273.81,563.29,493.74,128.49,142.56,375.62,25.94,468.23,150.51s-16.22,479.78-54.4,601.72Z"/><rect class="cls-2" y="1309.14" width="1716.5" height="39.41" rx="19.7"/><path class="cls-3" d="M191.32,816.66H89.66a11,11,0,0,0-11,11v58.52a11,11,0,0,0,11,11h40.87v13.21h-26.9a1,1,0,0,0-.95.95v3.38a1,1,0,0,0,.95,1h73.72a1,1,0,0,0,1-1v-3.38a1,1,0,0,0-1-.95h-26.9V897.12h40.87a11,11,0,0,0,11-11V827.63A11,11,0,0,0,191.32,816.66Z"/><path class="cls-3" d="M654,206.18H884.84a6.39,6.39,0,0,0,6.4-6c.7-12.76-.72-41.35-27.61-41.37-29.77,0-39.44,12.7-39.44,12.7s2.61-51.78-48.37-51.7c-46.92.07-64,48.12-64,48.12S666.91,146.76,648,197.47A6.44,6.44,0,0,0,654,206.18Z"/><polygon class="cls-4" points="769.49 138.73 752 162.8 760.45 162.8 760.45 187.24 778.52 187.24 778.52 162.8 786.98 162.8 769.49 138.73"/><path class="cls-5" d="M2.05,150.91V147L24.37,135v5.9L9.46,149l14.91,8.1V163Z"/><path class="cls-5" d="M436.84,471.73v-5.9l14.91-8.11-14.91-8.11v-5.9l22.32,12.08v3.86Z"/><rect class="cls-5" x="32.64" y="144.42" width="88.74" height="9.12"/><rect class="cls-5" x="2.05" y="179.65" width="88.74" height="9.12"/><rect class="cls-5" x="20.96" y="204.19" width="88.74" height="9.12"/><rect class="cls-5" x="20.96" y="271.74" width="88.74" height="9.12"/><rect class="cls-5" x="20.96" y="292.64" width="88.74" height="9.12"/><rect class="cls-5" x="51.45" y="227.57" width="267.63" height="9.12"/><rect class="cls-5" x="51.45" y="314.84" width="357.53" height="9.12"/><rect class="cls-5" x="51.45" y="384.74" width="357.53" height="9.12"/><rect class="cls-5" x="85.08" y="453.16" width="342.53" height="9.12"/><rect class="cls-5" x="51.45" y="408.49" width="76.58" height="9.12"/><rect class="cls-5" x="51.45" y="431.08" width="76.58" height="9.12"/><rect class="cls-5" x="51.45" y="337.15" width="357.53" height="9.12"/><rect class="cls-5" x="51.45" y="359.46" width="193.44" height="9.12"/><rect class="cls-5" x="51.45" y="248.58" width="82.06" height="9.12"/><rect class="cls-6" x="913.84" y="981.68" width="218.13" height="294.85"/><rect class="cls-6" x="346.33" y="225.74" width="1353.16" height="880.93" rx="138.45"/><rect class="cls-4" x="627.47" y="34.65" width="790.88" height="1263.11" rx="86.54" transform="translate(1689.11 -356.7) rotate(90)"/><path class="cls-5" d="M1609.43,345.84v41.38H436.37V345.84a30.09,30.09,0,0,1,30.05-30.06H1579.37A30.1,30.1,0,0,1,1609.43,345.84Z"/><path class="cls-3" d="M1609.42,387.24v601a30.09,30.09,0,0,1-30,30.12h-1113a30.09,30.09,0,0,1-30-30.12v-601Z"/><circle class="cls-7" cx="500.44" cy="353.77" r="11.52" transform="translate(-112.29 341.39) rotate(-34.1)"/><circle class="cls-3" cx="532.87" cy="353.77" r="11.52" transform="matrix(0.83, -0.56, 0.56, 0.83, -106.72, 359.57)"/><circle class="cls-8" cx="565.3" cy="353.77" r="11.52" transform="translate(91.11 822.67) rotate(-76.72)"/><rect class="cls-6" x="608.95" y="1251.22" width="827.92" height="57.85" rx="12.03"/><line class="cls-9" x1="1523.97" y1="371.13" x2="1563.23" y2="331.87"/><line class="cls-9" x1="1563.23" y1="371.13" x2="1523.97" y2="331.87"/><rect class="cls-4" x="1483.64" y="423.53" width="97.37" height="38.05"/><rect class="cls-4" x="1364.28" y="423.53" width="97.37" height="38.05"/><rect class="cls-4" x="1244.92" y="423.53" width="97.37" height="38.05"/><rect class="cls-4" x="1125.56" y="423.53" width="97.37" height="38.05"/><path class="cls-2" d="M751.93,494.5a157.56,157.56,0,0,0-72.88-59.37L619.61,582.45Z"/><path class="cls-10" d="M625.93,423.79c-2.1-.09-4.19-.26-6.32-.26a158.86,158.86,0,0,0-29.71,2.82l29.71,156.1,59.44-147.32A157.93,157.93,0,0,0,625.93,423.79Z"/><path class="cls-10" d="M778.41,577.66c-.11-3.84-.41-7.64-.79-11.41a158.05,158.05,0,0,0-25.69-71.75l-132.32,88,156.23,29a159.72,159.72,0,0,0,2.7-29C778.54,580.84,778.46,579.25,778.41,577.66Z"/><path class="cls-11" d="M619.61,582.45,589.9,426.35c-2.92.55-5.81,1.16-8.66,1.87a158.93,158.93,0,1,0,194.6,183.27Z"/><rect class="cls-11" x="798.6" y="423.53" width="64.75" height="64.75"/><rect class="cls-4" x="875.17" y="423.53" width="169.28" height="11.6"/><rect class="cls-4" x="875.17" y="444.3" width="169.28" height="11.6"/><rect class="cls-4" x="875.17" y="465.07" width="87.7" height="11.6"/><rect class="cls-2" x="798.6" y="502.99" width="64.75" height="64.75"/><rect class="cls-4" x="875.17" y="502.99" width="169.28" height="11.6"/><rect class="cls-4" x="875.17" y="523.76" width="169.28" height="11.6"/><rect class="cls-4" x="875.17" y="544.53" width="87.7" height="11.6"/><rect class="cls-10" x="798.6" y="582.45" width="64.75" height="64.75"/><rect class="cls-4" x="875.17" y="582.45" width="169.28" height="11.6"/><rect class="cls-4" x="875.17" y="603.22" width="169.28" height="11.6"/><rect class="cls-4" x="875.17" y="624" width="87.7" height="11.6"/><rect class="cls-11" x="798.6" y="661.91" width="64.75" height="64.75"/><rect class="cls-4" x="875.17" y="661.91" width="169.28" height="11.6"/><rect class="cls-4" x="875.17" y="682.68" width="169.28" height="11.6"/><rect class="cls-4" x="875.17" y="703.46" width="87.7" height="11.6"/><rect class="cls-5" x="460.69" y="767.4" width="583.75" height="46.9"/><rect class="cls-4" x="460.69" y="814.3" width="583.75" height="167.38"/><rect class="cls-3" x="481.53" y="785.54" width="189.39" height="10.44"/><rect class="cls-3" x="682.46" y="785.54" width="128.25" height="10.44"/><rect class="cls-12" x="481.62" y="830.99" width="541.9" height="134.01"/><rect class="cls-12" x="481.62" y="830.99" width="47.02" height="134.01"/><rect class="cls-12" x="528.64" y="830.99" width="271.79" height="134.01"/><rect class="cls-12" x="980.63" y="830.99" width="42.89" height="134.01"/><rect class="cls-12" x="937.74" y="830.99" width="42.89" height="134.01"/><rect class="cls-12" x="884.15" y="830.99" width="53.59" height="134.01"/><rect class="cls-12" x="800.43" y="830.99" width="83.72" height="134.01"/><rect class="cls-12" x="481.62" y="870.95" width="541.9" height="31.35"/><rect class="cls-12" x="481.62" y="902.3" width="541.9" height="31.35"/><rect class="cls-12" x="481.62" y="933.65" width="541.9" height="31.35"/><rect class="cls-5" x="1072.41" y="387.22" width="23.97" height="631.08"/><rect class="cls-5" x="1125.56" y="476.67" width="222.49" height="11.6"/><rect class="cls-5" x="1125.56" y="552.99" width="222.49" height="11.6"/><rect class="cls-4" x="1125.56" y="503" width="455.45" height="7.39"/><rect class="cls-4" x="1125.56" y="519.32" width="455.45" height="7.39"/><rect class="cls-4" x="1125.56" y="580.97" width="455.45" height="7.16"/><rect class="cls-4" x="1125.56" y="596.78" width="455.45" height="7.16"/><rect class="cls-4" x="1125.56" y="612.6" width="455.45" height="7.16"/><rect class="cls-4" x="1125.56" y="628.41" width="455.45" height="7.16"/><rect class="cls-4" x="1125.56" y="644.22" width="455.45" height="7.16"/><rect class="cls-4" x="1125.56" y="660.03" width="455.45" height="7.16"/><rect class="cls-4" x="1125.56" y="675.85" width="455.45" height="7.16"/><rect class="cls-4" x="1125.56" y="691.66" width="455.45" height="7.16"/><rect class="cls-4" x="1125.56" y="707.47" width="455.45" height="7.16"/><rect class="cls-4" x="1125.56" y="741.37" width="455.45" height="7.16"/><rect class="cls-4" x="1125.56" y="757.18" width="455.45" height="7.16"/><rect class="cls-4" x="1125.56" y="773" width="455.45" height="7.16"/><rect class="cls-4" x="1125.56" y="788.81" width="179.8" height="7.16"/><rect class="cls-5" x="1096.38" y="817" width="513.05" height="32.62"/><rect class="cls-4" x="1125.56" y="829.23" width="112.35" height="8.16"/><rect class="cls-4" x="1249.18" y="829.23" width="112.35" height="8.16"/><rect class="cls-4" x="1372.8" y="829.23" width="112.35" height="8.16"/><rect class="cls-13" x="1376.94" y="935.88" width="70.27" height="55.47"/><rect class="cls-13" x="1202.83" y="935.88" width="174.11" height="55.47"/><rect class="cls-13" x="1139.54" y="935.88" width="63.28" height="55.47"/><rect class="cls-13" x="1447.2" y="935.88" width="57.28" height="55.47"/><rect class="cls-13" x="1504.49" y="935.88" width="61.78" height="55.47"/><rect class="cls-13" x="1376.94" y="880.41" width="70.27" height="55.47"/><rect class="cls-13" x="1202.83" y="880.41" width="174.11" height="55.47"/><rect class="cls-13" x="1139.54" y="880.41" width="63.28" height="55.47"/><rect class="cls-13" x="1447.2" y="880.41" width="57.28" height="55.47"/><rect class="cls-13" x="1504.49" y="880.41" width="61.78" height="55.47"/><rect class="cls-4" x="1222.92" y="902.86" width="133.92" height="10.58"/><rect class="cls-4" x="1222.92" y="958.32" width="133.92" height="10.58"/><rect class="cls-3" x="1096.38" y="368.58" width="522.1" height="649.74" rx="41.97"/><rect class="cls-2" x="155.76" y="984.26" width="853.08" height="324.78" rx="5.74"/><rect class="cls-10" x="177.7" y="984.26" width="853.08" height="324.78" rx="5.74"/><rect class="cls-14" x="211.47" y="1021.72" width="42.44" height="42.44" rx="5.87"/><rect class="cls-14" x="279.02" y="1021.72" width="42.44" height="42.44" rx="5.87"/><rect class="cls-14" x="346.58" y="1021.72" width="42.44" height="42.44" rx="5.87"/><rect class="cls-14" x="414.13" y="1021.72" width="42.44" height="42.44" rx="5.87"/><rect class="cls-14" x="481.68" y="1021.72" width="42.44" height="42.44" rx="5.87"/><rect class="cls-14" x="549.24" y="1021.72" width="42.44" height="42.44" rx="5.87"/><rect class="cls-14" x="616.79" y="1021.72" width="42.44" height="42.44" rx="5.87"/><rect class="cls-14" x="684.34" y="1021.72" width="42.44" height="42.44" rx="5.87"/><rect class="cls-14" x="751.9" y="1021.72" width="42.44" height="42.44" rx="5.87"/><rect class="cls-14" x="819.45" y="1021.72" width="42.44" height="42.44" rx="5.87"/><rect class="cls-14" x="887" y="1021.72" width="42.44" height="42.44" rx="5.87"/><rect class="cls-14" x="954.56" y="1021.72" width="42.44" height="42.44" rx="5.87"/><rect class="cls-14" x="211.47" y="1089.81" width="109.99" height="42.44" rx="9.44"/><rect class="cls-14" x="346.58" y="1089.81" width="42.44" height="42.44" rx="5.87"/><rect class="cls-14" x="414.13" y="1089.81" width="42.44" height="42.44" rx="5.87"/><rect class="cls-14" x="481.68" y="1089.81" width="42.44" height="42.44" rx="5.87"/><rect class="cls-14" x="549.24" y="1089.81" width="42.44" height="42.44" rx="5.87"/><rect class="cls-14" x="616.79" y="1089.81" width="42.44" height="42.44" rx="5.87"/><rect class="cls-14" x="684.34" y="1089.81" width="42.44" height="42.44" rx="5.87"/><rect class="cls-14" x="751.9" y="1089.81" width="42.44" height="42.44" rx="5.87"/><rect class="cls-14" x="887" y="1089.81" width="42.44" height="42.44" rx="5.87"/><rect class="cls-14" x="954.56" y="1089.81" width="42.44" height="42.44" rx="5.87"/><rect class="cls-14" x="211.47" y="1157.91" width="177.54" height="42.44" rx="12"/><rect class="cls-14" x="414.13" y="1157.91" width="42.44" height="42.44" rx="5.87"/><rect class="cls-14" x="481.68" y="1157.91" width="42.44" height="42.44" rx="5.87"/><rect class="cls-14" x="549.24" y="1157.91" width="42.44" height="42.44" rx="5.87"/><rect class="cls-14" x="616.79" y="1157.91" width="42.44" height="42.44" rx="5.87"/><rect class="cls-14" x="684.34" y="1157.91" width="42.44" height="42.44" rx="5.87"/><path class="cls-14" d="M853.68,1089.81h-26a8.22,8.22,0,0,0-8.21,8.21v59.89H759.67a7.77,7.77,0,0,0-7.77,7.77v26.89a7.77,7.77,0,0,0,7.77,7.77h94a8.21,8.21,0,0,0,8.21-8.21V1098A8.22,8.22,0,0,0,853.68,1089.81Z"/><rect class="cls-14" x="887" y="1157.91" width="42.44" height="42.44" rx="5.87"/><rect class="cls-14" x="954.56" y="1157.91" width="42.44" height="110.53" rx="9.47"/><rect class="cls-14" x="211.47" y="1226" width="42.44" height="42.44" rx="5.87"/><rect class="cls-14" x="279.02" y="1226" width="42.44" height="42.44" rx="5.87"/><rect class="cls-14" x="346.58" y="1226" width="42.44" height="42.44" rx="5.87"/><rect class="cls-14" x="414.13" y="1226" width="245.1" height="42.44" rx="14.1"/><rect class="cls-14" x="684.34" y="1226" width="42.44" height="42.44" rx="5.87"/><rect class="cls-14" x="751.9" y="1226" width="42.44" height="42.44" rx="5.87"/><rect class="cls-14" x="819.45" y="1226" width="42.44" height="42.44" rx="5.87"/><rect class="cls-14" x="887" y="1226" width="42.44" height="42.44" rx="5.87"/><rect class="cls-3" x="216.56" y="1021.72" width="42.44" height="42.44" rx="5.87"/><rect class="cls-3" x="284.11" y="1021.72" width="42.44" height="42.44" rx="5.87"/><rect class="cls-3" x="351.66" y="1021.72" width="42.44" height="42.44" rx="5.87"/><rect class="cls-3" x="419.22" y="1021.72" width="42.44" height="42.44" rx="5.87"/><rect class="cls-3" x="486.77" y="1021.72" width="42.44" height="42.44" rx="5.87"/><rect class="cls-3" x="554.32" y="1021.72" width="42.44" height="42.44" rx="5.87"/><rect class="cls-3" x="621.88" y="1021.72" width="42.44" height="42.44" rx="5.87"/><rect class="cls-3" x="689.43" y="1021.72" width="42.44" height="42.44" rx="5.87"/><rect class="cls-3" x="756.98" y="1021.72" width="42.44" height="42.44" rx="5.87"/><rect class="cls-3" x="824.54" y="1021.72" width="42.44" height="42.44" rx="5.87"/><rect class="cls-3" x="892.09" y="1021.72" width="42.44" height="42.44" rx="5.87"/><rect class="cls-3" x="959.64" y="1021.72" width="42.44" height="42.44" rx="5.87"/><rect class="cls-3" x="216.56" y="1089.81" width="109.99" height="42.44" rx="9.44"/><rect class="cls-3" x="351.66" y="1089.81" width="42.44" height="42.44" rx="5.87"/><rect class="cls-3" x="419.22" y="1089.81" width="42.44" height="42.44" rx="5.87"/><rect class="cls-3" x="486.77" y="1089.81" width="42.44" height="42.44" rx="5.87"/><rect class="cls-3" x="554.32" y="1089.81" width="42.44" height="42.44" rx="5.87"/><rect class="cls-3" x="621.88" y="1089.81" width="42.44" height="42.44" rx="5.87"/><rect class="cls-3" x="689.43" y="1089.81" width="42.44" height="42.44" rx="5.87"/><rect class="cls-3" x="756.98" y="1089.81" width="42.44" height="42.44" rx="5.87"/><rect class="cls-3" x="892.09" y="1089.81" width="42.44" height="42.44" rx="5.87"/><rect class="cls-3" x="959.64" y="1089.81" width="42.44" height="42.44" rx="5.87"/><rect class="cls-3" x="216.56" y="1157.91" width="177.54" height="42.44" rx="12"/><rect class="cls-3" x="419.22" y="1157.91" width="42.44" height="42.44" rx="5.87"/><rect class="cls-3" x="486.77" y="1157.91" width="42.44" height="42.44" rx="5.87"/><rect class="cls-3" x="554.32" y="1157.91" width="42.44" height="42.44" rx="5.87"/><rect class="cls-3" x="621.88" y="1157.91" width="42.44" height="42.44" rx="5.87"/><rect class="cls-3" x="689.43" y="1157.91" width="42.44" height="42.44" rx="5.87"/><path class="cls-3" d="M858.76,1089.81h-26a8.21,8.21,0,0,0-8.21,8.21v59.89H764.75a7.77,7.77,0,0,0-7.77,7.77v26.89a7.77,7.77,0,0,0,7.77,7.77h94a8.2,8.2,0,0,0,8.21-8.21V1098A8.21,8.21,0,0,0,858.76,1089.81Z"/><rect class="cls-3" x="892.09" y="1157.91" width="42.44" height="42.44" rx="5.87"/><rect class="cls-3" x="959.64" y="1157.91" width="42.44" height="110.53" rx="9.47"/><rect class="cls-3" x="216.56" y="1226" width="42.44" height="42.44" rx="5.87"/><rect class="cls-3" x="284.11" y="1226" width="42.44" height="42.44" rx="5.87"/><rect class="cls-3" x="351.66" y="1226" width="42.44" height="42.44" rx="5.87"/><rect class="cls-3" x="419.22" y="1226" width="245.1" height="42.44" rx="14.1"/><rect class="cls-3" x="689.43" y="1226" width="42.44" height="42.44" rx="5.87"/><rect class="cls-3" x="756.98" y="1226" width="42.44" height="42.44" rx="5.87"/><rect class="cls-3" x="824.54" y="1226" width="42.44" height="42.44" rx="5.87"/><rect class="cls-3" x="892.09" y="1226" width="42.44" height="42.44" rx="5.87"/><polygon class="cls-15" points="338.72 449.38 291.28 448.57 293.77 398.76 294.95 374.94 295.02 373.76 332.14 358.15 333.35 374.99 334.24 387.25 338.72 449.38"/><path class="cls-16" d="M246,603.56,226,768.69a37.56,37.56,0,0,0,.25,12.89,38,38,0,0,0,44.58,30.08c20.62-4,28.51-19.93,32.22-43.61,7.11-45.44,31.93-181.8,31.93-181.8Z"/><polygon class="cls-16" points="375.29 595.25 302.02 600.16 302.38 681.35 311.08 694.21 319.14 772.47 393.31 766.54 375.29 595.25"/><path class="cls-2" d="M185.67,558.38l.25.16a23.93,23.93,0,0,0,33.1-6.65l59.26-89.06a23.93,23.93,0,0,0-6.65-33.1l-.24-.17a24,24,0,0,0-33.1,6.65L179,525.28A24,24,0,0,0,185.67,558.38Z"/><polygon class="cls-17" points="507.1 446.53 481.93 471.16 456.51 455.68 472.87 430.21 506.01 431.28 507.1 446.53"/><path class="cls-2" d="M409.38,563.25c11.84,6.88,26.58,4,32.63-6.52L471.94,502l10.56-19.39,11.05-20.18-18.37-12.7-13.05-9-1.26-.89-13.41,19.9L435.15,478l-36.24,53.67C392.86,542.12,397.53,556.36,409.38,563.25Z"/><path class="cls-15" d="M315.62,428.55c17.4.38,24.81-8.27,27.05-11.67l-6.51-2.94-43-2.17L288,413.43C290.13,417.49,297.83,428.16,315.62,428.55Z"/><path class="cls-2" d="M377.38,536.84l1,71.18h-134L246,428.57,292,412c.52.95,1.08,1.93,1.76,3l.18.22c2.49,3.17,7.25,6.18,20.6,6.48,11.12.26,16.57-1.29,19.67-3.31l0,0a11.71,11.71,0,0,0,3.43-3.65l43.41,9.58-2.92,90.58Z"/><path class="cls-16" d="M212.11,936.29l68.92,0,20.78-160.39a38,38,0,1,0-75.65-8,35.86,35.86,0,0,0-.15,5.38L214,914.05l-1.9,22.24Z"/><path class="cls-2" d="M433.39,564.29h0a24.31,24.31,0,0,1-32.61-10.59l-48.66-95.47a24.31,24.31,0,0,1,10.59-32.61h0a24.32,24.32,0,0,1,32.61,10.59L444,531.68A24.31,24.31,0,0,1,433.39,564.29Z"/><path class="cls-18" d="M334.2,418.3l-19.67,31.09-20.6-34.26c2.49,3.17,7.25,6.18,20.6,6.48C325.65,421.87,331.1,420.32,334.2,418.3Z"/><path class="cls-19" d="M106.31,771.27c10.21-5.87,34.15-16.5,46.95-22.77,18.54-9.1,29.69-44.1-1.39-71.59-25.23-22.31-64.44,8.5-78.83,19a3.17,3.17,0,0,1-5-3c1.1-7.94,5.78-23.08,20-38.08,26.14-27.48,50-32.59,68.63-30.32a56,56,0,0,0,12,.06,77.57,77.57,0,0,0,42.16-18.09L494.58,369.63c38-35.2,17.35-69.66,49-101.31,23.49-23.49,67.76-21.8,86.37-20a2.9,2.9,0,0,1,1.2,5.41c-10.2,5.87-27.87,12-40.66,18.3-18.55,9.09-27,48.84,4,76.33,25.22,22.32,59.07-4.74,73.46-15.22a3.17,3.17,0,0,1,5,3c-1.11,7.94-5.51,21.4-19.78,36.4-26.14,27.48-53.86,30.25-72.47,28-7.89-1-16.39.9-23.75,3.49a87.88,87.88,0,0,0-27,15.65L237.38,663.9A51.11,51.11,0,0,0,223.07,683c-10.89,25.52-1.84,49.78-25.15,73.09-23.49,23.49-71.79,22.37-90.4,20.61A2.91,2.91,0,0,1,106.31,771.27Z"/><path class="cls-6" d="M217.32,652.18,533.24,388.46a10.73,10.73,0,0,0,1.36-15.07h0A10.72,10.72,0,0,0,519.53,372L203.61,635.75a10.73,10.73,0,0,0-1.36,15.07h0A10.73,10.73,0,0,0,217.32,652.18Z"/><path class="cls-15" d="M352.51,569.94c-.28,2.09-12.78,4.77-22.05,3.78-7.86-.83-25.77-4.69-31-5.86l2-25.06a65.11,65.11,0,0,0,9.61-1.06c7.3-1.47,27.59-3.18,27.82-.23s-13.45,6.89-12.34,8,11.82.57,16.35,0,14.09-3.47,16-1.55-.17,5.32-.17,5.32,3.52-1.52,4.06.85-4.33,6.1-4.33,6.1,1.84-1.06,1.8,1.7-9.23,5.83-9.23,5.83A1.71,1.71,0,0,1,352.51,569.94Z"/><path class="cls-16" d="M318.88,769.58l17.7,166.71h67.71L393.43,768.67a44.56,44.56,0,0,0-.56-5.56c-1.85-20.94-18.49-36.58-39.42-34.75A38.07,38.07,0,0,0,318.88,769.58Z"/><path class="cls-2" d="M305.54,534.73l-24-4.82-21.7-4.35L202,513.92c-12-1.59-23.29,8.19-25.13,21.78s6.51,26,18.5,27.64l60.44,4.46,22,1.65,22.7,1.68Z"/><polygon class="cls-20" points="335.55 405.41 308.88 385.97 334.24 387.25 335.55 405.41"/><path class="cls-15" d="M331.59,330.53l7.22,26.28,2.48,9c1.95,7.12,2.86,18.23-4.48,22.88s-19.25,4.33-29.21-1.89-37.34-39.2-17.48-59.6S330,327,331.59,330.53Z"/><path class="cls-21" d="M294.46,384.77s12.88-19.81,5.87-31.08,0-14.11,4.92-13.25,13.49.62,17-.74c0,0-10.44.25-14.88-2.34,0,0,20.58,1.69,25.07-3.83l1.1,4s7.42-17.46-3.73-21.53-15.79.54-15.79.54,3.55-7.14-1.55-8.49-9.78,9-9.78,9-7.14-8.86-14.53-.12-4.31,16.75-4.31,16.75-8.61,7.14-4.43,18.35S293.53,373.8,294.46,384.77Z"/><path class="cls-15" d="M300.51,370.4c4,3.59,5.56,6.45,2.75,9.57a9.18,9.18,0,0,1-12.67.41c-4-3.59-4.92-9-2.1-12.15S296.54,366.81,300.51,370.4Z"/><path class="cls-22" d="M315.8,356.38c.45,1.65,1.68,2.75,2.75,2.46s1.57-1.87,1.12-3.52-1.69-2.76-2.76-2.46S315.34,354.73,315.8,356.38Z"/><path class="cls-22" d="M335.77,350.89c.46,1.65,0,3.23-1.11,3.52s-2.3-.81-2.75-2.46,0-3.23,1.11-3.52S335.32,349.24,335.77,350.89Z"/><path class="cls-17" d="M321.87,366.44c-.09,1.66-2.84,2.85-6.13,2.67s-5.89-1.67-5.8-3.33,2.83-2.85,6.13-2.67S322,364.78,321.87,366.44Z"/><path class="cls-17" d="M338.81,356.81l1.61,5.86c-2.39,1-4.6.84-5.3-.36C334.34,360.89,336,358.43,338.81,356.81Z"/><path class="cls-23" d="M293.59,376.22a13.79,13.79,0,0,1,4.92-1.35c-3.64-3.84-7-2.35-7-2.35"/><path class="cls-24" d="M322.19,374.8s4.41,4.8,11.32,1.49"/><path class="cls-24" d="M324.33,355.26l6.54,9.55a2.56,2.56,0,0,1-.2,3.14l-1.2,1.36-1.24,1.39"/><path class="cls-24" d="M312.44,353.69s2.58-4.47,7-4.48"/><path class="cls-24" d="M336.16,345.27a6.39,6.39,0,0,0-7,1"/><polygon class="cls-3" points="336.05 412.42 314.54 421.63 325.84 435.36 338.72 415.06 336.05 412.42"/><polygon class="cls-3" points="293.19 410.38 314.54 421.63 304.36 434.78 291.28 412.23 293.19 410.38"/><polygon class="cls-15" points="346.35 962.35 344.53 936.29 395.26 936.29 397.25 962.35 346.35 962.35"/><polygon class="cls-20" points="396.16 948.1 344.53 936.29 395.26 936.29 396.16 948.1"/><polygon class="cls-15" points="271.04 962.35 272.99 936.25 221.03 936.29 220.14 962.35 271.04 962.35"/><path class="cls-15" d="M505.66,426.78l-7.37.18a4.67,4.67,0,0,0-4.31,3.45l-4.63,15.5c-1,3.25,1.26,6.64,4.43,6.75l8,.28a4.68,4.68,0,0,0,4.63-3.68l4-16C511.24,430,508.84,426.7,505.66,426.78Z"/><polygon class="cls-20" points="271.9 950.8 221.03 936.29 272.99 936.25 271.9 950.8"/><path class="cls-21" d="M285.43,332.93a11.16,11.16,0,0,0-12.07,1.85s10.34-3,12.07,1S285.43,332.93,285.43,332.93Z"/><polyline class="cls-25" points="288.76 417.49 314.54 458.95 339.97 420.17"/><line class="cls-26" x1="239.4" y1="521.26" x2="229.58" y2="519.47"/><line class="cls-26" x1="245.27" y1="512.44" x2="251.28" y2="503.42"/><path class="cls-21" d="M422.25,984.26H347.33l-.13-3L346.28,961h51c6.31,0,12.15,3.71,16.61,7.57a25.49,25.49,0,0,1,7.73,12.62A18.6,18.6,0,0,1,422.25,984.26Z"/><path class="cls-27" d="M422.25,984.26H347.33l-.13-3h74.4A18.6,18.6,0,0,1,422.25,984.26Z"/><path class="cls-28" d="M398.79,965.18s-6.47-11.37-10.83-6.88,10.83,6.88,10.83,6.88"/><path class="cls-28" d="M396.52,967.44l2.27-2.26s6.48-11.37,10.84-6.88-10.84,6.88-10.84,6.88"/><line class="cls-28" x1="400.53" y1="967.44" x2="398.79" y2="965.18"/><path class="cls-21" d="M195.53,984.26h74.92l.12-3,.92-20.19h-51c-6.31,0-12.15,3.71-16.62,7.57a25.47,25.47,0,0,0-7.72,12.62A18.6,18.6,0,0,0,195.53,984.26Z"/><path class="cls-27" d="M195.53,984.26h74.92l.12-3H196.18A18.6,18.6,0,0,0,195.53,984.26Z"/><path class="cls-28" d="M219,965.86s6.48-11.36,10.84-6.87S219,965.86,219,965.86"/><path class="cls-28" d="M221.26,968.13,219,965.86s-6.47-11.36-10.83-6.87S219,965.86,219,965.86"/><line class="cls-28" x1="217.24" y1="968.13" x2="218.98" y2="965.86"/><polyline class="cls-29" points="312.94 712.27 315.38 692.31 327.63 683.86 337.58 643.31"/><line class="cls-29" x1="397.25" y1="915.87" x2="349.06" y2="915.87"/><line class="cls-29" x1="268.33" y1="915.87" x2="220.14" y2="915.87"/><path class="cls-10" d="M1236.85,181.15a38.82,38.82,0,0,1-35.08,38,166.77,166.77,0,0,0,20.38,52.17,38.85,38.85,0,0,1,53.63,55.56,170.34,170.34,0,0,0,32.53,16.49c5.12,1.91,10.34,3.6,15.58,5,1,.33,2.12.58,3.13.83a38.93,38.93,0,0,1,39.25-33.75,39,39,0,0,1,38,35.09,166.36,166.36,0,0,0,52-20.36,38.88,38.88,0,0,1,55.65-53.58,167.4,167.4,0,0,0,22.24-51.3,38.86,38.86,0,0,1,1.48-77.18A166.86,166.86,0,0,0,1515.28,96a38.71,38.71,0,0,1-47.07.11,29,29,0,0,1-4.53-4,38.75,38.75,0,0,1-2-51.73,169.84,169.84,0,0,0-30.62-15.81c-5.11-1.91-10.27-3.68-15.53-5.15-1.75-.49-3.5-1-5.24-1.4a38.7,38.7,0,0,1-39.19,33.67,39.53,39.53,0,0,1-10.43-1.56,38.88,38.88,0,0,1-27.54-33.46,166.51,166.51,0,0,0-52,20.36,38.87,38.87,0,0,1-55.64,53.58A169.24,169.24,0,0,0,1203.18,142,38.76,38.76,0,0,1,1236.85,181.15Zm74.51-57a81.3,81.3,0,0,1,31.13-18.87,82.59,82.59,0,0,1,45.31-2,75,75,0,0,1,15.49,5.37,82.51,82.51,0,0,1,44.2,50.15,82.54,82.54,0,0,1-21.5,84.25,75.09,75.09,0,0,1-8.82,7.32,82.5,82.5,0,0,1-107.88-9.46,86,86,0,0,1-8.37-10.19A82.55,82.55,0,0,1,1311.36,124.18Z"/><polygon class="cls-10" points="1410.33 18.07 1429.44 1.34 1424.46 45.15 1410.33 18.07"/><polygon class="cls-10" points="1300.25 20.36 1281.13 37.08 1309.4 50.32 1317.83 23.37 1300.25 20.36"/><polygon class="cls-10" points="1220.88 202.41 1201.77 219.14 1216.92 231.33 1234.14 217.26 1220.88 202.41"/><polygon class="cls-10" points="1244.6 73.94 1225.49 90.66 1232.65 109.69 1237.61 89.01 1244.6 73.94"/><polygon class="cls-10" points="1346.14 332.47 1327.02 349.19 1315.56 335.6 1326.65 321.69 1346.14 332.47"/><polygon class="cls-10" points="1554.77 131.39 1535.65 148.11 1516.19 132.11 1526.61 117.72 1554.77 131.39"/><polygon class="cls-10" points="1475.4 313.45 1456.28 330.17 1428.27 325.5 1447.98 309.12 1475.4 313.45"/><polygon class="cls-10" points="1531.04 259.87 1511.93 276.59 1507.25 244.69 1524.38 248.17 1531.04 259.87"/><path class="cls-2" d="M1256,164.43a38.82,38.82,0,0,1-35.09,38,167.32,167.32,0,0,0,20.38,52.18,38.85,38.85,0,0,1,53.63,55.56,170.72,170.72,0,0,0,32.54,16.49c5.11,1.91,10.33,3.6,15.58,5,1,.33,2.11.58,3.13.83a38.88,38.88,0,0,1,77.22,1.34,166.51,166.51,0,0,0,52-20.36A38.87,38.87,0,0,1,1531,259.87a167.67,167.67,0,0,0,22.25-51.3,38.86,38.86,0,0,1,1.48-77.18,166.86,166.86,0,0,0-20.37-52.1,38.72,38.72,0,0,1-47.07.11,28.62,28.62,0,0,1-4.54-4,38.76,38.76,0,0,1-2-51.73A169.11,169.11,0,0,0,1450.22,7.9c-5.12-1.91-10.28-3.68-15.53-5.15-1.76-.49-3.51-1-5.25-1.41A38.7,38.7,0,0,1,1390.25,35a39.59,39.59,0,0,1-10.43-1.56A38.88,38.88,0,0,1,1352.28,0a166.36,166.36,0,0,0-52,20.36,38.88,38.88,0,0,1-55.65,53.58,169.49,169.49,0,0,0-22.31,51.31A38.76,38.76,0,0,1,1256,164.43Zm74.5-57a81.37,81.37,0,0,1,31.13-18.87,82.5,82.5,0,0,1,45.31-2,75.33,75.33,0,0,1,15.5,5.37,82.51,82.51,0,0,1,44.2,50.15,82.54,82.54,0,0,1-21.5,84.25,76.76,76.76,0,0,1-8.82,7.32,82.5,82.5,0,0,1-107.88-9.46A86,86,0,0,1,1320,214,82.57,82.57,0,0,1,1330.47,107.46Z"/><polygon class="cls-15" points="1627.09 781.95 1674.38 781.15 1671.9 731.49 1670.72 707.74 1670.65 706.56 1633.65 691 1632.44 707.79 1631.55 720.02 1627.09 781.95"/><path class="cls-30" d="M1719.57,935.66l19.89,164.62a37.84,37.84,0,0,1-44.7,42.84c-20.55-4-28.42-19.87-32.11-43.47-7.09-45.31-31.84-181.24-31.84-181.24Z"/><polygon class="cls-30" points="1590.62 927.37 1663.67 932.28 1663.31 1013.21 1654.64 1026.03 1646.6 1104.05 1572.66 1098.14 1590.62 927.37"/><path class="cls-10" d="M1779.67,890.62l-.25.16a23.86,23.86,0,0,1-33-6.63l-59.09-88.79a23.88,23.88,0,0,1,6.63-33l.25-.17a23.88,23.88,0,0,1,33,6.63l59.09,88.8A23.88,23.88,0,0,1,1779.67,890.62Z"/><polygon class="cls-17" points="1464.84 777.61 1484.31 803.66 1509.66 788.23 1489.1 761.2 1460.3 763.91 1464.84 777.61"/><path class="cls-10" d="M1556.64,895.47c-11.81,6.87-26.5,3.95-32.53-6.49l-29.84-54.54-10.53-19.33-11-20.12L1491,782.33l13-9,1.26-.89,13.36,19.84L1531,810.47l36.13,53.5C1573.11,874.41,1568.45,888.6,1556.64,895.47Z"/><path class="cls-15" d="M1650.12,761.18c-17.35.39-24.74-8.24-27-11.63l6.49-2.93,42.91-2.16,5.15,1.65C1675.52,750.16,1667.85,760.79,1650.12,761.18Z"/><path class="cls-10" d="M1588.54,869.14l-1,71h133.58l-1.59-178.9-45.83-16.56c-.52.94-1.07,1.93-1.76,3l-.17.22c-2.48,3.16-7.23,6.16-20.54,6.46-11.09.26-16.52-1.29-19.61-3.3l0,0a11.65,11.65,0,0,1-3.42-3.64l-43.27,9.55,2.91,90.3Z"/><path class="cls-30" d="M1753.31,1267.38l-68.72-.05-20.71-159.9a37.92,37.92,0,1,1,75.42-7.94,35.63,35.63,0,0,1,.15,5.36l12,140.35,1.9,22.18Z"/><path class="cls-10" d="M1532.7,896.52h0A24.25,24.25,0,0,0,1565.21,886l48.52-95.18a24.25,24.25,0,0,0-10.56-32.51h0a24.23,24.23,0,0,0-32.51,10.56L1522.14,864A24.25,24.25,0,0,0,1532.7,896.52Z"/><path class="cls-19" d="M1441.56,724.64c69.27-87.91,54.14-215.86-33.77-285.18s-215.85-54.14-285.18,33.76-54.18,215.86,33.77,285.18S1372.23,812.59,1441.56,724.64Zm-273,18.34c-79.55-62.71-93.21-178.09-30.5-257.6s178-93.22,257.55-30.56,93.27,178.06,30.55,257.61S1248.14,805.7,1168.54,743Z"/><path class="cls-6" d="M1426.14,712.43c62.72-79.55,49-194.84-30.55-257.61s-194.84-49-257.55,30.56-49,194.89,30.5,257.6S1363.43,792,1426.14,712.43Zm-251.43,22.7a173.45,173.45,0,0,1,214.71-272.46c75.26,59.35,88.17,168.38,28.87,243.59A173.45,173.45,0,0,1,1174.71,735.13Z"/><path id="SVGID" class="cls-31" d="M1418.29,706.26c59.3-75.21,46.39-184.24-28.87-243.59a173.45,173.45,0,1,0,28.87,243.59Z"/><polygon class="cls-19" points="1509.15 791.02 1516.21 782.55 1430.27 714.85 1423.73 723.72 1509.15 791.02"/><path class="cls-6" d="M1701.76,935.19l.07-.09a13.08,13.08,0,0,0-2.18-18.41L1521.46,776.25l-5.25,6.3L1513,786.4l-3.83,4.62-4.47,5.37,178.75,140.89A13.08,13.08,0,0,0,1701.76,935.19Z"/><path class="cls-19" d="M1701.76,935.19l-.16-.11L1513,786.4l-3.83,4.62-4.47,5.37,178.75,140.89A13.08,13.08,0,0,0,1701.76,935.19Z"/><path class="cls-22" d="M1630.87,675.58s-.38-16.36,4.11-16.36S1638.13,675.54,1630.87,675.58Z"/><path class="cls-18" d="M1631.59,751l19.61,31,20.54-34.15c-2.48,3.16-7.23,6.16-20.54,6.46C1640.11,754.53,1634.68,753,1631.59,751Z"/><path class="cls-15" d="M1613.34,902.14c.28,2.08,12.73,4.76,22,3.77,7.83-.82,25.69-4.67,30.94-5.84l-2-25a64.71,64.71,0,0,1-9.58-1.05c-7.28-1.46-27.51-3.17-27.73-.23s13.4,6.88,12.3,8-11.79.57-16.3,0-14-3.46-15.91-1.55.18,5.3.18,5.3-3.51-1.51-4.06.85,4.32,6.09,4.32,6.09-1.83-1.06-1.79,1.69,9.2,5.81,9.2,5.81A1.7,1.7,0,0,0,1613.34,902.14Z"/><path class="cls-30" d="M1646.87,1101.18l-17.65,166.2h-67.51l10.83-167.11a44.6,44.6,0,0,1,.56-5.55c1.85-20.87,18.43-36.46,39.3-34.64A38,38,0,0,1,1646.87,1101.18Z"/><path class="cls-10" d="M1660.16,867.05l23.9-4.82,21.63-4.32,57.73-11.61c11.94-1.59,23.21,8.16,25,21.7S1782,894,1770,895.57L1709.77,900l-21.89,1.64-22.63,1.68Z"/><polygon class="cls-20" points="1630.24 738.12 1656.83 718.73 1631.55 720.02 1630.24 738.12"/><path class="cls-15" d="M1634.19,663.47s-4.21,15.32-7.19,26.19l-2.47,9c-2,7.1-2.86,18.18,4.46,22.81s19.19,4.31,29.12-1.89,37.22-39.07,17.43-59.42S1635.75,660,1634.19,663.47Z"/><path class="cls-22" d="M1672.31,657.19s-7.43-14.65-13.88-13.56.38,6.78.38,6.78-21.38-5.63-28.57,8.26,26.59,9.73,26.59,9.73-6.69,8.33,0,9.14,9.74-2,9.74-2-6.67,12.35-3,16.29-.87,15.09-5,18.26-11.63,1.86-15-1-5.61-3.74-7.74-4-7.18,1-9.35.69a8.45,8.45,0,0,1-3-1.6,37.64,37.64,0,0,0-1.2,5.33c-.16,3.17-1.73,17.34,14.34,18s27-7.08,32.61-18.78l2,9.14s1.94-10.29,7.56-15.32,12.67-28.31,2.51-37.28c0,0,8.73,5,7.61-1.25C1688.05,659.25,1672.31,657.19,1672.31,657.19Z"/><path class="cls-15" d="M1669.34,706c-1.91,5-2,8.24,1.88,9.74a9.16,9.16,0,0,0,11.45-5.35c1.91-5,.29-10.25-3.62-11.75S1671.26,701,1669.34,706Z"/><path class="cls-22" d="M1649.94,689.24c-.45,1.64-1.69,2.74-2.75,2.45s-1.56-1.87-1.11-3.51,1.68-2.75,2.75-2.45S1650.39,687.59,1649.94,689.24Z"/><path class="cls-22" d="M1630,683.76c-.45,1.65,0,3.22,1.11,3.51s2.29-.8,2.75-2.45-.05-3.22-1.11-3.51S1630.47,682.12,1630,683.76Z"/><path class="cls-17" d="M1643.88,699.27c.09,1.65,2.83,2.84,6.12,2.66s5.87-1.67,5.78-3.32-2.83-2.84-6.11-2.66S1643.79,697.62,1643.88,699.27Z"/><path class="cls-17" d="M1627,689.66l-1.61,5.85c2.38,1,4.59.83,5.28-.36C1631.45,693.74,1629.82,691.29,1627,689.66Z"/><path class="cls-32" d="M1678.12,708a13.74,13.74,0,0,0-5,1c1.51-5,5.17-5.25,5.17-5.25"/><path class="cls-33" d="M1641.43,688.13l-6.52,9.51a2.56,2.56,0,0,0,.19,3.13l1.21,1.35,1.23,1.39"/><path class="cls-33" d="M1653.28,686.55s-2.57-4.45-7-4.46"/><path class="cls-33" d="M1629.63,678.16a6.36,6.36,0,0,1,6.93,1"/><polygon class="cls-3" points="1629.74 745.11 1651.19 754.28 1639.92 767.98 1627.09 747.74 1629.74 745.11"/><polygon class="cls-3" points="1672.48 743.08 1651.19 754.28 1661.34 767.4 1674.38 744.92 1672.48 743.08"/><polygon class="cls-15" points="1619.48 1293.35 1621.29 1267.38 1570.71 1267.38 1568.74 1293.35 1619.48 1293.35"/><polygon class="cls-20" points="1569.82 1279.14 1621.29 1267.38 1570.71 1267.38 1569.82 1279.14"/><polygon class="cls-15" points="1694.55 1293.35 1692.61 1267.34 1744.42 1267.38 1745.3 1293.35 1694.55 1293.35"/><path class="cls-15" d="M1461.13,754.49l7.91-1.08a5.12,5.12,0,0,1,5.21,2.66l7.69,14.45a5.1,5.1,0,0,1-3.55,7.39l-8.51,1.63a5.12,5.12,0,0,1-5.6-2.83l-7.08-15A5.1,5.1,0,0,1,1461.13,754.49Z"/><polygon class="cls-20" points="1693.7 1281.85 1744.42 1267.38 1692.61 1267.34 1693.7 1281.85"/><polyline class="cls-34" points="1676.89 750.16 1651.19 791.49 1625.84 752.83"/><line class="cls-35" x1="1726.1" y1="853.62" x2="1735.89" y2="851.83"/><line class="cls-35" x1="1720.24" y1="844.82" x2="1714.26" y2="835.83"/><path class="cls-21" d="M1543.81,1315.2h74.69l.13-3,.91-20.13h-50.82c-6.29,0-12.11,3.7-16.56,7.55a25.48,25.48,0,0,0-7.71,12.58A19.31,19.31,0,0,0,1543.81,1315.2Z"/><path class="cls-27" d="M1543.81,1315.2h74.69l.13-3h-74.18A19.31,19.31,0,0,0,1543.81,1315.2Z"/><path class="cls-36" d="M1567.19,1296.17s6.46-11.33,10.81-6.85-10.81,6.85-10.81,6.85"/><path class="cls-36" d="M1569.47,1298.43l-2.28-2.26s-6.45-11.33-10.8-6.85,10.8,6.85,10.8,6.85"/><line class="cls-36" x1="1565.46" y1="1298.43" x2="1567.19" y2="1296.17"/><path class="cls-21" d="M1769.83,1315.2h-74.68l-.13-3-.92-20.13h50.82c6.3,0,12.12,3.7,16.57,7.55a25.39,25.39,0,0,1,7.7,12.58A17.29,17.29,0,0,1,1769.83,1315.2Z"/><path class="cls-27" d="M1769.83,1315.2h-74.68l-.13-3h74.17A17.29,17.29,0,0,1,1769.83,1315.2Z"/><path class="cls-36" d="M1746.45,1296.86s-6.45-11.33-10.8-6.85,10.8,6.85,10.8,6.85"/><path class="cls-36" d="M1744.18,1299.11l2.27-2.25s6.46-11.33,10.81-6.85-10.81,6.85-10.81,6.85"/><line class="cls-36" x1="1748.19" y1="1299.11" x2="1746.45" y2="1296.86"/><polyline class="cls-37" points="1652.79 1044.04 1650.36 1024.14 1638.14 1015.71 1628.22 975.29"/><line class="cls-37" x1="1568.74" y1="1247.01" x2="1616.77" y2="1247.01"/><line class="cls-37" x1="1697.26" y1="1247.01" x2="1745.3" y2="1247.01"/><line class="cls-35" x1="1721.09" y1="854.72" x2="1660.16" y2="867.05"/><line class="cls-35" x1="1721.09" y1="899.19" x2="1687.88" y2="901.65"/><path class="cls-15" d="M1639.29,711.6c-.2,1.47-2.38,2.41-4.87,2.08s-4.36-1.8-4.16-3.28,2.37-2.41,4.87-2.08S1639.48,710.12,1639.29,711.6Z"/><text class="cls-38" transform="translate(1131.97 629.8)">PAY SAVE</text></g></g></svg>