<svg xmlns="http://www.w3.org/2000/svg" viewBox="0 0 295.03 295.06"><defs><style>.cls-1{fill:#b52f09;}</style></defs><g id="Layer_2" data-name="Layer 2"><g id="Layer_2-2" data-name="Layer 2"><path class="cls-1" d="M0,191.77V172.48a12.33,12.33,0,0,0,.89-2.06C7.83,140.36,26.78,122.66,57.44,118,61.12,117.47,61,115.5,61,113c0-16.45-.14-32.91.08-49.36.06-4.24-1.63-5-5.32-4.9-8.89.2-17.78-.08-26.67.13-3.45.08-4.66-1-4.56-4.5.22-7.56-.24-15.15.21-22.69C25.54,17.46,33,7.75,46,2.14c1.7-.72,3.77-.57,5.1-2.14H232.62c21.31,6.49,28.09,21.1,27.52,40.62-.77,26.43-.19,52.9-.19,79.36,0,38.92.06,77.85-.09,116.77,0,4.19,1,5.69,5.35,5.45,6.4-.35,12.87.3,19.26-.2,6.06-.48,9.8,1.26,10.56,7.64v19.29c-.57,1.79-1.16,3.56-1.7,5.36C289.39,287.52,280,295,266.24,295q-86.24.16-172.46,0c-18,0-32.22-14.37-32.8-32.42a64.29,64.29,0,0,1,.06-10.2c.62-4.86-1.35-6.23-6-7-26.06-4.19-43.31-19.16-52.11-44C1.79,198.25,1,195,0,191.77Zm252.79-56.36c0-33.47.06-66.94,0-100.41,0-16.7-11-27.76-27.76-27.79-50.48-.08-101,0-151.46-.11-4,0-5.56.79-5.53,5.25q.28,50.21,0,100.41c0,3.89,1.18,4.95,5,5.45,29.65,3.85,53.44,29,55.26,58.18,2,31.77-17.2,59.36-46.69,67.57-4.43,1.23-10.89-.41-12.92,3.63s-.63,9.62-.5,14.53a26,26,0,0,0,23,25.35c10,1.32,15-2,17.5-11.69,2.17-8.36,1.8-16.89,1.06-25.38-.69-7.89-.49-8.28,7.62-8.28H245.6c7.19,0,7.19,0,7.19-7.43ZM64.15,124.82A57.06,57.06,0,1,0,121.3,181.7,57.26,57.26,0,0,0,64.15,124.82Zm138,124.69c-26.65,0-53.3.09-79.95-.1-4.37,0-5.34,1.11-4.89,5.44,1,9.65.66,19.39-3.68,28.3-2.25,4.63-.51,4.71,3.31,4.7q73.14-.12,146.29-.06c1.33,0,2.65,0,4-.17,11.06-1,17.27-6.36,19.62-17.12a59.61,59.61,0,0,0,1.1-15.22c-.18-4.44-1.63-5.95-6.38-5.9C255.05,249.65,228.59,249.51,202.12,249.51ZM60.94,29.5c0-5.85-.23-11.71.08-17.55.23-4.31-1.57-5.06-5.37-4.64-12.91,1.44-23,11.37-23.77,24.07-.33,5.46,0,11-.16,16.42-.08,2.74,1,3.62,3.63,3.58,7.17-.11,14.35-.17,21.52,0,3.32.09,4.22-1.25,4.12-4.34C60.82,41.21,60.94,35.36,60.94,29.5Z"/><path class="cls-1" d="M123.7,60.65c10.38,0,20.77,0,31.15,0,3.48,0,6.88.48,6.72,4.86-.15,4-3.5,4.27-6.7,4.27q-31.44,0-62.87,0c-3.16,0-6.56-.22-6.73-4.26-.19-4.42,3.27-4.88,6.72-4.87Z"/><path class="cls-1" d="M197.24,186.09c-10.58,0-21.17,0-31.75,0-3.39,0-6.41-.72-6.34-4.66s3.21-4.48,6.53-4.48q31.75.08,63.51,0c3.39,0,6.44.73,6.35,4.66s-3.19,4.51-6.54,4.49C218.41,186,207.83,186.1,197.24,186.09Z"/><path class="cls-1" d="M197.25,213.37c-10.59,0-21.18,0-31.76,0-3.4,0-6.41-.72-6.34-4.66s3.21-4.49,6.53-4.49q31.77.06,63.52,0c3.4,0,6.41.77,6.34,4.68s-3.2,4.49-6.53,4.47C218.42,213.33,207.83,213.38,197.25,213.37Z"/><path class="cls-1" d="M197.43,158.81c-10.59,0-21.17,0-31.75,0-3.33,0-6.44-.55-6.53-4.49s3-4.64,6.35-4.64q31.74.06,63.5,0c3.31,0,6.49.5,6.54,4.46s-3,4.69-6.36,4.68C218.6,158.77,208,158.81,197.43,158.81Z"/><path class="cls-1" d="M123.28,42.47q-15.28,0-30.58,0c-3.45,0-7.55.23-7.4-4.67s4.25-4.45,7.68-4.46q30.3,0,60.6,0c3.61,0,8-.44,8,4.73,0,4.81-4.26,4.39-7.68,4.4Z"/><path class="cls-1" d="M123.72,88.06h31.14c3.17,0,6.55.15,6.7,4.23.16,4.42-3.26,4.83-6.73,4.83q-31.41,0-62.83,0c-3.16,0-6.54-.25-6.72-4.3-.2-4.52,3.35-4.75,6.74-4.75Z"/><path class="cls-1" d="M63.76,206.91c-8.57,0-8.56,0-10.67-8.72a28.14,28.14,0,0,0-4.69-9.56c-6.57-9.33-5.41-20.39,2.7-27.49a20.31,20.31,0,0,1,26.42.15c7.77,6.93,8.92,18.1,2.65,27.13a29.07,29.07,0,0,0-4.78,9.51C73.13,206.91,73.1,206.9,63.76,206.91Zm.37-5c4.5,1.27,6.25-.88,6.82-5.32.52-4,2.82-7.32,5.13-10.6,5.12-7.28,4.4-15.53-1.63-21a15.17,15.17,0,0,0-20.61.08c-6,5.5-6.68,13.68-1.46,21,2.45,3.44,4.77,7,5.22,11.16C58.07,201.58,60.2,202.63,64.13,201.88Z"/><path class="cls-1" d="M65.12,207.27c2.5,1.17,8.24-2.39,8.25,2.74,0,4.31-5.49,2-8.55,2.42a33.77,33.77,0,0,1-6.2,0c-1.94-.06-4.11-.25-4-2.83.09-2.23,2.1-2.31,3.83-2.35C60.51,207.24,62.58,207.27,65.12,207.27Z"/><path class="cls-1" d="M64.37,213.1c2.43,0,4.86-.09,7.28,0a2,2,0,0,1,2.13,2.12,2.17,2.17,0,0,1-2,2.3,43.29,43.29,0,0,1-15.06.06,2.31,2.31,0,0,1-2.17-2.17c-.12-1.76,1.16-2.28,2.51-2.35,2.42-.13,4.86,0,7.29,0Z"/><path class="cls-1" d="M66.65,145.19c0,1.13,0,2.26,0,3.38-.06,1.59-.42,3.19-2.3,3.32s-2.41-1.5-2.48-3.07c-.09-2.25-.08-4.51,0-6.76,0-1.57.43-3.31,2.28-3.33,2.19,0,2.49,1.86,2.53,3.65C66.67,143.32,66.65,144.25,66.65,145.19Z"/><path class="cls-1" d="M47.64,157.53c-.39,1.85-1.61,3.18-3.46,1.74a37,37,0,0,1-6.75-6.78c-1.33-1.77-.14-3.25,2-3.44C40.76,148.94,47.55,156,47.64,157.53Z"/><path class="cls-1" d="M95.34,178.62c-1.4,0-2.33.07-3.26,0-1.46-.13-3.29,0-3.4-2.06-.12-2.27,1.68-2.59,3.46-2.67a12.39,12.39,0,0,1,2.79,0c2.45.46,6.78-1.51,6.58,2.71C101.34,180,97.23,178.15,95.34,178.62Z"/><path class="cls-1" d="M82.47,192.94c2.17-.07,9.22,6.87,9,8.48-.3,1.83-1.76,2.91-3.22,1.74a43.27,43.27,0,0,1-7.14-7.11C79.86,194.5,81.4,193.42,82.47,192.94Z"/><path class="cls-1" d="M82.68,159.76c-1.8-.64-2.78-2-1.28-3.73a50.75,50.75,0,0,1,6.41-6.37c1.88-1.56,3.24-.36,3.63,1.64C91.75,152.84,84.46,159.87,82.68,159.76Z"/><path class="cls-1" d="M32.72,178.66c-1.8-.68-5.89,1.43-5.82-2.43.06-3.64,4-2,6.38-2.36a10.39,10.39,0,0,1,2.23,0c1.82.1,4.17-.17,4.11,2.51s-2.53,2.08-4.26,2.26C34.62,178.72,33.87,178.66,32.72,178.66Z"/><path class="cls-1" d="M38.94,203.53c-2-.55-2.71-2-1.33-3.7A43.81,43.81,0,0,1,44,193.5c1.68-1.36,3.27-.64,3.59,1.61C47.8,196.75,40.76,203.62,38.94,203.53Z"/><path class="cls-1" d="M64.46,223.37c-2.2-.59-6.1,1.28-6.12-2.69,0-3,3.46-2.21,5.49-2.06,2.26.18,6.14-1.57,6.17,2.48C70,224.18,66.59,223,64.46,223.37Z"/><path class="cls-1" d="M66.18,163.51c5.12.5,10.32,5.65,10.85,10.77.17,1.7.41,3.64-1.87,4.05-1.94.34-2.45-1.13-2.74-2.78-.75-4.13-3.13-6.77-7.37-7.44-1.63-.26-3.14-.72-2.86-2.67C62.53,163.12,64.47,163.4,66.18,163.51Z"/></g></g></svg>